<?xml version="1.0" encoding="UTF-8" standalone="no"?>
<svg
   xmlns:freecad="http://www.freecadweb.org/wiki/index.php?title=Svg_Namespace"
   xmlns:dc="http://purl.org/dc/elements/1.1/"
   xmlns:cc="http://creativecommons.org/ns#"
   xmlns:rdf="http://www.w3.org/1999/02/22-rdf-syntax-ns#"
   xmlns:svg="http://www.w3.org/2000/svg"
   xmlns="http://www.w3.org/2000/svg"
   xmlns:sodipodi="http://sodipodi.sourceforge.net/DTD/sodipodi-0.dtd"
   xmlns:inkscape="http://www.inkscape.org/namespaces/inkscape"
   version="1.1"
   width="1189mm"
   height="841mm"
   viewBox="0 0 1189 841"
   id="svg232"
   sodipodi:docname="flatpack.svg"
   inkscape:version="0.92.3 (2405546, 2018-03-11)">
  <metadata
     id="metadata238">
    <rdf:RDF>
      <cc:Work
         rdf:about="">
        <dc:format>image/svg+xml</dc:format>
        <dc:type
           rdf:resource="http://purl.org/dc/dcmitype/StillImage" />
      </cc:Work>
    </rdf:RDF>
  </metadata>
  <defs
     id="defs236" />
  <sodipodi:namedview
     pagecolor="#ffffff"
     bordercolor="#666666"
     borderopacity="1"
     objecttolerance="10"
     gridtolerance="10"
     guidetolerance="10"
     inkscape:pageopacity="0"
     inkscape:pageshadow="2"
     inkscape:window-width="1920"
     inkscape:window-height="1017"
     id="namedview234"
     showgrid="false"
     inkscape:zoom="0.29698771"
     inkscape:cx="1731.4353"
     inkscape:cy="-584.77159"
     inkscape:window-x="1912"
     inkscape:window-y="-8"
     inkscape:window-maximized="1"
     inkscape:current-layer="svg232" />
  <!-- Working space 20 10 1179 831 -->
  <!-- Title block 999 771 1179 831 -->
  <g
     id="g111">
    <rect
       id="drawing-border"
       style="fill:none;stroke:#000000;stroke-width:0.7;stroke-linecap:miter;stroke-miterlimit:4"
       width="1159"
       height="821"
       x="20"
       y="10" />
    <!-- width-30, height-20 -->
    <g
       transform="translate(979,544)"
       id="g109">
      <!-- A4 Portrait based for other formats width-210, height-297 -->
      <!--        page       rect   translation
			               w    h    rw   rh   tx   ty
			        A4-P  210  297  180  277    0    0
			        A3-L  420  297  390  277  210    0
			        A2-L  594  420  564  400  384  123
			        A1-L  841  594  811  574  631  297
			        A0-L 1189  841 1159  821  979  544
			-->
      <g
         id="titleblock-structure"
         style="fill:none;stroke:#000000;stroke-width:0.35;stroke-linecap:miter;stroke-miterlimit:4">
        <rect
           width="180"
           height="60"
           x="20"
           y="227"
           id="rect3" />
        <path
           d="m 20,239 h 180"
           id="path5" />
        <path
           d="m 80,227 v 12"
           id="path7" />
        <path
           d="m 140,239 v 48"
           id="path9" />
        <path
           d="m 160,239 v 12"
           id="path11" />
        <path
           d="m 180,239 v 12"
           id="path13" />
        <path
           d="m 140,251 h 60"
           id="path15" />
        <path
           d="m 140,275 h 60"
           id="path17" />
        <path
           d="m 180,275 v 12"
           id="path19" />
      </g>
      <g
         id="titleblock-text-non-editable"
         style="font-size:3px;text-anchor:start;fill:#000000;font-family:osifont"
         xml:space="preserve">
				<text
   x="21"
   y="230"
   id="text22">Created by:</text>

				<text
   x="81"
   y="230"
   id="text24">Title:</text>

				<text
   x="21"
   y="242"
   id="text26">Supplementary information:</text>

				<text
   x="141"
   y="242"
   id="text28">Size:</text>

				<text
   x="161"
   y="242"
   id="text30">Sheet:</text>

				<text
   x="181"
   y="242"
   id="text32">Scale:</text>

				<text
   x="141"
   y="254"
   id="text34">Part number:</text>

				<text
   x="141"
   y="266"
   id="text36">Drawing number:</text>

				<text
   x="141"
   y="278"
   id="text38">Date:</text>

				<text
   x="181"
   y="278"
   id="text40">Revision:</text>

			</g>      <g
         id="titleblock-text-editable"
         style="font-size:5px;text-anchor:middle;fill:#000000;font-family:osifont"
         xml:space="preserve">
				<text
   freecad:editable="AUTHOR NAME"
   x="50"
   y="236"
   id="text45"><tspan
     id="tspan43">LouisLOurson</tspan></text>

				<text
   freecad:editable="DRAWING TITLE"
   x="140"
   y="236"
   id="text49"><tspan
     id="tspan47">Kerbal Controller Flat Pack</tspan></text>

				<text
   freecad:editable="SI-1"
   x="80"
   y="248"
   id="text53"><tspan
     id="tspan51" /></text>

				<text
   freecad:editable="SI-2"
   x="80"
   y="255"
   id="text57"><tspan
     id="tspan55" /></text>

				<text
   freecad:editable="FreeCAD DRAWING"
   x="80"
   y="262"
   id="text61"><tspan
     id="tspan59">FreeCAD DRAWING</tspan></text>

				<text
   freecad:editable="SI-4"
   x="80"
   y="269"
   id="text65"><tspan
     id="tspan63" /></text>

				<text
   freecad:editable="SI-5"
   x="80"
   y="276"
   id="text69"><tspan
     id="tspan67" /></text>

				<text
   freecad:editable="SI-6"
   x="80"
   y="283"
   id="text73"><tspan
     id="tspan71" /></text>

				<text
   freecad:editable="FC-SI"
   x="150"
   y="248"
   id="text77"><tspan
     id="tspan75">A0</tspan></text>

				<text
   freecad:editable="FC-SH"
   x="170"
   y="248"
   id="text81"><tspan
     id="tspan79">X / Y</tspan></text>

				<text
   freecad:editable="FC-SC"
   x="190"
   y="248"
   id="text85"><tspan
     id="tspan83">1</tspan></text>

				<text
   freecad:editable="PN"
   x="170"
   y="260"
   id="text89"><tspan
     id="tspan87">PN</tspan></text>

				<text
   freecad:editable="DN"
   x="170"
   y="272"
   id="text93"><tspan
     id="tspan91">DN</tspan></text>

				<text
   freecad:editable="FC-DATE"
   x="160"
   y="284"
   id="text97"><tspan
     id="tspan95">28/05/2019</tspan></text>

				<text
   freecad:editable="FC-REV"
   x="190"
   y="284"
   id="text101"><tspan
     id="tspan99">REV A</tspan></text>

			</g>      <!-- Set display:none to hide FreeCAD Logo -->
      <g
         style="display:inline"
         id="freecad-logo"
         transform="translate(128.5,276)"
         fill-rule="evenodd"
         stroke="#000"
         stroke-width="0.35"
         fill="none">
        <path
           d="m0.1524 0.15254v8.8549h1.9744v-3.4652h1.396v-1.3661h-1.396v-1.4745h3.4391v-2.5441l-5.4135-0.005z"
           id="path104" />
        <path
           d="m7.7927 3.4504-0.50715-0.176-0.48387-1.2366-0.76115 0.04-0.34718 1.2787-0.4859 0.23269-1.2119-0.53015-0.51188 0.56882 0.65892 1.1485-0.18006 0.50567-1.2366 0.48387 0.044064 0.76263 1.2787 0.34718 0.23269 0.4859-0.53421 1.2104 0.56882 0.51188 1.1485-0.65891 0.50973 0.18155 0.4798 1.2351 0.7667-0.04258 0.34311-1.2802 0.4859-0.23269 1.2145 0.5357 0.51188-0.56882-0.65891-1.1485 0.17748-0.51122 1.2351-0.4798-0.03851-0.76521-1.2802-0.34311-0.23269-0.4859 0.53163-1.216-0.56881-0.51184zm-0.5715 1.2244 0.23576 0.13679 0.20426 0.18519 0.16353 0.22101 0.11763 0.24572 0.06916 0.26489 0.01146 0.27146-0.03921 0.27139-0.08948 0.25764-0.14234 0.23834-0.17964 0.20167-0.22101 0.16353-0.24572 0.11763-0.26489 0.06916-0.27295 0.01553-0.2719-0.04-0.2576-0.089-0.2383-0.143-0.2002-0.183-0.165-0.217-0.1177-0.246-0.0676-0.269-0.0156-0.273 0.039206-0.2714 0.089484-0.25764 0.14085-0.23427 0.18113-0.20574 0.22101-0.16352 0.24572-0.11763 0.26895-0.06768 0.27147-0.01146 0.27139 0.03921 0.25764 0.08948z"
           id="path106" />
      </g>
    </g>
  </g>
  <g
     id="ViewFinal"
     transform="rotate(60,100,80) translate(100,80) scale(0.5,0.5)">
    <g
       fill="none"
       stroke="rgb(0, 0, 0)"
       stroke-linecap="butt"
       stroke-linejoin="miter"
       stroke-width="0.700000"
       transform="scale(1,-1)"
       id="g148">
      <path
         id="1"
         d=" M 81.6198 -108.555 L 75.963 -111.821 " />
      <path
         id="2"
         d=" M 28.8654 -84.3657 L 23.2086 -87.6316 " />
      <path
         id="3"
         d=" M 81.6198 -108.555 L 28.8654 -84.3657 " />
      <path
         id="4"
         d=" M 75.963 -111.821 L 23.2086 -87.6316 " />
      <path
         id="5"
         d=" M 28.8654 -84.3657 L 81.6198 -108.555 " />
      <path
         id="6"
         d=" M 81.6198 -108.555 L 452.144 105.367 " />
      <path
         id="7"
         d=" M 452.144 105.367 L 399.389 129.556 " />
      <path
         id="8"
         d=" M 399.389 129.556 L 28.8654 -84.3657 " />
      <path
         id="9"
         d=" M 392.017 286.542 L 389.907 287.51 " />
      <path
         id="10"
         d=" M 389.907 287.51 L 8.06898 67.0557 " />
      <path
         id="11"
         d=" M 23.2086 -87.6316 L 21.0984 -86.6641 " />
      <path
         id="12"
         d=" M 8.06898 67.0557 L 21.0984 -86.6641 " />
      <path
         id="13"
         d=" M 405.046 132.822 L 402.936 133.79 " />
      <path
         id="14"
         d=" M 23.2086 -87.6316 L 405.046 132.822 " />
      <path
         id="15"
         d=" M 21.0984 -86.6641 L 402.936 133.79 " />
      <path
         id="16"
         d=" M 405.046 132.822 L 392.017 286.542 " />
      <path
         id="17"
         d=" M 402.936 133.79 L 389.907 287.51 " />
      <path
         id="18"
         d=" M -33.4242 140.892 L 8.36576 67.2271 " />
      <path
         id="19"
         d=" M 391.872 288.25 L 390.353 287.418 " />
      <path
         id="20"
         d=" M 390.287 287.335 L 391.872 288.25 " />
      <path
         id="21"
         d=" M 390.243 287.355 L 390.353 287.418 " />
      <path
         id="22"
         d=" M 349.933 362.178 L 348.414 361.346 " />
      <path
         id="23"
         d=" M 391.872 288.25 L 349.933 362.178 " />
      <path
         id="24"
         d=" M 390.353 287.418 L 348.414 361.346 " />
      <path
         id="25"
         d=" M 348.414 361.346 L -33.4242 140.892 " />
      <path
         id="26"
         d=" M 457.801 108.633 L 452.144 105.367 " />
      <path
         id="27"
         d=" M 457.801 335.796 L 457.801 108.633 " />
      <path
         id="28"
         d=" M 405.046 132.822 L 399.389 129.556 " />
      <path
         id="29"
         d=" M 457.801 108.633 L 405.046 132.822 " />
      <path
         id="30"
         d=" M 452.144 105.367 L 399.389 129.556 " />
      <path
         id="31"
         d=" M 391.872 288.25 L 390.287 287.335 " />
      <path
         id="32"
         d=" M 405.046 132.822 L 391.872 288.25 " />
      <path
         id="33"
         d=" M 391.872 288.25 L 349.933 362.178 " />
      <path
         id="34"
         d=" M 349.933 362.178 L 381.846 379.649 " />
      <path
         id="35"
         d=" M 381.846 379.649 L 457.801 335.796 " />
    </g>
  </g>
  <g
     id="OrthoDeployed"
     transform="rotate(90,100,-530) translate(100,-530) scale(1,1)">
    <g
       fill="none"
       stroke="rgb(0, 0, 0)"
       stroke-linecap="butt"
       stroke-linejoin="miter"
       stroke-width="0.350000"
       transform="scale(1,-1)"
       id="g199">
      <path
         id="path151"
         d=" M 800 0 L 800 261.758 " />
      <path
         id="path153"
         d=" M 1324 0 L 1324 261.758 " />
      <path
         id="path155"
         d=" M 800 0 L 1324 0 " />
      <path
         id="path157"
         d=" M 800 261.758 L 1324 261.758 " />
      <path
         id="path159"
         d=" M 800 261.758 L 800 336.758 " />
      <path
         id="path161"
         d=" M 1324 261.758 L 1324 336.758 " />
      <path
         id="path163"
         d=" M 800 261.758 L 1324 261.758 " />
      <path
         id="path165"
         d=" M 800 336.758 L 1324 336.758 " />
      <path
         id="path167"
         d=" M 800 336.758 L 800 438.092 " />
      <path
         id="path169"
         d=" M 1324 336.758 L 1324 438.092 " />
      <path
         id="path171"
         d=" M 800 336.758 L 1324 336.758 " />
      <path
         id="path173"
         d=" M 800 438.092 L 1324 438.092 " />
      <path
         id="path175"
         d=" M 800 438.092 L 800 501.097 " />
      <path
         id="path177"
         d=" M 1324 438.092 L 1324 501.097 " />
      <path
         id="path179"
         d=" M 800 438.092 L 1324 438.092 " />
      <path
         id="path181"
         d=" M 800 501.097 L 1324 501.097 " />
      <path
         id="path183"
         d=" M 800 501.097 L 800 509.097 " />
      <path
         id="path185"
         d=" M 1324 501.097 L 1324 509.097 " />
      <path
         id="path187"
         d=" M 800 501.097 L 1324 501.097 " />
      <path
         id="path189"
         d=" M 800 509.097 L 1324 509.097 " />
      <path
         id="path191"
         d=" M 800 509.097 L 800 517.097 " />
      <path
         id="path193"
         d=" M 1324 509.097 L 1324 517.097 " />
      <path
         id="path195"
         d=" M 800 509.097 L 1324 509.097 " />
      <path
         id="path197"
         d=" M 800 517.097 L 1324 517.097 " />
    </g>
  </g>
  <g
     id="OrthoLeftPanel"
     transform="rotate(0,1000,350) translate(1000,350) scale(1,1)">
    <g
       fill="none"
       stroke="rgb(0, 0, 0)"
       stroke-linecap="butt"
       stroke-linejoin="miter"
       stroke-width="0.350000"
       transform="scale(1,-1)"
       id="g214">
      <path
         id="path202"
         d=" M -115.428 -202.978 L -115.428 75.2378 " />
      <path
         id="path204"
         d=" M -115.428 75.2378 L -40.8219 82.9155 " />
      <path
         id="path206"
         d=" M -40.8219 82.9155 L -22.1908 -98.1284 " />
      <path
         id="path208"
         d=" M -22.1908 -98.1284 L 37.1199 -159.016 " />
      <path
         id="path210"
         d=" M 37.1199 -159.016 L -8.01136 -202.978 " />
      <path
         id="path212"
         d=" M -8.01136 -202.978 L -115.428 -202.978 " />
    </g>
  </g>
  <g
     id="OrthoRightPanel"
     transform="rotate(0,750,350) translate(750,350) scale(1,1)">
    <g
       fill="none"
       stroke="rgb(0, 0, 0)"
       stroke-linecap="butt"
       stroke-linejoin="miter"
       stroke-width="0.350000"
       transform="scale(1,-1)"
       id="g229">
      <path
         id="path217"
         d=" M 115.428 -202.978 L 115.428 75.2378 " />
      <path
         id="path219"
         d=" M 115.428 75.2378 L 40.8219 82.9155 " />
      <path
         id="path221"
         d=" M 40.8219 82.9155 L 22.1908 -98.1284 " />
      <path
         id="path223"
         d=" M 22.1908 -98.1284 L -37.1199 -159.016 " />
      <path
         id="path225"
         d=" M -37.1199 -159.016 L 8.01136 -202.978 " />
      <path
         id="path227"
         d=" M 8.01136 -202.978 L 115.428 -202.978 " />
    </g>
  </g>
  <path
     style="fill:none;stroke:#0000ff;stroke-width:0.105;stroke-linecap:butt;stroke-linejoin:miter;stroke-opacity:1;stroke-miterlimit:4;stroke-dasharray:none"
     d="M 132.07203,859.76906 H 649.16904 V 1383.7691 H 132.07203 Z"
     id="path1045"
     inkscape:connector-curvature="0" />
  <path
     style="fill:none;stroke:#0000ff;stroke-width:0.105;stroke-linecap:butt;stroke-linejoin:miter;stroke-opacity:1;stroke-miterlimit:4;stroke-dasharray:none"
     d="M 393.83004,859.76906 V 1383.7691"
     id="path1047"
     inkscape:connector-curvature="0" />
  <path
     style="fill:none;stroke:#0000ff;stroke-width:0.105;stroke-linecap:butt;stroke-linejoin:miter;stroke-opacity:1;stroke-miterlimit:4;stroke-dasharray:none"
     d="M 570.16404,859.76906 V 1383.7691"
     id="path1049"
     inkscape:connector-curvature="0" />
  <path
     style="fill:none;stroke:#0000ff;stroke-width:0.105;stroke-linecap:butt;stroke-linejoin:miter;stroke-opacity:1;stroke-miterlimit:4;stroke-dasharray:none"
     d="M 468.83003,859.76906 V 1383.7691"
     id="path1051"
     inkscape:connector-curvature="0" />
  <path
     style="fill:none;stroke:#0000ff;stroke-width:0.105;stroke-linecap:butt;stroke-linejoin:miter;stroke-opacity:1;stroke-miterlimit:4;stroke-dasharray:none"
     d="M 633.16903,859.76906 V 1383.7691"
     id="path1053"
     inkscape:connector-curvature="0" />
  <path
     style="fill:none;stroke:#0000ff;stroke-width:0.105;stroke-linecap:butt;stroke-linejoin:miter;stroke-opacity:1;stroke-miterlimit:4;stroke-dasharray:none"
     d="M 641.16905,859.76906 V 1383.7691"
     id="path1055"
     inkscape:connector-curvature="0" />
  <rect
     style="opacity:1;fill:none;fill-opacity:1;stroke:#0000ff;stroke-width:0.1050001;stroke-linecap:round;stroke-linejoin:miter;stroke-miterlimit:4;stroke-dasharray:none;stroke-opacity:1"
     id="rect1057"
     width="29.894999"
     height="49.894997"
     x="526.73206"
     y="894.29364"
     ry="9.1343355"
     rx="9.1343365" />
</svg>
