  0
SECTION
  2
HEADER
  9
$ACADVER
  1
AC1014
  9
$HANDSEED
  5
FFFF
  9
$MEASUREMENT
 70
     1
  0
ENDSEC
  0
SECTION
  2
TABLES
  0
TABLE
  2
VPORT
  5
8
330
0
100
AcDbSymbolTable
 70
     4
  0
VPORT
  5
2E
330
8
100
AcDbSymbolTableRecord
100
AcDbViewportTableRecord
  2
*ACTIVE
 70
     0
 10
0.0
 20
0.0
 11
1.0
 21
1.0
 12
210.0
 22
148.5
 13
0.0
 23
0.0
 14
10.0
 24
10.0
 15
10.0
 25
10.0
 16
0.0
 26
0.0
 36
1.0
 17
0.0
 27
0.0
 37
0.0
 40
341.0
 41
1.24
 42
50.0
 43
0.0
 44
0.0
 50
0.0
 51
0.0
 71
     0
 72
   100
 73
     1
 74
     3
 75
     0
 76
     0
 77
     0
 78
     0
  0
ENDTAB
  0
TABLE
  2
LTYPE
  5
5
330
0
100
AcDbSymbolTable
 70
     1
  0
LTYPE
  5
14
330
5
100
AcDbSymbolTableRecord
100
AcDbLinetypeTableRecord
  2
BYBLOCK
 70
     0
  3

 72
    65
 73
     0
 40
0.0
  0
LTYPE
  5
15
330
5
100
AcDbSymbolTableRecord
100
AcDbLinetypeTableRecord
  2
BYLAYER
 70
     0
  3

 72
    65
 73
     0
 40
0.0
  0
LTYPE
  5
16
330
5
100
AcDbSymbolTableRecord
100
AcDbLinetypeTableRecord
  2
CONTINUOUS
 70
     0
  3
Solid line
 72
    65
 73
     0
 40
0.0
  0
ENDTAB
  0
TABLE
  2
LAYER
  5
2
100
AcDbSymbolTable
 70
2
  0
LAYER
  5
50
100
AcDbSymbolTableRecord
100
AcDbLayerTableRecord
  2
0
 70
0
  6
CONTINUOUS
  0
LAYER
  5
51
100
AcDbSymbolTableRecord
100
AcDbLayerTableRecord
  2
Calque_1
 70
0
  6
CONTINUOUS
  0
ENDTAB
  0
TABLE
  2
STYLE
  5
3
330
0
100
AcDbSymbolTable
 70
     1
  0
STYLE
  5
11
330
3
100
AcDbSymbolTableRecord
100
AcDbTextStyleTableRecord
  2
STANDARD
 70
     0
 40
0.0
 41
1.0
 50
0.0
 71
     0
 42
2.5
  3
txt
  4

  0
ENDTAB
  0
TABLE
  2
VIEW
  5
6
330
0
100
AcDbSymbolTable
 70
     0
  0
ENDTAB
  0
TABLE
  2
UCS
  5
7
330
0
100
AcDbSymbolTable
 70
     0
  0
ENDTAB
  0
TABLE
  2
APPID
  5
9
330
0
100
AcDbSymbolTable
 70
     2
  0
APPID
  5
12
330
9
100
AcDbSymbolTableRecord
100
AcDbRegAppTableRecord
  2
ACAD
 70
     0
  0
ENDTAB
  0
TABLE
  2
DIMSTYLE
  5
A
330
0
100
AcDbSymbolTable
 70
     1
  0
DIMSTYLE
105
27
330
A
100
AcDbSymbolTableRecord
100
AcDbDimStyleTableRecord
  2
ISO-25
 70
     0
  3

  4

  5

  6

  7

 40
1.0
 41
2.5
 42
0.625
 43
3.75
 44
1.25
 45
0.0
 46
0.0
 47
0.0
 48
0.0
140
2.5
141
2.5
142
0.0
143
0.03937007874016
144
1.0
145
0.0
146
1.0
147
0.625
 71
     0
 72
     0
 73
     0
 74
     0
 75
     0
 76
     0
 77
     1
 78
     8
170
     0
171
     3
172
     1
173
     0
174
     0
175
     0
176
     0
177
     0
178
     0
270
     2
271
     2
272
     2
273
     2
274
     3
340
11
275
     0
280
     0
281
     0
282
     0
283
     0
284
     8
285
     0
286
     0
287
     3
288
     0
  0
ENDTAB
  0
TABLE
  2
BLOCK_RECORD
  5
1
330
0
100
AcDbSymbolTable
 70
     1
  0
BLOCK_RECORD
  5
1F
330
1
100
AcDbSymbolTableRecord
100
AcDbBlockTableRecord
  2
*MODEL_SPACE
  0
BLOCK_RECORD
  5
1B
330
1
100
AcDbSymbolTableRecord
100
AcDbBlockTableRecord
  2
*PAPER_SPACE
  0
ENDTAB
  0
ENDSEC
  0
SECTION
  2
BLOCKS
  0
BLOCK
  5
20
330
1F
100
AcDbEntity
  8
0
100
AcDbBlockBegin
  2
*MODEL_SPACE
 70
     0
 10
0.0
 20
0.0
 30
0.0
  3
*MODEL_SPACE
  1

  0
ENDBLK
  5
21
330
1F
100
AcDbEntity
  8
0
100
AcDbBlockEnd
  0
BLOCK
  5
1C
330
1B
100
AcDbEntity
 67
     1
  8
0
100
AcDbBlockBegin
  2
*PAPER_SPACE
  1

  0
ENDBLK
  5
1D
330
1B
100
AcDbEntity
 67
     1
  8
0
100
AcDbBlockEnd
  0
ENDSEC
  0
SECTION
  2
ENTITIES
  0
SPLINE
  5
100
100
AcDbEntity
  8
Calque_1
 62
7
100
AcDbSpline
 70
8
 71
3
 72
8
 73
4
 74
0
 40
0
 40
0
 40
0
 40
0
 40
1
 40
1
 40
1
 40
1
 10
535.370910
 20
41.602660
 30
0.0
 10
535.370910
 20
48.212073
 30
0.0
 10
531.844830
 20
54.319423
 30
0.0
 10
526.120910
 20
57.624130
 30
0.0
  0
SPLINE
  5
101
100
AcDbEntity
  8
Calque_1
 62
7
100
AcDbSpline
 70
8
 71
3
 72
8
 73
4
 74
0
 40
0
 40
0
 40
0
 40
0
 40
1
 40
1
 40
1
 40
1
 10
526.120910
 20
57.624130
 30
0.0
 10
520.396990
 20
60.928837
 30
0.0
 10
513.344830
 20
60.928837
 30
0.0
 10
507.620910
 20
57.624130
 30
0.0
  0
SPLINE
  5
102
100
AcDbEntity
  8
Calque_1
 62
7
100
AcDbSpline
 70
8
 71
3
 72
8
 73
4
 74
0
 40
0
 40
0
 40
0
 40
0
 40
1
 40
1
 40
1
 40
1
 10
507.620910
 20
57.624130
 30
0.0
 10
501.896990
 20
54.319423
 30
0.0
 10
498.370910
 20
48.212073
 30
0.0
 10
498.370910
 20
41.602660
 30
0.0
  0
SPLINE
  5
103
100
AcDbEntity
  8
Calque_1
 62
7
100
AcDbSpline
 70
8
 71
3
 72
8
 73
4
 74
0
 40
0
 40
0
 40
0
 40
0
 40
1
 40
1
 40
1
 40
1
 10
498.370910
 20
41.602660
 30
0.0
 10
498.370910
 20
34.993247
 30
0.0
 10
501.896990
 20
28.885897
 30
0.0
 10
507.620910
 20
25.581190
 30
0.0
  0
SPLINE
  5
104
100
AcDbEntity
  8
Calque_1
 62
7
100
AcDbSpline
 70
8
 71
3
 72
8
 73
4
 74
0
 40
0
 40
0
 40
0
 40
0
 40
1
 40
1
 40
1
 40
1
 10
507.620910
 20
25.581190
 30
0.0
 10
513.344830
 20
22.276483
 30
0.0
 10
520.396990
 20
22.276483
 30
0.0
 10
526.120910
 20
25.581190
 30
0.0
  0
SPLINE
  5
105
100
AcDbEntity
  8
Calque_1
 62
7
100
AcDbSpline
 70
8
 71
3
 72
8
 73
4
 74
0
 40
0
 40
0
 40
0
 40
0
 40
1
 40
1
 40
1
 40
1
 10
526.120910
 20
25.581190
 30
0.0
 10
531.844830
 20
28.885897
 30
0.0
 10
535.370910
 20
34.993247
 30
0.0
 10
535.370910
 20
41.602660
 30
0.0
  0
SPLINE
  5
106
100
AcDbEntity
  8
Calque_1
 62
7
100
AcDbSpline
 70
8
 71
3
 72
8
 73
4
 74
0
 40
0
 40
0
 40
0
 40
0
 40
1
 40
1
 40
1
 40
1
 10
501.870880
 20
25.352660
 30
0.0
 10
501.870880
 20
24.906078
 30
0.0
 10
501.632631
 20
24.493419
 30
0.0
 10
501.245880
 20
24.270128
 30
0.0
  0
SPLINE
  5
107
100
AcDbEntity
  8
Calque_1
 62
7
100
AcDbSpline
 70
8
 71
3
 72
8
 73
4
 74
0
 40
0
 40
0
 40
0
 40
0
 40
1
 40
1
 40
1
 40
1
 10
501.245880
 20
24.270128
 30
0.0
 10
500.859129
 20
24.046837
 30
0.0
 10
500.382631
 20
24.046837
 30
0.0
 10
499.995880
 20
24.270128
 30
0.0
  0
SPLINE
  5
108
100
AcDbEntity
  8
Calque_1
 62
7
100
AcDbSpline
 70
8
 71
3
 72
8
 73
4
 74
0
 40
0
 40
0
 40
0
 40
0
 40
1
 40
1
 40
1
 40
1
 10
499.995880
 20
24.270128
 30
0.0
 10
499.609129
 20
24.493419
 30
0.0
 10
499.370880
 20
24.906078
 30
0.0
 10
499.370880
 20
25.352660
 30
0.0
  0
SPLINE
  5
109
100
AcDbEntity
  8
Calque_1
 62
7
100
AcDbSpline
 70
8
 71
3
 72
8
 73
4
 74
0
 40
0
 40
0
 40
0
 40
0
 40
1
 40
1
 40
1
 40
1
 10
499.370880
 20
25.352660
 30
0.0
 10
499.370880
 20
26.043016
 30
0.0
 10
499.930524
 20
26.602660
 30
0.0
 10
500.620880
 20
26.602660
 30
0.0
  0
SPLINE
  5
10a
100
AcDbEntity
  8
Calque_1
 62
7
100
AcDbSpline
 70
8
 71
3
 72
8
 73
4
 74
0
 40
0
 40
0
 40
0
 40
0
 40
1
 40
1
 40
1
 40
1
 10
500.620880
 20
26.602660
 30
0.0
 10
501.311236
 20
26.602660
 30
0.0
 10
501.870880
 20
26.043016
 30
0.0
 10
501.870880
 20
25.352660
 30
0.0
  0
LWPOLYLINE
  5
10b
100
AcDbEntity
  8
Calque_1
 62
7
100
AcDbPolyline
 90
1
 70
1
 10
535.370910
 20
41.602660
 30
0.0
  0
SPLINE
  5
10c
100
AcDbEntity
  8
Calque_1
 62
7
100
AcDbSpline
 70
8
 71
3
 72
8
 73
4
 74
0
 40
0
 40
0
 40
0
 40
0
 40
1
 40
1
 40
1
 40
1
 10
534.370910
 20
25.352660
 30
0.0
 10
534.370910
 20
24.906078
 30
0.0
 10
534.132661
 20
24.493419
 30
0.0
 10
533.745910
 20
24.270128
 30
0.0
  0
SPLINE
  5
10d
100
AcDbEntity
  8
Calque_1
 62
7
100
AcDbSpline
 70
8
 71
3
 72
8
 73
4
 74
0
 40
0
 40
0
 40
0
 40
0
 40
1
 40
1
 40
1
 40
1
 10
533.745910
 20
24.270128
 30
0.0
 10
533.359159
 20
24.046837
 30
0.0
 10
532.882661
 20
24.046837
 30
0.0
 10
532.495910
 20
24.270128
 30
0.0
  0
SPLINE
  5
10e
100
AcDbEntity
  8
Calque_1
 62
7
100
AcDbSpline
 70
8
 71
3
 72
8
 73
4
 74
0
 40
0
 40
0
 40
0
 40
0
 40
1
 40
1
 40
1
 40
1
 10
532.495910
 20
24.270128
 30
0.0
 10
532.109159
 20
24.493419
 30
0.0
 10
531.870910
 20
24.906078
 30
0.0
 10
531.870910
 20
25.352660
 30
0.0
  0
SPLINE
  5
10f
100
AcDbEntity
  8
Calque_1
 62
7
100
AcDbSpline
 70
8
 71
3
 72
8
 73
4
 74
0
 40
0
 40
0
 40
0
 40
0
 40
1
 40
1
 40
1
 40
1
 10
531.870910
 20
25.352660
 30
0.0
 10
531.870910
 20
25.799242
 30
0.0
 10
532.109159
 20
26.211901
 30
0.0
 10
532.495910
 20
26.435192
 30
0.0
  0
SPLINE
  5
110
100
AcDbEntity
  8
Calque_1
 62
7
100
AcDbSpline
 70
8
 71
3
 72
8
 73
4
 74
0
 40
0
 40
0
 40
0
 40
0
 40
1
 40
1
 40
1
 40
1
 10
532.495910
 20
26.435192
 30
0.0
 10
532.882661
 20
26.658483
 30
0.0
 10
533.359159
 20
26.658483
 30
0.0
 10
533.745910
 20
26.435192
 30
0.0
  0
SPLINE
  5
111
100
AcDbEntity
  8
Calque_1
 62
7
100
AcDbSpline
 70
8
 71
3
 72
8
 73
4
 74
0
 40
0
 40
0
 40
0
 40
0
 40
1
 40
1
 40
1
 40
1
 10
533.745910
 20
26.435192
 30
0.0
 10
534.132661
 20
26.211901
 30
0.0
 10
534.370910
 20
25.799242
 30
0.0
 10
534.370910
 20
25.352660
 30
0.0
  0
LWPOLYLINE
  5
112
100
AcDbEntity
  8
Calque_1
 62
7
100
AcDbPolyline
 90
1
 70
1
 10
501.870880
 20
25.352660
 30
0.0
  0
SPLINE
  5
113
100
AcDbEntity
  8
Calque_1
 62
7
100
AcDbSpline
 70
8
 71
3
 72
8
 73
4
 74
0
 40
0
 40
0
 40
0
 40
0
 40
1
 40
1
 40
1
 40
1
 10
501.870880
 20
57.852680
 30
0.0
 10
501.870880
 20
57.406098
 30
0.0
 10
501.632631
 20
56.993439
 30
0.0
 10
501.245880
 20
56.770148
 30
0.0
  0
SPLINE
  5
114
100
AcDbEntity
  8
Calque_1
 62
7
100
AcDbSpline
 70
8
 71
3
 72
8
 73
4
 74
0
 40
0
 40
0
 40
0
 40
0
 40
1
 40
1
 40
1
 40
1
 10
501.245880
 20
56.770148
 30
0.0
 10
500.859129
 20
56.546857
 30
0.0
 10
500.382631
 20
56.546857
 30
0.0
 10
499.995880
 20
56.770148
 30
0.0
  0
SPLINE
  5
115
100
AcDbEntity
  8
Calque_1
 62
7
100
AcDbSpline
 70
8
 71
3
 72
8
 73
4
 74
0
 40
0
 40
0
 40
0
 40
0
 40
1
 40
1
 40
1
 40
1
 10
499.995880
 20
56.770148
 30
0.0
 10
499.609129
 20
56.993439
 30
0.0
 10
499.370880
 20
57.406098
 30
0.0
 10
499.370880
 20
57.852680
 30
0.0
  0
SPLINE
  5
116
100
AcDbEntity
  8
Calque_1
 62
7
100
AcDbSpline
 70
8
 71
3
 72
8
 73
4
 74
0
 40
0
 40
0
 40
0
 40
0
 40
1
 40
1
 40
1
 40
1
 10
499.370880
 20
57.852680
 30
0.0
 10
499.370880
 20
58.543036
 30
0.0
 10
499.930524
 20
59.102680
 30
0.0
 10
500.620880
 20
59.102680
 30
0.0
  0
SPLINE
  5
117
100
AcDbEntity
  8
Calque_1
 62
7
100
AcDbSpline
 70
8
 71
3
 72
8
 73
4
 74
0
 40
0
 40
0
 40
0
 40
0
 40
1
 40
1
 40
1
 40
1
 10
500.620880
 20
59.102680
 30
0.0
 10
501.311236
 20
59.102680
 30
0.0
 10
501.870880
 20
58.543036
 30
0.0
 10
501.870880
 20
57.852680
 30
0.0
  0
LWPOLYLINE
  5
118
100
AcDbEntity
  8
Calque_1
 62
7
100
AcDbPolyline
 90
1
 70
1
 10
534.370910
 20
25.352660
 30
0.0
  0
SPLINE
  5
119
100
AcDbEntity
  8
Calque_1
 62
7
100
AcDbSpline
 70
8
 71
3
 72
8
 73
4
 74
0
 40
0
 40
0
 40
0
 40
0
 40
1
 40
1
 40
1
 40
1
 10
534.370910
 20
57.852680
 30
0.0
 10
534.370910
 20
57.406098
 30
0.0
 10
534.132661
 20
56.993439
 30
0.0
 10
533.745910
 20
56.770148
 30
0.0
  0
SPLINE
  5
11a
100
AcDbEntity
  8
Calque_1
 62
7
100
AcDbSpline
 70
8
 71
3
 72
8
 73
4
 74
0
 40
0
 40
0
 40
0
 40
0
 40
1
 40
1
 40
1
 40
1
 10
533.745910
 20
56.770148
 30
0.0
 10
533.359159
 20
56.546857
 30
0.0
 10
532.882661
 20
56.546857
 30
0.0
 10
532.495910
 20
56.770148
 30
0.0
  0
SPLINE
  5
11b
100
AcDbEntity
  8
Calque_1
 62
7
100
AcDbSpline
 70
8
 71
3
 72
8
 73
4
 74
0
 40
0
 40
0
 40
0
 40
0
 40
1
 40
1
 40
1
 40
1
 10
532.495910
 20
56.770148
 30
0.0
 10
532.109159
 20
56.993439
 30
0.0
 10
531.870910
 20
57.406098
 30
0.0
 10
531.870910
 20
57.852680
 30
0.0
  0
SPLINE
  5
11c
100
AcDbEntity
  8
Calque_1
 62
7
100
AcDbSpline
 70
8
 71
3
 72
8
 73
4
 74
0
 40
0
 40
0
 40
0
 40
0
 40
1
 40
1
 40
1
 40
1
 10
531.870910
 20
57.852680
 30
0.0
 10
531.870910
 20
58.299262
 30
0.0
 10
532.109159
 20
58.711921
 30
0.0
 10
532.495910
 20
58.935212
 30
0.0
  0
SPLINE
  5
11d
100
AcDbEntity
  8
Calque_1
 62
7
100
AcDbSpline
 70
8
 71
3
 72
8
 73
4
 74
0
 40
0
 40
0
 40
0
 40
0
 40
1
 40
1
 40
1
 40
1
 10
532.495910
 20
58.935212
 30
0.0
 10
532.882661
 20
59.158503
 30
0.0
 10
533.359159
 20
59.158503
 30
0.0
 10
533.745910
 20
58.935212
 30
0.0
  0
SPLINE
  5
11e
100
AcDbEntity
  8
Calque_1
 62
7
100
AcDbSpline
 70
8
 71
3
 72
8
 73
4
 74
0
 40
0
 40
0
 40
0
 40
0
 40
1
 40
1
 40
1
 40
1
 10
533.745910
 20
58.935212
 30
0.0
 10
534.132661
 20
58.711921
 30
0.0
 10
534.370910
 20
58.299262
 30
0.0
 10
534.370910
 20
57.852680
 30
0.0
  0
LWPOLYLINE
  5
11f
100
AcDbEntity
  8
Calque_1
 62
7
100
AcDbPolyline
 90
1
 70
1
 10
501.870880
 20
57.852680
 30
0.0
  0
LWPOLYLINE
  5
120
100
AcDbEntity
  8
Calque_1
 62
7
100
AcDbPolyline
 90
1
 70
1
 10
534.370910
 20
57.852680
 30
0.0
  0
SPLINE
  5
121
100
AcDbEntity
  8
Calque_1
 62
7
100
AcDbSpline
 70
8
 71
3
 72
8
 73
4
 74
0
 40
0
 40
0
 40
0
 40
0
 40
1
 40
1
 40
1
 40
1
 10
58.397671
 20
149.981410
 30
0.0
 10
58.397671
 20
149.534828
 30
0.0
 10
58.159422
 20
149.122169
 30
0.0
 10
57.772671
 20
148.898878
 30
0.0
  0
SPLINE
  5
122
100
AcDbEntity
  8
Calque_1
 62
7
100
AcDbSpline
 70
8
 71
3
 72
8
 73
4
 74
0
 40
0
 40
0
 40
0
 40
0
 40
1
 40
1
 40
1
 40
1
 10
57.772671
 20
148.898878
 30
0.0
 10
57.385920
 20
148.675587
 30
0.0
 10
56.909422
 20
148.675587
 30
0.0
 10
56.522671
 20
148.898878
 30
0.0
  0
SPLINE
  5
123
100
AcDbEntity
  8
Calque_1
 62
7
100
AcDbSpline
 70
8
 71
3
 72
8
 73
4
 74
0
 40
0
 40
0
 40
0
 40
0
 40
1
 40
1
 40
1
 40
1
 10
56.522671
 20
148.898878
 30
0.0
 10
56.135920
 20
149.122169
 30
0.0
 10
55.897671
 20
149.534828
 30
0.0
 10
55.897671
 20
149.981410
 30
0.0
  0
SPLINE
  5
124
100
AcDbEntity
  8
Calque_1
 62
7
100
AcDbSpline
 70
8
 71
3
 72
8
 73
4
 74
0
 40
0
 40
0
 40
0
 40
0
 40
1
 40
1
 40
1
 40
1
 10
55.897671
 20
149.981410
 30
0.0
 10
55.897671
 20
150.427992
 30
0.0
 10
56.135920
 20
150.840651
 30
0.0
 10
56.522671
 20
151.063942
 30
0.0
  0
SPLINE
  5
125
100
AcDbEntity
  8
Calque_1
 62
7
100
AcDbSpline
 70
8
 71
3
 72
8
 73
4
 74
0
 40
0
 40
0
 40
0
 40
0
 40
1
 40
1
 40
1
 40
1
 10
56.522671
 20
151.063942
 30
0.0
 10
56.909422
 20
151.287233
 30
0.0
 10
57.385920
 20
151.287233
 30
0.0
 10
57.772671
 20
151.063942
 30
0.0
  0
SPLINE
  5
126
100
AcDbEntity
  8
Calque_1
 62
7
100
AcDbSpline
 70
8
 71
3
 72
8
 73
4
 74
0
 40
0
 40
0
 40
0
 40
0
 40
1
 40
1
 40
1
 40
1
 10
57.772671
 20
151.063942
 30
0.0
 10
58.159422
 20
150.840651
 30
0.0
 10
58.397671
 20
150.427992
 30
0.0
 10
58.397671
 20
149.981410
 30
0.0
  0
LWPOLYLINE
  5
127
100
AcDbEntity
  8
Calque_1
 62
7
100
AcDbPolyline
 90
4
 70
1
 10
56.397663
 20
146.231400
 30
0.0
 10
58.897663
 20
146.231400
 30
0.0
 10
58.897663
 20
34.231400
 30
0.0
 10
56.397663
 20
34.231400
 30
0.0
  0
SPLINE
  5
128
100
AcDbEntity
  8
Calque_1
 62
7
100
AcDbSpline
 70
8
 71
3
 72
8
 73
4
 74
0
 40
0
 40
0
 40
0
 40
0
 40
1
 40
1
 40
1
 40
1
 10
58.397671
 20
30.481450
 30
0.0
 10
58.397671
 20
30.034868
 30
0.0
 10
58.159422
 20
29.622209
 30
0.0
 10
57.772671
 20
29.398918
 30
0.0
  0
SPLINE
  5
129
100
AcDbEntity
  8
Calque_1
 62
7
100
AcDbSpline
 70
8
 71
3
 72
8
 73
4
 74
0
 40
0
 40
0
 40
0
 40
0
 40
1
 40
1
 40
1
 40
1
 10
57.772671
 20
29.398918
 30
0.0
 10
57.385920
 20
29.175627
 30
0.0
 10
56.909422
 20
29.175627
 30
0.0
 10
56.522671
 20
29.398918
 30
0.0
  0
SPLINE
  5
12a
100
AcDbEntity
  8
Calque_1
 62
7
100
AcDbSpline
 70
8
 71
3
 72
8
 73
4
 74
0
 40
0
 40
0
 40
0
 40
0
 40
1
 40
1
 40
1
 40
1
 10
56.522671
 20
29.398918
 30
0.0
 10
56.135920
 20
29.622209
 30
0.0
 10
55.897671
 20
30.034868
 30
0.0
 10
55.897671
 20
30.481450
 30
0.0
  0
SPLINE
  5
12b
100
AcDbEntity
  8
Calque_1
 62
7
100
AcDbSpline
 70
8
 71
3
 72
8
 73
4
 74
0
 40
0
 40
0
 40
0
 40
0
 40
1
 40
1
 40
1
 40
1
 10
55.897671
 20
30.481450
 30
0.0
 10
55.897671
 20
30.928032
 30
0.0
 10
56.135920
 20
31.340691
 30
0.0
 10
56.522671
 20
31.563982
 30
0.0
  0
SPLINE
  5
12c
100
AcDbEntity
  8
Calque_1
 62
7
100
AcDbSpline
 70
8
 71
3
 72
8
 73
4
 74
0
 40
0
 40
0
 40
0
 40
0
 40
1
 40
1
 40
1
 40
1
 10
56.522671
 20
31.563982
 30
0.0
 10
56.909422
 20
31.787273
 30
0.0
 10
57.385920
 20
31.787273
 30
0.0
 10
57.772671
 20
31.563982
 30
0.0
  0
SPLINE
  5
12d
100
AcDbEntity
  8
Calque_1
 62
7
100
AcDbSpline
 70
8
 71
3
 72
8
 73
4
 74
0
 40
0
 40
0
 40
0
 40
0
 40
1
 40
1
 40
1
 40
1
 10
57.772671
 20
31.563982
 30
0.0
 10
58.159422
 20
31.340691
 30
0.0
 10
58.397671
 20
30.928032
 30
0.0
 10
58.397671
 20
30.481450
 30
0.0
  0
LWPOLYLINE
  5
12e
100
AcDbEntity
  8
Calque_1
 62
7
100
AcDbPolyline
 90
1
 70
1
 10
58.397671
 20
149.981410
 30
0.0
  0
SPLINE
  5
12f
100
AcDbEntity
  8
Calque_1
 62
7
100
AcDbSpline
 70
8
 71
3
 72
8
 73
4
 74
0
 40
0
 40
0
 40
0
 40
0
 40
1
 40
1
 40
1
 40
1
 10
33.664326
 20
31.037480
 30
0.0
 10
33.664326
 20
33.895605
 30
0.0
 10
32.139535
 20
36.536621
 30
0.0
 10
29.664326
 20
37.965683
 30
0.0
  0
SPLINE
  5
130
100
AcDbEntity
  8
Calque_1
 62
7
100
AcDbSpline
 70
8
 71
3
 72
8
 73
4
 74
0
 40
0
 40
0
 40
0
 40
0
 40
1
 40
1
 40
1
 40
1
 10
29.664326
 20
37.965683
 30
0.0
 10
27.189117
 20
39.394746
 30
0.0
 10
24.139535
 20
39.394746
 30
0.0
 10
21.664326
 20
37.965683
 30
0.0
  0
SPLINE
  5
131
100
AcDbEntity
  8
Calque_1
 62
7
100
AcDbSpline
 70
8
 71
3
 72
8
 73
4
 74
0
 40
0
 40
0
 40
0
 40
0
 40
1
 40
1
 40
1
 40
1
 10
21.664326
 20
37.965683
 30
0.0
 10
19.189117
 20
36.536621
 30
0.0
 10
17.664326
 20
33.895605
 30
0.0
 10
17.664326
 20
31.037480
 30
0.0
  0
SPLINE
  5
132
100
AcDbEntity
  8
Calque_1
 62
7
100
AcDbSpline
 70
8
 71
3
 72
8
 73
4
 74
0
 40
0
 40
0
 40
0
 40
0
 40
1
 40
1
 40
1
 40
1
 10
17.664326
 20
31.037480
 30
0.0
 10
17.664326
 20
28.179355
 30
0.0
 10
19.189117
 20
25.538339
 30
0.0
 10
21.664326
 20
24.109277
 30
0.0
  0
SPLINE
  5
133
100
AcDbEntity
  8
Calque_1
 62
7
100
AcDbSpline
 70
8
 71
3
 72
8
 73
4
 74
0
 40
0
 40
0
 40
0
 40
0
 40
1
 40
1
 40
1
 40
1
 10
21.664326
 20
24.109277
 30
0.0
 10
24.139535
 20
22.680214
 30
0.0
 10
27.189117
 20
22.680214
 30
0.0
 10
29.664326
 20
24.109277
 30
0.0
  0
SPLINE
  5
134
100
AcDbEntity
  8
Calque_1
 62
7
100
AcDbSpline
 70
8
 71
3
 72
8
 73
4
 74
0
 40
0
 40
0
 40
0
 40
0
 40
1
 40
1
 40
1
 40
1
 10
29.664326
 20
24.109277
 30
0.0
 10
32.139535
 20
25.538339
 30
0.0
 10
33.664326
 20
28.179355
 30
0.0
 10
33.664326
 20
31.037480
 30
0.0
  0
LWPOLYLINE
  5
135
100
AcDbEntity
  8
Calque_1
 62
7
100
AcDbPolyline
 90
1
 70
1
 10
58.397671
 20
30.481450
 30
0.0
  0
SPLINE
  5
136
100
AcDbEntity
  8
Calque_1
 62
7
100
AcDbSpline
 70
8
 71
3
 72
8
 73
4
 74
0
 40
0
 40
0
 40
0
 40
0
 40
1
 40
1
 40
1
 40
1
 10
33.664326
 20
149.425350
 30
0.0
 10
33.664326
 20
152.283475
 30
0.0
 10
32.139535
 20
154.924491
 30
0.0
 10
29.664326
 20
156.353553
 30
0.0
  0
SPLINE
  5
137
100
AcDbEntity
  8
Calque_1
 62
7
100
AcDbSpline
 70
8
 71
3
 72
8
 73
4
 74
0
 40
0
 40
0
 40
0
 40
0
 40
1
 40
1
 40
1
 40
1
 10
29.664326
 20
156.353553
 30
0.0
 10
27.189117
 20
157.782616
 30
0.0
 10
24.139535
 20
157.782616
 30
0.0
 10
21.664326
 20
156.353553
 30
0.0
  0
SPLINE
  5
138
100
AcDbEntity
  8
Calque_1
 62
7
100
AcDbSpline
 70
8
 71
3
 72
8
 73
4
 74
0
 40
0
 40
0
 40
0
 40
0
 40
1
 40
1
 40
1
 40
1
 10
21.664326
 20
156.353553
 30
0.0
 10
19.189117
 20
154.924491
 30
0.0
 10
17.664326
 20
152.283475
 30
0.0
 10
17.664326
 20
149.425350
 30
0.0
  0
SPLINE
  5
139
100
AcDbEntity
  8
Calque_1
 62
7
100
AcDbSpline
 70
8
 71
3
 72
8
 73
4
 74
0
 40
0
 40
0
 40
0
 40
0
 40
1
 40
1
 40
1
 40
1
 10
17.664326
 20
149.425350
 30
0.0
 10
17.664326
 20
146.567225
 30
0.0
 10
19.189117
 20
143.926209
 30
0.0
 10
21.664326
 20
142.497147
 30
0.0
  0
SPLINE
  5
13a
100
AcDbEntity
  8
Calque_1
 62
7
100
AcDbSpline
 70
8
 71
3
 72
8
 73
4
 74
0
 40
0
 40
0
 40
0
 40
0
 40
1
 40
1
 40
1
 40
1
 10
21.664326
 20
142.497147
 30
0.0
 10
24.139535
 20
141.068084
 30
0.0
 10
27.189117
 20
141.068084
 30
0.0
 10
29.664326
 20
142.497147
 30
0.0
  0
SPLINE
  5
13b
100
AcDbEntity
  8
Calque_1
 62
7
100
AcDbSpline
 70
8
 71
3
 72
8
 73
4
 74
0
 40
0
 40
0
 40
0
 40
0
 40
1
 40
1
 40
1
 40
1
 10
29.664326
 20
142.497147
 30
0.0
 10
32.139535
 20
143.926209
 30
0.0
 10
33.664326
 20
146.567225
 30
0.0
 10
33.664326
 20
149.425350
 30
0.0
  0
LWPOLYLINE
  5
13c
100
AcDbEntity
  8
Calque_1
 62
7
100
AcDbPolyline
 90
1
 70
1
 10
33.664326
 20
31.037480
 30
0.0
  0
LWPOLYLINE
  5
13d
100
AcDbEntity
  8
Calque_1
 62
7
100
AcDbPolyline
 90
1
 70
1
 10
33.664326
 20
149.425350
 30
0.0
  0
LWPOLYLINE
  5
13e
100
AcDbEntity
  8
Calque_1
 62
5
100
AcDbPolyline
 90
4
 70
1
 10
1.441184
 20
192.761180
 30
0.0
 10
76.336188
 20
192.761180
 30
0.0
 10
76.336188
 20
8.224180
 30
0.0
 10
1.441184
 20
8.224180
 30
0.0
  0
SPLINE
  5
13f
100
AcDbEntity
  8
Calque_1
 62
7
100
AcDbSpline
 70
8
 71
3
 72
8
 73
4
 74
0
 40
0
 40
0
 40
0
 40
0
 40
1
 40
1
 40
1
 40
1
 10
116.789240
 20
39.092830
 30
0.0
 10
116.789240
 20
43.380017
 30
0.0
 10
114.502053
 20
47.341541
 30
0.0
 10
110.789240
 20
49.485135
 30
0.0
  0
SPLINE
  5
140
100
AcDbEntity
  8
Calque_1
 62
7
100
AcDbSpline
 70
8
 71
3
 72
8
 73
4
 74
0
 40
0
 40
0
 40
0
 40
0
 40
1
 40
1
 40
1
 40
1
 10
110.789240
 20
49.485135
 30
0.0
 10
107.076427
 20
51.628728
 30
0.0
 10
102.502053
 20
51.628728
 30
0.0
 10
98.789240
 20
49.485135
 30
0.0
  0
SPLINE
  5
141
100
AcDbEntity
  8
Calque_1
 62
7
100
AcDbSpline
 70
8
 71
3
 72
8
 73
4
 74
0
 40
0
 40
0
 40
0
 40
0
 40
1
 40
1
 40
1
 40
1
 10
98.789240
 20
49.485135
 30
0.0
 10
95.076427
 20
47.341541
 30
0.0
 10
92.789240
 20
43.380017
 30
0.0
 10
92.789240
 20
39.092830
 30
0.0
  0
SPLINE
  5
142
100
AcDbEntity
  8
Calque_1
 62
7
100
AcDbSpline
 70
8
 71
3
 72
8
 73
4
 74
0
 40
0
 40
0
 40
0
 40
0
 40
1
 40
1
 40
1
 40
1
 10
92.789240
 20
39.092830
 30
0.0
 10
92.789240
 20
34.805643
 30
0.0
 10
95.076427
 20
30.844119
 30
0.0
 10
98.789240
 20
28.700525
 30
0.0
  0
SPLINE
  5
143
100
AcDbEntity
  8
Calque_1
 62
7
100
AcDbSpline
 70
8
 71
3
 72
8
 73
4
 74
0
 40
0
 40
0
 40
0
 40
0
 40
1
 40
1
 40
1
 40
1
 10
98.789240
 20
28.700525
 30
0.0
 10
102.502053
 20
26.556932
 30
0.0
 10
107.076427
 20
26.556932
 30
0.0
 10
110.789240
 20
28.700525
 30
0.0
  0
SPLINE
  5
144
100
AcDbEntity
  8
Calque_1
 62
7
100
AcDbSpline
 70
8
 71
3
 72
8
 73
4
 74
0
 40
0
 40
0
 40
0
 40
0
 40
1
 40
1
 40
1
 40
1
 10
110.789240
 20
28.700525
 30
0.0
 10
114.502053
 20
30.844119
 30
0.0
 10
116.789240
 20
34.805643
 30
0.0
 10
116.789240
 20
39.092830
 30
0.0
  0
LWPOLYLINE
  5
145
100
AcDbEntity
  8
Calque_1
 62
5
100
AcDbPolyline
 90
4
 70
1
 10
80.336456
 20
192.761180
 30
0.0
 10
175.143959
 20
192.761180
 30
0.0
 10
175.143959
 20
8.224530
 30
0.0
 10
80.336456
 20
8.224530
 30
0.0
  0
SPLINE
  5
146
100
AcDbEntity
  8
Calque_1
 62
7
100
AcDbSpline
 70
8
 71
3
 72
8
 73
4
 74
0
 40
0
 40
0
 40
0
 40
0
 40
1
 40
1
 40
1
 40
1
 10
110.789240
 20
149.831910
 30
0.0
 10
110.789240
 20
151.975504
 30
0.0
 10
109.645646
 20
153.956266
 30
0.0
 10
107.789240
 20
155.028062
 30
0.0
  0
SPLINE
  5
147
100
AcDbEntity
  8
Calque_1
 62
7
100
AcDbSpline
 70
8
 71
3
 72
8
 73
4
 74
0
 40
0
 40
0
 40
0
 40
0
 40
1
 40
1
 40
1
 40
1
 10
107.789240
 20
155.028062
 30
0.0
 10
105.932834
 20
156.099859
 30
0.0
 10
103.645646
 20
156.099859
 30
0.0
 10
101.789240
 20
155.028062
 30
0.0
  0
SPLINE
  5
148
100
AcDbEntity
  8
Calque_1
 62
7
100
AcDbSpline
 70
8
 71
3
 72
8
 73
4
 74
0
 40
0
 40
0
 40
0
 40
0
 40
1
 40
1
 40
1
 40
1
 10
101.789240
 20
155.028062
 30
0.0
 10
99.932834
 20
153.956266
 30
0.0
 10
98.789240
 20
151.975504
 30
0.0
 10
98.789240
 20
149.831910
 30
0.0
  0
SPLINE
  5
149
100
AcDbEntity
  8
Calque_1
 62
7
100
AcDbSpline
 70
8
 71
3
 72
8
 73
4
 74
0
 40
0
 40
0
 40
0
 40
0
 40
1
 40
1
 40
1
 40
1
 10
98.789240
 20
149.831910
 30
0.0
 10
98.789240
 20
147.688316
 30
0.0
 10
99.932834
 20
145.707554
 30
0.0
 10
101.789240
 20
144.635758
 30
0.0
  0
SPLINE
  5
14a
100
AcDbEntity
  8
Calque_1
 62
7
100
AcDbSpline
 70
8
 71
3
 72
8
 73
4
 74
0
 40
0
 40
0
 40
0
 40
0
 40
1
 40
1
 40
1
 40
1
 10
101.789240
 20
144.635758
 30
0.0
 10
103.645646
 20
143.563961
 30
0.0
 10
105.932834
 20
143.563961
 30
0.0
 10
107.789240
 20
144.635758
 30
0.0
  0
SPLINE
  5
14b
100
AcDbEntity
  8
Calque_1
 62
7
100
AcDbSpline
 70
8
 71
3
 72
8
 73
4
 74
0
 40
0
 40
0
 40
0
 40
0
 40
1
 40
1
 40
1
 40
1
 10
107.789240
 20
144.635758
 30
0.0
 10
109.645646
 20
145.707554
 30
0.0
 10
110.789240
 20
147.688316
 30
0.0
 10
110.789240
 20
149.831910
 30
0.0
  0
LWPOLYLINE
  5
14c
100
AcDbEntity
  8
Calque_1
 62
7
100
AcDbPolyline
 90
1
 70
1
 10
116.789240
 20
39.092830
 30
0.0
  0
SPLINE
  5
14d
100
AcDbEntity
  8
Calque_1
 62
7
100
AcDbSpline
 70
8
 71
3
 72
8
 73
4
 74
0
 40
0
 40
0
 40
0
 40
0
 40
1
 40
1
 40
1
 40
1
 10
110.789240
 20
88.427750
 30
0.0
 10
110.789240
 20
90.571344
 30
0.0
 10
109.645646
 20
92.552106
 30
0.0
 10
107.789240
 20
93.623902
 30
0.0
  0
SPLINE
  5
14e
100
AcDbEntity
  8
Calque_1
 62
7
100
AcDbSpline
 70
8
 71
3
 72
8
 73
4
 74
0
 40
0
 40
0
 40
0
 40
0
 40
1
 40
1
 40
1
 40
1
 10
107.789240
 20
93.623902
 30
0.0
 10
105.932834
 20
94.695699
 30
0.0
 10
103.645646
 20
94.695699
 30
0.0
 10
101.789240
 20
93.623902
 30
0.0
  0
SPLINE
  5
14f
100
AcDbEntity
  8
Calque_1
 62
7
100
AcDbSpline
 70
8
 71
3
 72
8
 73
4
 74
0
 40
0
 40
0
 40
0
 40
0
 40
1
 40
1
 40
1
 40
1
 10
101.789240
 20
93.623902
 30
0.0
 10
99.932834
 20
92.552106
 30
0.0
 10
98.789240
 20
90.571344
 30
0.0
 10
98.789240
 20
88.427750
 30
0.0
  0
SPLINE
  5
150
100
AcDbEntity
  8
Calque_1
 62
7
100
AcDbSpline
 70
8
 71
3
 72
8
 73
4
 74
0
 40
0
 40
0
 40
0
 40
0
 40
1
 40
1
 40
1
 40
1
 10
98.789240
 20
88.427750
 30
0.0
 10
98.789240
 20
86.284156
 30
0.0
 10
99.932834
 20
84.303394
 30
0.0
 10
101.789240
 20
83.231598
 30
0.0
  0
SPLINE
  5
151
100
AcDbEntity
  8
Calque_1
 62
7
100
AcDbSpline
 70
8
 71
3
 72
8
 73
4
 74
0
 40
0
 40
0
 40
0
 40
0
 40
1
 40
1
 40
1
 40
1
 10
101.789240
 20
83.231598
 30
0.0
 10
103.645646
 20
82.159801
 30
0.0
 10
105.932834
 20
82.159801
 30
0.0
 10
107.789240
 20
83.231598
 30
0.0
  0
SPLINE
  5
152
100
AcDbEntity
  8
Calque_1
 62
7
100
AcDbSpline
 70
8
 71
3
 72
8
 73
4
 74
0
 40
0
 40
0
 40
0
 40
0
 40
1
 40
1
 40
1
 40
1
 10
107.789240
 20
83.231598
 30
0.0
 10
109.645646
 20
84.303394
 30
0.0
 10
110.789240
 20
86.284156
 30
0.0
 10
110.789240
 20
88.427750
 30
0.0
  0
LWPOLYLINE
  5
153
100
AcDbEntity
  8
Calque_1
 62
7
100
AcDbPolyline
 90
1
 70
1
 10
110.789240
 20
149.831910
 30
0.0
  0
SPLINE
  5
154
100
AcDbEntity
  8
Calque_1
 62
7
100
AcDbSpline
 70
8
 71
3
 72
8
 73
4
 74
0
 40
0
 40
0
 40
0
 40
0
 40
1
 40
1
 40
1
 40
1
 10
218.733200
 20
111.828380
 30
0.0
 10
221.591325
 20
111.828380
 30
0.0
 10
224.232341
 20
113.353171
 30
0.0
 10
225.661403
 20
115.828380
 30
0.0
  0
SPLINE
  5
155
100
AcDbEntity
  8
Calque_1
 62
7
100
AcDbSpline
 70
8
 71
3
 72
8
 73
4
 74
0
 40
0
 40
0
 40
0
 40
0
 40
1
 40
1
 40
1
 40
1
 10
225.661403
 20
115.828380
 30
0.0
 10
227.090466
 20
118.303589
 30
0.0
 10
227.090466
 20
121.353171
 30
0.0
 10
225.661403
 20
123.828380
 30
0.0
  0
SPLINE
  5
156
100
AcDbEntity
  8
Calque_1
 62
7
100
AcDbSpline
 70
8
 71
3
 72
8
 73
4
 74
0
 40
0
 40
0
 40
0
 40
0
 40
1
 40
1
 40
1
 40
1
 10
225.661403
 20
123.828380
 30
0.0
 10
224.232341
 20
126.303589
 30
0.0
 10
221.591325
 20
127.828380
 30
0.0
 10
218.733200
 20
127.828380
 30
0.0
  0
SPLINE
  5
157
100
AcDbEntity
  8
Calque_1
 62
7
100
AcDbSpline
 70
8
 71
3
 72
8
 73
4
 74
0
 40
0
 40
0
 40
0
 40
0
 40
1
 40
1
 40
1
 40
1
 10
218.733200
 20
127.828380
 30
0.0
 10
215.875075
 20
127.828380
 30
0.0
 10
213.234059
 20
126.303589
 30
0.0
 10
211.804997
 20
123.828380
 30
0.0
  0
SPLINE
  5
158
100
AcDbEntity
  8
Calque_1
 62
7
100
AcDbSpline
 70
8
 71
3
 72
8
 73
4
 74
0
 40
0
 40
0
 40
0
 40
0
 40
1
 40
1
 40
1
 40
1
 10
211.804997
 20
123.828380
 30
0.0
 10
210.375934
 20
121.353171
 30
0.0
 10
210.375934
 20
118.303589
 30
0.0
 10
211.804997
 20
115.828380
 30
0.0
  0
SPLINE
  5
159
100
AcDbEntity
  8
Calque_1
 62
7
100
AcDbSpline
 70
8
 71
3
 72
8
 73
4
 74
0
 40
0
 40
0
 40
0
 40
0
 40
1
 40
1
 40
1
 40
1
 10
211.804997
 20
115.828380
 30
0.0
 10
213.234059
 20
113.353171
 30
0.0
 10
215.875075
 20
111.828380
 30
0.0
 10
218.733200
 20
111.828380
 30
0.0
  0
LWPOLYLINE
  5
15a
100
AcDbEntity
  8
Calque_1
 62
7
100
AcDbPolyline
 90
1
 70
1
 10
110.789240
 20
88.427750
 30
0.0
  0
SPLINE
  5
15b
100
AcDbEntity
  8
Calque_1
 62
7
100
AcDbSpline
 70
8
 71
3
 72
8
 73
4
 74
0
 40
0
 40
0
 40
0
 40
0
 40
1
 40
1
 40
1
 40
1
 10
218.733200
 20
82.231410
 30
0.0
 10
221.591325
 20
82.231410
 30
0.0
 10
224.232341
 20
83.756201
 30
0.0
 10
225.661403
 20
86.231410
 30
0.0
  0
SPLINE
  5
15c
100
AcDbEntity
  8
Calque_1
 62
7
100
AcDbSpline
 70
8
 71
3
 72
8
 73
4
 74
0
 40
0
 40
0
 40
0
 40
0
 40
1
 40
1
 40
1
 40
1
 10
225.661403
 20
86.231410
 30
0.0
 10
227.090466
 20
88.706619
 30
0.0
 10
227.090466
 20
91.756201
 30
0.0
 10
225.661403
 20
94.231410
 30
0.0
  0
SPLINE
  5
15d
100
AcDbEntity
  8
Calque_1
 62
7
100
AcDbSpline
 70
8
 71
3
 72
8
 73
4
 74
0
 40
0
 40
0
 40
0
 40
0
 40
1
 40
1
 40
1
 40
1
 10
225.661403
 20
94.231410
 30
0.0
 10
224.232341
 20
96.706619
 30
0.0
 10
221.591325
 20
98.231410
 30
0.0
 10
218.733200
 20
98.231410
 30
0.0
  0
SPLINE
  5
15e
100
AcDbEntity
  8
Calque_1
 62
7
100
AcDbSpline
 70
8
 71
3
 72
8
 73
4
 74
0
 40
0
 40
0
 40
0
 40
0
 40
1
 40
1
 40
1
 40
1
 10
218.733200
 20
98.231410
 30
0.0
 10
215.875075
 20
98.231410
 30
0.0
 10
213.234059
 20
96.706619
 30
0.0
 10
211.804997
 20
94.231410
 30
0.0
  0
SPLINE
  5
15f
100
AcDbEntity
  8
Calque_1
 62
7
100
AcDbSpline
 70
8
 71
3
 72
8
 73
4
 74
0
 40
0
 40
0
 40
0
 40
0
 40
1
 40
1
 40
1
 40
1
 10
211.804997
 20
94.231410
 30
0.0
 10
210.375934
 20
91.756201
 30
0.0
 10
210.375934
 20
88.706619
 30
0.0
 10
211.804997
 20
86.231410
 30
0.0
  0
SPLINE
  5
160
100
AcDbEntity
  8
Calque_1
 62
7
100
AcDbSpline
 70
8
 71
3
 72
8
 73
4
 74
0
 40
0
 40
0
 40
0
 40
0
 40
1
 40
1
 40
1
 40
1
 10
211.804997
 20
86.231410
 30
0.0
 10
213.234059
 20
83.756201
 30
0.0
 10
215.875075
 20
82.231410
 30
0.0
 10
218.733200
 20
82.231410
 30
0.0
  0
LWPOLYLINE
  5
161
100
AcDbEntity
  8
Calque_1
 62
7
100
AcDbPolyline
 90
1
 70
1
 10
218.733200
 20
111.828380
 30
0.0
  0
SPLINE
  5
162
100
AcDbEntity
  8
Calque_1
 62
7
100
AcDbSpline
 70
8
 71
3
 72
8
 73
4
 74
0
 40
0
 40
0
 40
0
 40
0
 40
1
 40
1
 40
1
 40
1
 10
218.733200
 20
52.634430
 30
0.0
 10
221.591325
 20
52.634430
 30
0.0
 10
224.232341
 20
54.159221
 30
0.0
 10
225.661403
 20
56.634430
 30
0.0
  0
SPLINE
  5
163
100
AcDbEntity
  8
Calque_1
 62
7
100
AcDbSpline
 70
8
 71
3
 72
8
 73
4
 74
0
 40
0
 40
0
 40
0
 40
0
 40
1
 40
1
 40
1
 40
1
 10
225.661403
 20
56.634430
 30
0.0
 10
227.090466
 20
59.109639
 30
0.0
 10
227.090466
 20
62.159221
 30
0.0
 10
225.661403
 20
64.634430
 30
0.0
  0
SPLINE
  5
164
100
AcDbEntity
  8
Calque_1
 62
7
100
AcDbSpline
 70
8
 71
3
 72
8
 73
4
 74
0
 40
0
 40
0
 40
0
 40
0
 40
1
 40
1
 40
1
 40
1
 10
225.661403
 20
64.634430
 30
0.0
 10
224.232341
 20
67.109639
 30
0.0
 10
221.591325
 20
68.634430
 30
0.0
 10
218.733200
 20
68.634430
 30
0.0
  0
SPLINE
  5
165
100
AcDbEntity
  8
Calque_1
 62
7
100
AcDbSpline
 70
8
 71
3
 72
8
 73
4
 74
0
 40
0
 40
0
 40
0
 40
0
 40
1
 40
1
 40
1
 40
1
 10
218.733200
 20
68.634430
 30
0.0
 10
215.875075
 20
68.634430
 30
0.0
 10
213.234059
 20
67.109639
 30
0.0
 10
211.804997
 20
64.634430
 30
0.0
  0
SPLINE
  5
166
100
AcDbEntity
  8
Calque_1
 62
7
100
AcDbSpline
 70
8
 71
3
 72
8
 73
4
 74
0
 40
0
 40
0
 40
0
 40
0
 40
1
 40
1
 40
1
 40
1
 10
211.804997
 20
64.634430
 30
0.0
 10
210.375934
 20
62.159221
 30
0.0
 10
210.375934
 20
59.109639
 30
0.0
 10
211.804997
 20
56.634430
 30
0.0
  0
SPLINE
  5
167
100
AcDbEntity
  8
Calque_1
 62
7
100
AcDbSpline
 70
8
 71
3
 72
8
 73
4
 74
0
 40
0
 40
0
 40
0
 40
0
 40
1
 40
1
 40
1
 40
1
 10
211.804997
 20
56.634430
 30
0.0
 10
213.234059
 20
54.159221
 30
0.0
 10
215.875075
 20
52.634430
 30
0.0
 10
218.733200
 20
52.634430
 30
0.0
  0
LWPOLYLINE
  5
168
100
AcDbEntity
  8
Calque_1
 62
7
100
AcDbPolyline
 90
1
 70
1
 10
218.733200
 20
82.231410
 30
0.0
  0
SPLINE
  5
169
100
AcDbEntity
  8
Calque_1
 62
7
100
AcDbSpline
 70
8
 71
3
 72
8
 73
4
 74
0
 40
0
 40
0
 40
0
 40
0
 40
1
 40
1
 40
1
 40
1
 10
218.733200
 20
23.037480
 30
0.0
 10
221.591325
 20
23.037480
 30
0.0
 10
224.232341
 20
24.562271
 30
0.0
 10
225.661403
 20
27.037480
 30
0.0
  0
SPLINE
  5
16a
100
AcDbEntity
  8
Calque_1
 62
7
100
AcDbSpline
 70
8
 71
3
 72
8
 73
4
 74
0
 40
0
 40
0
 40
0
 40
0
 40
1
 40
1
 40
1
 40
1
 10
225.661403
 20
27.037480
 30
0.0
 10
227.090466
 20
29.512689
 30
0.0
 10
227.090466
 20
32.562271
 30
0.0
 10
225.661403
 20
35.037480
 30
0.0
  0
SPLINE
  5
16b
100
AcDbEntity
  8
Calque_1
 62
7
100
AcDbSpline
 70
8
 71
3
 72
8
 73
4
 74
0
 40
0
 40
0
 40
0
 40
0
 40
1
 40
1
 40
1
 40
1
 10
225.661403
 20
35.037480
 30
0.0
 10
224.232341
 20
37.512689
 30
0.0
 10
221.591325
 20
39.037480
 30
0.0
 10
218.733200
 20
39.037480
 30
0.0
  0
SPLINE
  5
16c
100
AcDbEntity
  8
Calque_1
 62
7
100
AcDbSpline
 70
8
 71
3
 72
8
 73
4
 74
0
 40
0
 40
0
 40
0
 40
0
 40
1
 40
1
 40
1
 40
1
 10
218.733200
 20
39.037480
 30
0.0
 10
215.875075
 20
39.037480
 30
0.0
 10
213.234059
 20
37.512689
 30
0.0
 10
211.804997
 20
35.037480
 30
0.0
  0
SPLINE
  5
16d
100
AcDbEntity
  8
Calque_1
 62
7
100
AcDbSpline
 70
8
 71
3
 72
8
 73
4
 74
0
 40
0
 40
0
 40
0
 40
0
 40
1
 40
1
 40
1
 40
1
 10
211.804997
 20
35.037480
 30
0.0
 10
210.375934
 20
32.562271
 30
0.0
 10
210.375934
 20
29.512689
 30
0.0
 10
211.804997
 20
27.037480
 30
0.0
  0
SPLINE
  5
16e
100
AcDbEntity
  8
Calque_1
 62
7
100
AcDbSpline
 70
8
 71
3
 72
8
 73
4
 74
0
 40
0
 40
0
 40
0
 40
0
 40
1
 40
1
 40
1
 40
1
 10
211.804997
 20
27.037480
 30
0.0
 10
213.234059
 20
24.562271
 30
0.0
 10
215.875075
 20
23.037480
 30
0.0
 10
218.733200
 20
23.037480
 30
0.0
  0
LWPOLYLINE
  5
16f
100
AcDbEntity
  8
Calque_1
 62
7
100
AcDbPolyline
 90
1
 70
1
 10
218.733200
 20
52.634430
 30
0.0
  0
SPLINE
  5
170
100
AcDbEntity
  8
Calque_1
 62
7
100
AcDbSpline
 70
8
 71
3
 72
8
 73
4
 74
0
 40
0
 40
0
 40
0
 40
0
 40
1
 40
1
 40
1
 40
1
 10
218.733200
 20
141.425350
 30
0.0
 10
221.591325
 20
141.425350
 30
0.0
 10
224.232341
 20
142.950141
 30
0.0
 10
225.661403
 20
145.425350
 30
0.0
  0
SPLINE
  5
171
100
AcDbEntity
  8
Calque_1
 62
7
100
AcDbSpline
 70
8
 71
3
 72
8
 73
4
 74
0
 40
0
 40
0
 40
0
 40
0
 40
1
 40
1
 40
1
 40
1
 10
225.661403
 20
145.425350
 30
0.0
 10
227.090466
 20
147.900559
 30
0.0
 10
227.090466
 20
150.950141
 30
0.0
 10
225.661403
 20
153.425350
 30
0.0
  0
SPLINE
  5
172
100
AcDbEntity
  8
Calque_1
 62
7
100
AcDbSpline
 70
8
 71
3
 72
8
 73
4
 74
0
 40
0
 40
0
 40
0
 40
0
 40
1
 40
1
 40
1
 40
1
 10
225.661403
 20
153.425350
 30
0.0
 10
224.232341
 20
155.900559
 30
0.0
 10
221.591325
 20
157.425350
 30
0.0
 10
218.733200
 20
157.425350
 30
0.0
  0
SPLINE
  5
173
100
AcDbEntity
  8
Calque_1
 62
7
100
AcDbSpline
 70
8
 71
3
 72
8
 73
4
 74
0
 40
0
 40
0
 40
0
 40
0
 40
1
 40
1
 40
1
 40
1
 10
218.733200
 20
157.425350
 30
0.0
 10
215.875075
 20
157.425350
 30
0.0
 10
213.234059
 20
155.900559
 30
0.0
 10
211.804997
 20
153.425350
 30
0.0
  0
SPLINE
  5
174
100
AcDbEntity
  8
Calque_1
 62
7
100
AcDbSpline
 70
8
 71
3
 72
8
 73
4
 74
0
 40
0
 40
0
 40
0
 40
0
 40
1
 40
1
 40
1
 40
1
 10
211.804997
 20
153.425350
 30
0.0
 10
210.375934
 20
150.950141
 30
0.0
 10
210.375934
 20
147.900559
 30
0.0
 10
211.804997
 20
145.425350
 30
0.0
  0
SPLINE
  5
175
100
AcDbEntity
  8
Calque_1
 62
7
100
AcDbSpline
 70
8
 71
3
 72
8
 73
4
 74
0
 40
0
 40
0
 40
0
 40
0
 40
1
 40
1
 40
1
 40
1
 10
211.804997
 20
145.425350
 30
0.0
 10
213.234059
 20
142.950141
 30
0.0
 10
215.875075
 20
141.425350
 30
0.0
 10
218.733200
 20
141.425350
 30
0.0
  0
LWPOLYLINE
  5
176
100
AcDbEntity
  8
Calque_1
 62
7
100
AcDbPolyline
 90
1
 70
1
 10
218.733200
 20
23.037480
 30
0.0
  0
LWPOLYLINE
  5
177
100
AcDbEntity
  8
Calque_1
 62
7
100
AcDbPolyline
 90
1
 70
1
 10
218.733200
 20
141.425350
 30
0.0
  0
SPLINE
  5
178
100
AcDbEntity
  8
Calque_1
 62
7
100
AcDbSpline
 70
8
 71
3
 72
8
 73
4
 74
0
 40
0
 40
0
 40
0
 40
0
 40
1
 40
1
 40
1
 40
1
 10
306.341060
 20
82.231600
 30
0.0
 10
309.199185
 20
82.231600
 30
0.0
 10
311.840201
 20
83.756391
 30
0.0
 10
313.269263
 20
86.231600
 30
0.0
  0
SPLINE
  5
179
100
AcDbEntity
  8
Calque_1
 62
7
100
AcDbSpline
 70
8
 71
3
 72
8
 73
4
 74
0
 40
0
 40
0
 40
0
 40
0
 40
1
 40
1
 40
1
 40
1
 10
313.269263
 20
86.231600
 30
0.0
 10
314.698326
 20
88.706809
 30
0.0
 10
314.698326
 20
91.756391
 30
0.0
 10
313.269263
 20
94.231600
 30
0.0
  0
SPLINE
  5
17a
100
AcDbEntity
  8
Calque_1
 62
7
100
AcDbSpline
 70
8
 71
3
 72
8
 73
4
 74
0
 40
0
 40
0
 40
0
 40
0
 40
1
 40
1
 40
1
 40
1
 10
313.269263
 20
94.231600
 30
0.0
 10
311.840201
 20
96.706809
 30
0.0
 10
309.199185
 20
98.231600
 30
0.0
 10
306.341060
 20
98.231600
 30
0.0
  0
SPLINE
  5
17b
100
AcDbEntity
  8
Calque_1
 62
7
100
AcDbSpline
 70
8
 71
3
 72
8
 73
4
 74
0
 40
0
 40
0
 40
0
 40
0
 40
1
 40
1
 40
1
 40
1
 10
306.341060
 20
98.231600
 30
0.0
 10
303.482935
 20
98.231600
 30
0.0
 10
300.841919
 20
96.706809
 30
0.0
 10
299.412857
 20
94.231600
 30
0.0
  0
SPLINE
  5
17c
100
AcDbEntity
  8
Calque_1
 62
7
100
AcDbSpline
 70
8
 71
3
 72
8
 73
4
 74
0
 40
0
 40
0
 40
0
 40
0
 40
1
 40
1
 40
1
 40
1
 10
299.412857
 20
94.231600
 30
0.0
 10
297.983794
 20
91.756391
 30
0.0
 10
297.983794
 20
88.706809
 30
0.0
 10
299.412857
 20
86.231600
 30
0.0
  0
SPLINE
  5
17d
100
AcDbEntity
  8
Calque_1
 62
7
100
AcDbSpline
 70
8
 71
3
 72
8
 73
4
 74
0
 40
0
 40
0
 40
0
 40
0
 40
1
 40
1
 40
1
 40
1
 10
299.412857
 20
86.231600
 30
0.0
 10
300.841919
 20
83.756391
 30
0.0
 10
303.482935
 20
82.231600
 30
0.0
 10
306.341060
 20
82.231600
 30
0.0
  0
LWPOLYLINE
  5
17e
100
AcDbEntity
  8
Calque_1
 62
5
100
AcDbPolyline
 90
4
 70
1
 10
179.143460
 20
192.761180
 30
0.0
 10
379.843170
 20
192.761180
 30
0.0
 10
379.843170
 20
8.224180
 30
0.0
 10
179.143460
 20
8.224180
 30
0.0
  0
SPLINE
  5
17f
100
AcDbEntity
  8
Calque_1
 62
7
100
AcDbSpline
 70
8
 71
3
 72
8
 73
4
 74
0
 40
0
 40
0
 40
0
 40
0
 40
1
 40
1
 40
1
 40
1
 10
306.341060
 20
52.634630
 30
0.0
 10
309.199185
 20
52.634630
 30
0.0
 10
311.840201
 20
54.159421
 30
0.0
 10
313.269263
 20
56.634630
 30
0.0
  0
SPLINE
  5
180
100
AcDbEntity
  8
Calque_1
 62
7
100
AcDbSpline
 70
8
 71
3
 72
8
 73
4
 74
0
 40
0
 40
0
 40
0
 40
0
 40
1
 40
1
 40
1
 40
1
 10
313.269263
 20
56.634630
 30
0.0
 10
314.698326
 20
59.109839
 30
0.0
 10
314.698326
 20
62.159421
 30
0.0
 10
313.269263
 20
64.634630
 30
0.0
  0
SPLINE
  5
181
100
AcDbEntity
  8
Calque_1
 62
7
100
AcDbSpline
 70
8
 71
3
 72
8
 73
4
 74
0
 40
0
 40
0
 40
0
 40
0
 40
1
 40
1
 40
1
 40
1
 10
313.269263
 20
64.634630
 30
0.0
 10
311.840201
 20
67.109839
 30
0.0
 10
309.199185
 20
68.634630
 30
0.0
 10
306.341060
 20
68.634630
 30
0.0
  0
SPLINE
  5
182
100
AcDbEntity
  8
Calque_1
 62
7
100
AcDbSpline
 70
8
 71
3
 72
8
 73
4
 74
0
 40
0
 40
0
 40
0
 40
0
 40
1
 40
1
 40
1
 40
1
 10
306.341060
 20
68.634630
 30
0.0
 10
303.482935
 20
68.634630
 30
0.0
 10
300.841919
 20
67.109839
 30
0.0
 10
299.412857
 20
64.634630
 30
0.0
  0
SPLINE
  5
183
100
AcDbEntity
  8
Calque_1
 62
7
100
AcDbSpline
 70
8
 71
3
 72
8
 73
4
 74
0
 40
0
 40
0
 40
0
 40
0
 40
1
 40
1
 40
1
 40
1
 10
299.412857
 20
64.634630
 30
0.0
 10
297.983794
 20
62.159421
 30
0.0
 10
297.983794
 20
59.109839
 30
0.0
 10
299.412857
 20
56.634630
 30
0.0
  0
SPLINE
  5
184
100
AcDbEntity
  8
Calque_1
 62
7
100
AcDbSpline
 70
8
 71
3
 72
8
 73
4
 74
0
 40
0
 40
0
 40
0
 40
0
 40
1
 40
1
 40
1
 40
1
 10
299.412857
 20
56.634630
 30
0.0
 10
300.841919
 20
54.159421
 30
0.0
 10
303.482935
 20
52.634630
 30
0.0
 10
306.341060
 20
52.634630
 30
0.0
  0
LWPOLYLINE
  5
185
100
AcDbEntity
  8
Calque_1
 62
7
100
AcDbPolyline
 90
1
 70
1
 10
306.341060
 20
82.231600
 30
0.0
  0
SPLINE
  5
186
100
AcDbEntity
  8
Calque_1
 62
7
100
AcDbSpline
 70
8
 71
3
 72
8
 73
4
 74
0
 40
0
 40
0
 40
0
 40
0
 40
1
 40
1
 40
1
 40
1
 10
306.341060
 20
23.037660
 30
0.0
 10
309.199185
 20
23.037660
 30
0.0
 10
311.840201
 20
24.562451
 30
0.0
 10
313.269263
 20
27.037660
 30
0.0
  0
SPLINE
  5
187
100
AcDbEntity
  8
Calque_1
 62
7
100
AcDbSpline
 70
8
 71
3
 72
8
 73
4
 74
0
 40
0
 40
0
 40
0
 40
0
 40
1
 40
1
 40
1
 40
1
 10
313.269263
 20
27.037660
 30
0.0
 10
314.698326
 20
29.512869
 30
0.0
 10
314.698326
 20
32.562451
 30
0.0
 10
313.269263
 20
35.037660
 30
0.0
  0
SPLINE
  5
188
100
AcDbEntity
  8
Calque_1
 62
7
100
AcDbSpline
 70
8
 71
3
 72
8
 73
4
 74
0
 40
0
 40
0
 40
0
 40
0
 40
1
 40
1
 40
1
 40
1
 10
313.269263
 20
35.037660
 30
0.0
 10
311.840201
 20
37.512869
 30
0.0
 10
309.199185
 20
39.037660
 30
0.0
 10
306.341060
 20
39.037660
 30
0.0
  0
SPLINE
  5
189
100
AcDbEntity
  8
Calque_1
 62
7
100
AcDbSpline
 70
8
 71
3
 72
8
 73
4
 74
0
 40
0
 40
0
 40
0
 40
0
 40
1
 40
1
 40
1
 40
1
 10
306.341060
 20
39.037660
 30
0.0
 10
303.482935
 20
39.037660
 30
0.0
 10
300.841919
 20
37.512869
 30
0.0
 10
299.412857
 20
35.037660
 30
0.0
  0
SPLINE
  5
18a
100
AcDbEntity
  8
Calque_1
 62
7
100
AcDbSpline
 70
8
 71
3
 72
8
 73
4
 74
0
 40
0
 40
0
 40
0
 40
0
 40
1
 40
1
 40
1
 40
1
 10
299.412857
 20
35.037660
 30
0.0
 10
297.983794
 20
32.562451
 30
0.0
 10
297.983794
 20
29.512869
 30
0.0
 10
299.412857
 20
27.037660
 30
0.0
  0
SPLINE
  5
18b
100
AcDbEntity
  8
Calque_1
 62
7
100
AcDbSpline
 70
8
 71
3
 72
8
 73
4
 74
0
 40
0
 40
0
 40
0
 40
0
 40
1
 40
1
 40
1
 40
1
 10
299.412857
 20
27.037660
 30
0.0
 10
300.841919
 20
24.562451
 30
0.0
 10
303.482935
 20
23.037660
 30
0.0
 10
306.341060
 20
23.037660
 30
0.0
  0
LWPOLYLINE
  5
18c
100
AcDbEntity
  8
Calque_1
 62
7
100
AcDbPolyline
 90
1
 70
1
 10
306.341060
 20
52.634630
 30
0.0
  0
SPLINE
  5
18d
100
AcDbEntity
  8
Calque_1
 62
7
100
AcDbSpline
 70
8
 71
3
 72
8
 73
4
 74
0
 40
0
 40
0
 40
0
 40
0
 40
1
 40
1
 40
1
 40
1
 10
312.341060
 20
150.920560
 30
0.0
 10
312.341060
 20
153.064154
 30
0.0
 10
311.197466
 20
155.044916
 30
0.0
 10
309.341060
 20
156.116712
 30
0.0
  0
SPLINE
  5
18e
100
AcDbEntity
  8
Calque_1
 62
7
100
AcDbSpline
 70
8
 71
3
 72
8
 73
4
 74
0
 40
0
 40
0
 40
0
 40
0
 40
1
 40
1
 40
1
 40
1
 10
309.341060
 20
156.116712
 30
0.0
 10
307.484654
 20
157.188509
 30
0.0
 10
305.197466
 20
157.188509
 30
0.0
 10
303.341060
 20
156.116712
 30
0.0
  0
SPLINE
  5
18f
100
AcDbEntity
  8
Calque_1
 62
7
100
AcDbSpline
 70
8
 71
3
 72
8
 73
4
 74
0
 40
0
 40
0
 40
0
 40
0
 40
1
 40
1
 40
1
 40
1
 10
303.341060
 20
156.116712
 30
0.0
 10
301.484654
 20
155.044916
 30
0.0
 10
300.341060
 20
153.064154
 30
0.0
 10
300.341060
 20
150.920560
 30
0.0
  0
SPLINE
  5
190
100
AcDbEntity
  8
Calque_1
 62
7
100
AcDbSpline
 70
8
 71
3
 72
8
 73
4
 74
0
 40
0
 40
0
 40
0
 40
0
 40
1
 40
1
 40
1
 40
1
 10
300.341060
 20
150.920560
 30
0.0
 10
300.341060
 20
148.776966
 30
0.0
 10
301.484654
 20
146.796204
 30
0.0
 10
303.341060
 20
145.724408
 30
0.0
  0
SPLINE
  5
191
100
AcDbEntity
  8
Calque_1
 62
7
100
AcDbSpline
 70
8
 71
3
 72
8
 73
4
 74
0
 40
0
 40
0
 40
0
 40
0
 40
1
 40
1
 40
1
 40
1
 10
303.341060
 20
145.724408
 30
0.0
 10
305.197466
 20
144.652611
 30
0.0
 10
307.484654
 20
144.652611
 30
0.0
 10
309.341060
 20
145.724408
 30
0.0
  0
SPLINE
  5
192
100
AcDbEntity
  8
Calque_1
 62
7
100
AcDbSpline
 70
8
 71
3
 72
8
 73
4
 74
0
 40
0
 40
0
 40
0
 40
0
 40
1
 40
1
 40
1
 40
1
 10
309.341060
 20
145.724408
 30
0.0
 10
311.197466
 20
146.796204
 30
0.0
 10
312.341060
 20
148.776966
 30
0.0
 10
312.341060
 20
150.920560
 30
0.0
  0
LWPOLYLINE
  5
193
100
AcDbEntity
  8
Calque_1
 62
7
100
AcDbPolyline
 90
1
 70
1
 10
306.341060
 20
23.037660
 30
0.0
  0
SPLINE
  5
194
100
AcDbEntity
  8
Calque_1
 62
7
100
AcDbSpline
 70
8
 71
3
 72
8
 73
4
 74
0
 40
0
 40
0
 40
0
 40
0
 40
1
 40
1
 40
1
 40
1
 10
248.944230
 20
111.828550
 30
0.0
 10
251.802355
 20
111.828550
 30
0.0
 10
254.443371
 20
113.353341
 30
0.0
 10
255.872433
 20
115.828550
 30
0.0
  0
SPLINE
  5
195
100
AcDbEntity
  8
Calque_1
 62
7
100
AcDbSpline
 70
8
 71
3
 72
8
 73
4
 74
0
 40
0
 40
0
 40
0
 40
0
 40
1
 40
1
 40
1
 40
1
 10
255.872433
 20
115.828550
 30
0.0
 10
257.301496
 20
118.303759
 30
0.0
 10
257.301496
 20
121.353341
 30
0.0
 10
255.872433
 20
123.828550
 30
0.0
  0
SPLINE
  5
196
100
AcDbEntity
  8
Calque_1
 62
7
100
AcDbSpline
 70
8
 71
3
 72
8
 73
4
 74
0
 40
0
 40
0
 40
0
 40
0
 40
1
 40
1
 40
1
 40
1
 10
255.872433
 20
123.828550
 30
0.0
 10
254.443371
 20
126.303759
 30
0.0
 10
251.802355
 20
127.828550
 30
0.0
 10
248.944230
 20
127.828550
 30
0.0
  0
SPLINE
  5
197
100
AcDbEntity
  8
Calque_1
 62
7
100
AcDbSpline
 70
8
 71
3
 72
8
 73
4
 74
0
 40
0
 40
0
 40
0
 40
0
 40
1
 40
1
 40
1
 40
1
 10
248.944230
 20
127.828550
 30
0.0
 10
246.086105
 20
127.828550
 30
0.0
 10
243.445089
 20
126.303759
 30
0.0
 10
242.016027
 20
123.828550
 30
0.0
  0
SPLINE
  5
198
100
AcDbEntity
  8
Calque_1
 62
7
100
AcDbSpline
 70
8
 71
3
 72
8
 73
4
 74
0
 40
0
 40
0
 40
0
 40
0
 40
1
 40
1
 40
1
 40
1
 10
242.016027
 20
123.828550
 30
0.0
 10
240.586964
 20
121.353341
 30
0.0
 10
240.586964
 20
118.303759
 30
0.0
 10
242.016027
 20
115.828550
 30
0.0
  0
SPLINE
  5
199
100
AcDbEntity
  8
Calque_1
 62
7
100
AcDbSpline
 70
8
 71
3
 72
8
 73
4
 74
0
 40
0
 40
0
 40
0
 40
0
 40
1
 40
1
 40
1
 40
1
 10
242.016027
 20
115.828550
 30
0.0
 10
243.445089
 20
113.353341
 30
0.0
 10
246.086105
 20
111.828550
 30
0.0
 10
248.944230
 20
111.828550
 30
0.0
  0
LWPOLYLINE
  5
19a
100
AcDbEntity
  8
Calque_1
 62
7
100
AcDbPolyline
 90
1
 70
1
 10
312.341060
 20
150.920560
 30
0.0
  0
SPLINE
  5
19b
100
AcDbEntity
  8
Calque_1
 62
7
100
AcDbSpline
 70
8
 71
3
 72
8
 73
4
 74
0
 40
0
 40
0
 40
0
 40
0
 40
1
 40
1
 40
1
 40
1
 10
248.944230
 20
82.231600
 30
0.0
 10
251.802355
 20
82.231600
 30
0.0
 10
254.443371
 20
83.756391
 30
0.0
 10
255.872433
 20
86.231600
 30
0.0
  0
SPLINE
  5
19c
100
AcDbEntity
  8
Calque_1
 62
7
100
AcDbSpline
 70
8
 71
3
 72
8
 73
4
 74
0
 40
0
 40
0
 40
0
 40
0
 40
1
 40
1
 40
1
 40
1
 10
255.872433
 20
86.231600
 30
0.0
 10
257.301496
 20
88.706809
 30
0.0
 10
257.301496
 20
91.756391
 30
0.0
 10
255.872433
 20
94.231600
 30
0.0
  0
SPLINE
  5
19d
100
AcDbEntity
  8
Calque_1
 62
7
100
AcDbSpline
 70
8
 71
3
 72
8
 73
4
 74
0
 40
0
 40
0
 40
0
 40
0
 40
1
 40
1
 40
1
 40
1
 10
255.872433
 20
94.231600
 30
0.0
 10
254.443371
 20
96.706809
 30
0.0
 10
251.802355
 20
98.231600
 30
0.0
 10
248.944230
 20
98.231600
 30
0.0
  0
SPLINE
  5
19e
100
AcDbEntity
  8
Calque_1
 62
7
100
AcDbSpline
 70
8
 71
3
 72
8
 73
4
 74
0
 40
0
 40
0
 40
0
 40
0
 40
1
 40
1
 40
1
 40
1
 10
248.944230
 20
98.231600
 30
0.0
 10
246.086105
 20
98.231600
 30
0.0
 10
243.445089
 20
96.706809
 30
0.0
 10
242.016027
 20
94.231600
 30
0.0
  0
SPLINE
  5
19f
100
AcDbEntity
  8
Calque_1
 62
7
100
AcDbSpline
 70
8
 71
3
 72
8
 73
4
 74
0
 40
0
 40
0
 40
0
 40
0
 40
1
 40
1
 40
1
 40
1
 10
242.016027
 20
94.231600
 30
0.0
 10
240.586964
 20
91.756391
 30
0.0
 10
240.586964
 20
88.706809
 30
0.0
 10
242.016027
 20
86.231600
 30
0.0
  0
SPLINE
  5
1a0
100
AcDbEntity
  8
Calque_1
 62
7
100
AcDbSpline
 70
8
 71
3
 72
8
 73
4
 74
0
 40
0
 40
0
 40
0
 40
0
 40
1
 40
1
 40
1
 40
1
 10
242.016027
 20
86.231600
 30
0.0
 10
243.445089
 20
83.756391
 30
0.0
 10
246.086105
 20
82.231600
 30
0.0
 10
248.944230
 20
82.231600
 30
0.0
  0
LWPOLYLINE
  5
1a1
100
AcDbEntity
  8
Calque_1
 62
7
100
AcDbPolyline
 90
1
 70
1
 10
248.944230
 20
111.828550
 30
0.0
  0
SPLINE
  5
1a2
100
AcDbEntity
  8
Calque_1
 62
7
100
AcDbSpline
 70
8
 71
3
 72
8
 73
4
 74
0
 40
0
 40
0
 40
0
 40
0
 40
1
 40
1
 40
1
 40
1
 10
248.944230
 20
52.634630
 30
0.0
 10
251.802355
 20
52.634630
 30
0.0
 10
254.443371
 20
54.159421
 30
0.0
 10
255.872433
 20
56.634630
 30
0.0
  0
SPLINE
  5
1a3
100
AcDbEntity
  8
Calque_1
 62
7
100
AcDbSpline
 70
8
 71
3
 72
8
 73
4
 74
0
 40
0
 40
0
 40
0
 40
0
 40
1
 40
1
 40
1
 40
1
 10
255.872433
 20
56.634630
 30
0.0
 10
257.301496
 20
59.109839
 30
0.0
 10
257.301496
 20
62.159421
 30
0.0
 10
255.872433
 20
64.634630
 30
0.0
  0
SPLINE
  5
1a4
100
AcDbEntity
  8
Calque_1
 62
7
100
AcDbSpline
 70
8
 71
3
 72
8
 73
4
 74
0
 40
0
 40
0
 40
0
 40
0
 40
1
 40
1
 40
1
 40
1
 10
255.872433
 20
64.634630
 30
0.0
 10
254.443371
 20
67.109839
 30
0.0
 10
251.802355
 20
68.634630
 30
0.0
 10
248.944230
 20
68.634630
 30
0.0
  0
SPLINE
  5
1a5
100
AcDbEntity
  8
Calque_1
 62
7
100
AcDbSpline
 70
8
 71
3
 72
8
 73
4
 74
0
 40
0
 40
0
 40
0
 40
0
 40
1
 40
1
 40
1
 40
1
 10
248.944230
 20
68.634630
 30
0.0
 10
246.086105
 20
68.634630
 30
0.0
 10
243.445089
 20
67.109839
 30
0.0
 10
242.016027
 20
64.634630
 30
0.0
  0
SPLINE
  5
1a6
100
AcDbEntity
  8
Calque_1
 62
7
100
AcDbSpline
 70
8
 71
3
 72
8
 73
4
 74
0
 40
0
 40
0
 40
0
 40
0
 40
1
 40
1
 40
1
 40
1
 10
242.016027
 20
64.634630
 30
0.0
 10
240.586964
 20
62.159421
 30
0.0
 10
240.586964
 20
59.109839
 30
0.0
 10
242.016027
 20
56.634630
 30
0.0
  0
SPLINE
  5
1a7
100
AcDbEntity
  8
Calque_1
 62
7
100
AcDbSpline
 70
8
 71
3
 72
8
 73
4
 74
0
 40
0
 40
0
 40
0
 40
0
 40
1
 40
1
 40
1
 40
1
 10
242.016027
 20
56.634630
 30
0.0
 10
243.445089
 20
54.159421
 30
0.0
 10
246.086105
 20
52.634630
 30
0.0
 10
248.944230
 20
52.634630
 30
0.0
  0
LWPOLYLINE
  5
1a8
100
AcDbEntity
  8
Calque_1
 62
7
100
AcDbPolyline
 90
1
 70
1
 10
248.944230
 20
82.231600
 30
0.0
  0
SPLINE
  5
1a9
100
AcDbEntity
  8
Calque_1
 62
7
100
AcDbSpline
 70
8
 71
3
 72
8
 73
4
 74
0
 40
0
 40
0
 40
0
 40
0
 40
1
 40
1
 40
1
 40
1
 10
248.944230
 20
23.037660
 30
0.0
 10
251.802355
 20
23.037660
 30
0.0
 10
254.443371
 20
24.562451
 30
0.0
 10
255.872433
 20
27.037660
 30
0.0
  0
SPLINE
  5
1aa
100
AcDbEntity
  8
Calque_1
 62
7
100
AcDbSpline
 70
8
 71
3
 72
8
 73
4
 74
0
 40
0
 40
0
 40
0
 40
0
 40
1
 40
1
 40
1
 40
1
 10
255.872433
 20
27.037660
 30
0.0
 10
257.301496
 20
29.512869
 30
0.0
 10
257.301496
 20
32.562451
 30
0.0
 10
255.872433
 20
35.037660
 30
0.0
  0
SPLINE
  5
1ab
100
AcDbEntity
  8
Calque_1
 62
7
100
AcDbSpline
 70
8
 71
3
 72
8
 73
4
 74
0
 40
0
 40
0
 40
0
 40
0
 40
1
 40
1
 40
1
 40
1
 10
255.872433
 20
35.037660
 30
0.0
 10
254.443371
 20
37.512869
 30
0.0
 10
251.802355
 20
39.037660
 30
0.0
 10
248.944230
 20
39.037660
 30
0.0
  0
SPLINE
  5
1ac
100
AcDbEntity
  8
Calque_1
 62
7
100
AcDbSpline
 70
8
 71
3
 72
8
 73
4
 74
0
 40
0
 40
0
 40
0
 40
0
 40
1
 40
1
 40
1
 40
1
 10
248.944230
 20
39.037660
 30
0.0
 10
246.086105
 20
39.037660
 30
0.0
 10
243.445089
 20
37.512869
 30
0.0
 10
242.016027
 20
35.037660
 30
0.0
  0
SPLINE
  5
1ad
100
AcDbEntity
  8
Calque_1
 62
7
100
AcDbSpline
 70
8
 71
3
 72
8
 73
4
 74
0
 40
0
 40
0
 40
0
 40
0
 40
1
 40
1
 40
1
 40
1
 10
242.016027
 20
35.037660
 30
0.0
 10
240.586964
 20
32.562451
 30
0.0
 10
240.586964
 20
29.512869
 30
0.0
 10
242.016027
 20
27.037660
 30
0.0
  0
SPLINE
  5
1ae
100
AcDbEntity
  8
Calque_1
 62
7
100
AcDbSpline
 70
8
 71
3
 72
8
 73
4
 74
0
 40
0
 40
0
 40
0
 40
0
 40
1
 40
1
 40
1
 40
1
 10
242.016027
 20
27.037660
 30
0.0
 10
243.445089
 20
24.562451
 30
0.0
 10
246.086105
 20
23.037660
 30
0.0
 10
248.944230
 20
23.037660
 30
0.0
  0
LWPOLYLINE
  5
1af
100
AcDbEntity
  8
Calque_1
 62
7
100
AcDbPolyline
 90
1
 70
1
 10
248.944230
 20
52.634630
 30
0.0
  0
SPLINE
  5
1b0
100
AcDbEntity
  8
Calque_1
 62
7
100
AcDbSpline
 70
8
 71
3
 72
8
 73
4
 74
0
 40
0
 40
0
 40
0
 40
0
 40
1
 40
1
 40
1
 40
1
 10
248.944230
 20
141.425550
 30
0.0
 10
251.802355
 20
141.425550
 30
0.0
 10
254.443371
 20
142.950341
 30
0.0
 10
255.872433
 20
145.425550
 30
0.0
  0
SPLINE
  5
1b1
100
AcDbEntity
  8
Calque_1
 62
7
100
AcDbSpline
 70
8
 71
3
 72
8
 73
4
 74
0
 40
0
 40
0
 40
0
 40
0
 40
1
 40
1
 40
1
 40
1
 10
255.872433
 20
145.425550
 30
0.0
 10
257.301496
 20
147.900759
 30
0.0
 10
257.301496
 20
150.950341
 30
0.0
 10
255.872433
 20
153.425550
 30
0.0
  0
SPLINE
  5
1b2
100
AcDbEntity
  8
Calque_1
 62
7
100
AcDbSpline
 70
8
 71
3
 72
8
 73
4
 74
0
 40
0
 40
0
 40
0
 40
0
 40
1
 40
1
 40
1
 40
1
 10
255.872433
 20
153.425550
 30
0.0
 10
254.443371
 20
155.900759
 30
0.0
 10
251.802355
 20
157.425550
 30
0.0
 10
248.944230
 20
157.425550
 30
0.0
  0
SPLINE
  5
1b3
100
AcDbEntity
  8
Calque_1
 62
7
100
AcDbSpline
 70
8
 71
3
 72
8
 73
4
 74
0
 40
0
 40
0
 40
0
 40
0
 40
1
 40
1
 40
1
 40
1
 10
248.944230
 20
157.425550
 30
0.0
 10
246.086105
 20
157.425550
 30
0.0
 10
243.445089
 20
155.900759
 30
0.0
 10
242.016027
 20
153.425550
 30
0.0
  0
SPLINE
  5
1b4
100
AcDbEntity
  8
Calque_1
 62
7
100
AcDbSpline
 70
8
 71
3
 72
8
 73
4
 74
0
 40
0
 40
0
 40
0
 40
0
 40
1
 40
1
 40
1
 40
1
 10
242.016027
 20
153.425550
 30
0.0
 10
240.586964
 20
150.950341
 30
0.0
 10
240.586964
 20
147.900759
 30
0.0
 10
242.016027
 20
145.425550
 30
0.0
  0
SPLINE
  5
1b5
100
AcDbEntity
  8
Calque_1
 62
7
100
AcDbSpline
 70
8
 71
3
 72
8
 73
4
 74
0
 40
0
 40
0
 40
0
 40
0
 40
1
 40
1
 40
1
 40
1
 10
242.016027
 20
145.425550
 30
0.0
 10
243.445089
 20
142.950341
 30
0.0
 10
246.086105
 20
141.425550
 30
0.0
 10
248.944230
 20
141.425550
 30
0.0
  0
LWPOLYLINE
  5
1b6
100
AcDbEntity
  8
Calque_1
 62
7
100
AcDbPolyline
 90
1
 70
1
 10
248.944230
 20
23.037660
 30
0.0
  0
LWPOLYLINE
  5
1b7
100
AcDbEntity
  8
Calque_1
 62
7
100
AcDbPolyline
 90
1
 70
1
 10
248.944230
 20
141.425550
 30
0.0
  0
SPLINE
  5
1b8
100
AcDbEntity
  8
Calque_1
 62
7
100
AcDbSpline
 70
8
 71
3
 72
8
 73
4
 74
0
 40
0
 40
0
 40
0
 40
0
 40
1
 40
1
 40
1
 40
1
 10
417.857700
 20
111.828550
 30
0.0
 10
420.715825
 20
111.828550
 30
0.0
 10
423.356841
 20
113.353341
 30
0.0
 10
424.785903
 20
115.828550
 30
0.0
  0
SPLINE
  5
1b9
100
AcDbEntity
  8
Calque_1
 62
7
100
AcDbSpline
 70
8
 71
3
 72
8
 73
4
 74
0
 40
0
 40
0
 40
0
 40
0
 40
1
 40
1
 40
1
 40
1
 10
424.785903
 20
115.828550
 30
0.0
 10
426.214966
 20
118.303759
 30
0.0
 10
426.214966
 20
121.353341
 30
0.0
 10
424.785903
 20
123.828550
 30
0.0
  0
SPLINE
  5
1ba
100
AcDbEntity
  8
Calque_1
 62
7
100
AcDbSpline
 70
8
 71
3
 72
8
 73
4
 74
0
 40
0
 40
0
 40
0
 40
0
 40
1
 40
1
 40
1
 40
1
 10
424.785903
 20
123.828550
 30
0.0
 10
423.356841
 20
126.303759
 30
0.0
 10
420.715825
 20
127.828550
 30
0.0
 10
417.857700
 20
127.828550
 30
0.0
  0
SPLINE
  5
1bb
100
AcDbEntity
  8
Calque_1
 62
7
100
AcDbSpline
 70
8
 71
3
 72
8
 73
4
 74
0
 40
0
 40
0
 40
0
 40
0
 40
1
 40
1
 40
1
 40
1
 10
417.857700
 20
127.828550
 30
0.0
 10
414.999575
 20
127.828550
 30
0.0
 10
412.358559
 20
126.303759
 30
0.0
 10
410.929497
 20
123.828550
 30
0.0
  0
SPLINE
  5
1bc
100
AcDbEntity
  8
Calque_1
 62
7
100
AcDbSpline
 70
8
 71
3
 72
8
 73
4
 74
0
 40
0
 40
0
 40
0
 40
0
 40
1
 40
1
 40
1
 40
1
 10
410.929497
 20
123.828550
 30
0.0
 10
409.500434
 20
121.353341
 30
0.0
 10
409.500434
 20
118.303759
 30
0.0
 10
410.929497
 20
115.828550
 30
0.0
  0
SPLINE
  5
1bd
100
AcDbEntity
  8
Calque_1
 62
7
100
AcDbSpline
 70
8
 71
3
 72
8
 73
4
 74
0
 40
0
 40
0
 40
0
 40
0
 40
1
 40
1
 40
1
 40
1
 10
410.929497
 20
115.828550
 30
0.0
 10
412.358559
 20
113.353341
 30
0.0
 10
414.999575
 20
111.828550
 30
0.0
 10
417.857700
 20
111.828550
 30
0.0
  0
LWPOLYLINE
  5
1be
100
AcDbEntity
  8
Calque_1
 62
5
100
AcDbPolyline
 90
4
 70
1
 10
383.948460
 20
142.995570
 30
0.0
 10
473.848721
 20
142.995570
 30
0.0
 10
473.848721
 20
8.224150
 30
0.0
 10
383.948460
 20
8.224150
 30
0.0
  0
SPLINE
  5
1bf
100
AcDbEntity
  8
Calque_1
 62
7
100
AcDbSpline
 70
8
 71
3
 72
8
 73
4
 74
0
 40
0
 40
0
 40
0
 40
0
 40
1
 40
1
 40
1
 40
1
 10
417.857700
 20
82.231580
 30
0.0
 10
420.715825
 20
82.231580
 30
0.0
 10
423.356841
 20
83.756371
 30
0.0
 10
424.785903
 20
86.231580
 30
0.0
  0
SPLINE
  5
1c0
100
AcDbEntity
  8
Calque_1
 62
7
100
AcDbSpline
 70
8
 71
3
 72
8
 73
4
 74
0
 40
0
 40
0
 40
0
 40
0
 40
1
 40
1
 40
1
 40
1
 10
424.785903
 20
86.231580
 30
0.0
 10
426.214966
 20
88.706789
 30
0.0
 10
426.214966
 20
91.756371
 30
0.0
 10
424.785903
 20
94.231580
 30
0.0
  0
SPLINE
  5
1c1
100
AcDbEntity
  8
Calque_1
 62
7
100
AcDbSpline
 70
8
 71
3
 72
8
 73
4
 74
0
 40
0
 40
0
 40
0
 40
0
 40
1
 40
1
 40
1
 40
1
 10
424.785903
 20
94.231580
 30
0.0
 10
423.356841
 20
96.706789
 30
0.0
 10
420.715825
 20
98.231580
 30
0.0
 10
417.857700
 20
98.231580
 30
0.0
  0
SPLINE
  5
1c2
100
AcDbEntity
  8
Calque_1
 62
7
100
AcDbSpline
 70
8
 71
3
 72
8
 73
4
 74
0
 40
0
 40
0
 40
0
 40
0
 40
1
 40
1
 40
1
 40
1
 10
417.857700
 20
98.231580
 30
0.0
 10
414.999575
 20
98.231580
 30
0.0
 10
412.358559
 20
96.706789
 30
0.0
 10
410.929497
 20
94.231580
 30
0.0
  0
SPLINE
  5
1c3
100
AcDbEntity
  8
Calque_1
 62
7
100
AcDbSpline
 70
8
 71
3
 72
8
 73
4
 74
0
 40
0
 40
0
 40
0
 40
0
 40
1
 40
1
 40
1
 40
1
 10
410.929497
 20
94.231580
 30
0.0
 10
409.500434
 20
91.756371
 30
0.0
 10
409.500434
 20
88.706789
 30
0.0
 10
410.929497
 20
86.231580
 30
0.0
  0
SPLINE
  5
1c4
100
AcDbEntity
  8
Calque_1
 62
7
100
AcDbSpline
 70
8
 71
3
 72
8
 73
4
 74
0
 40
0
 40
0
 40
0
 40
0
 40
1
 40
1
 40
1
 40
1
 10
410.929497
 20
86.231580
 30
0.0
 10
412.358559
 20
83.756371
 30
0.0
 10
414.999575
 20
82.231580
 30
0.0
 10
417.857700
 20
82.231580
 30
0.0
  0
LWPOLYLINE
  5
1c5
100
AcDbEntity
  8
Calque_1
 62
7
100
AcDbPolyline
 90
1
 70
1
 10
417.857700
 20
111.828550
 30
0.0
  0
SPLINE
  5
1c6
100
AcDbEntity
  8
Calque_1
 62
7
100
AcDbSpline
 70
8
 71
3
 72
8
 73
4
 74
0
 40
0
 40
0
 40
0
 40
0
 40
1
 40
1
 40
1
 40
1
 10
417.857700
 20
52.634630
 30
0.0
 10
420.715825
 20
52.634630
 30
0.0
 10
423.356841
 20
54.159421
 30
0.0
 10
424.785903
 20
56.634630
 30
0.0
  0
SPLINE
  5
1c7
100
AcDbEntity
  8
Calque_1
 62
7
100
AcDbSpline
 70
8
 71
3
 72
8
 73
4
 74
0
 40
0
 40
0
 40
0
 40
0
 40
1
 40
1
 40
1
 40
1
 10
424.785903
 20
56.634630
 30
0.0
 10
426.214966
 20
59.109839
 30
0.0
 10
426.214966
 20
62.159421
 30
0.0
 10
424.785903
 20
64.634630
 30
0.0
  0
SPLINE
  5
1c8
100
AcDbEntity
  8
Calque_1
 62
7
100
AcDbSpline
 70
8
 71
3
 72
8
 73
4
 74
0
 40
0
 40
0
 40
0
 40
0
 40
1
 40
1
 40
1
 40
1
 10
424.785903
 20
64.634630
 30
0.0
 10
423.356841
 20
67.109839
 30
0.0
 10
420.715825
 20
68.634630
 30
0.0
 10
417.857700
 20
68.634630
 30
0.0
  0
SPLINE
  5
1c9
100
AcDbEntity
  8
Calque_1
 62
7
100
AcDbSpline
 70
8
 71
3
 72
8
 73
4
 74
0
 40
0
 40
0
 40
0
 40
0
 40
1
 40
1
 40
1
 40
1
 10
417.857700
 20
68.634630
 30
0.0
 10
414.999575
 20
68.634630
 30
0.0
 10
412.358559
 20
67.109839
 30
0.0
 10
410.929497
 20
64.634630
 30
0.0
  0
SPLINE
  5
1ca
100
AcDbEntity
  8
Calque_1
 62
7
100
AcDbSpline
 70
8
 71
3
 72
8
 73
4
 74
0
 40
0
 40
0
 40
0
 40
0
 40
1
 40
1
 40
1
 40
1
 10
410.929497
 20
64.634630
 30
0.0
 10
409.500434
 20
62.159421
 30
0.0
 10
409.500434
 20
59.109839
 30
0.0
 10
410.929497
 20
56.634630
 30
0.0
  0
SPLINE
  5
1cb
100
AcDbEntity
  8
Calque_1
 62
7
100
AcDbSpline
 70
8
 71
3
 72
8
 73
4
 74
0
 40
0
 40
0
 40
0
 40
0
 40
1
 40
1
 40
1
 40
1
 10
410.929497
 20
56.634630
 30
0.0
 10
412.358559
 20
54.159421
 30
0.0
 10
414.999575
 20
52.634630
 30
0.0
 10
417.857700
 20
52.634630
 30
0.0
  0
LWPOLYLINE
  5
1cc
100
AcDbEntity
  8
Calque_1
 62
7
100
AcDbPolyline
 90
1
 70
1
 10
417.857700
 20
82.231580
 30
0.0
  0
SPLINE
  5
1cd
100
AcDbEntity
  8
Calque_1
 62
7
100
AcDbSpline
 70
8
 71
3
 72
8
 73
4
 74
0
 40
0
 40
0
 40
0
 40
0
 40
1
 40
1
 40
1
 40
1
 10
417.857700
 20
23.037660
 30
0.0
 10
420.715825
 20
23.037660
 30
0.0
 10
423.356841
 20
24.562451
 30
0.0
 10
424.785903
 20
27.037660
 30
0.0
  0
SPLINE
  5
1ce
100
AcDbEntity
  8
Calque_1
 62
7
100
AcDbSpline
 70
8
 71
3
 72
8
 73
4
 74
0
 40
0
 40
0
 40
0
 40
0
 40
1
 40
1
 40
1
 40
1
 10
424.785903
 20
27.037660
 30
0.0
 10
426.214966
 20
29.512869
 30
0.0
 10
426.214966
 20
32.562451
 30
0.0
 10
424.785903
 20
35.037660
 30
0.0
  0
SPLINE
  5
1cf
100
AcDbEntity
  8
Calque_1
 62
7
100
AcDbSpline
 70
8
 71
3
 72
8
 73
4
 74
0
 40
0
 40
0
 40
0
 40
0
 40
1
 40
1
 40
1
 40
1
 10
424.785903
 20
35.037660
 30
0.0
 10
423.356841
 20
37.512869
 30
0.0
 10
420.715825
 20
39.037660
 30
0.0
 10
417.857700
 20
39.037660
 30
0.0
  0
SPLINE
  5
1d0
100
AcDbEntity
  8
Calque_1
 62
7
100
AcDbSpline
 70
8
 71
3
 72
8
 73
4
 74
0
 40
0
 40
0
 40
0
 40
0
 40
1
 40
1
 40
1
 40
1
 10
417.857700
 20
39.037660
 30
0.0
 10
414.999575
 20
39.037660
 30
0.0
 10
412.358559
 20
37.512869
 30
0.0
 10
410.929497
 20
35.037660
 30
0.0
  0
SPLINE
  5
1d1
100
AcDbEntity
  8
Calque_1
 62
7
100
AcDbSpline
 70
8
 71
3
 72
8
 73
4
 74
0
 40
0
 40
0
 40
0
 40
0
 40
1
 40
1
 40
1
 40
1
 10
410.929497
 20
35.037660
 30
0.0
 10
409.500434
 20
32.562451
 30
0.0
 10
409.500434
 20
29.512869
 30
0.0
 10
410.929497
 20
27.037660
 30
0.0
  0
SPLINE
  5
1d2
100
AcDbEntity
  8
Calque_1
 62
7
100
AcDbSpline
 70
8
 71
3
 72
8
 73
4
 74
0
 40
0
 40
0
 40
0
 40
0
 40
1
 40
1
 40
1
 40
1
 10
410.929497
 20
27.037660
 30
0.0
 10
412.358559
 20
24.562451
 30
0.0
 10
414.999575
 20
23.037660
 30
0.0
 10
417.857700
 20
23.037660
 30
0.0
  0
LWPOLYLINE
  5
1d3
100
AcDbEntity
  8
Calque_1
 62
7
100
AcDbPolyline
 90
1
 70
1
 10
417.857700
 20
52.634630
 30
0.0
  0
SPLINE
  5
1d4
100
AcDbEntity
  8
Calque_1
 62
7
100
AcDbSpline
 70
8
 71
3
 72
8
 73
4
 74
0
 40
0
 40
0
 40
0
 40
0
 40
1
 40
1
 40
1
 40
1
 10
442.830230
 20
111.828740
 30
0.0
 10
445.688355
 20
111.828740
 30
0.0
 10
448.329371
 20
113.353531
 30
0.0
 10
449.758433
 20
115.828740
 30
0.0
  0
SPLINE
  5
1d5
100
AcDbEntity
  8
Calque_1
 62
7
100
AcDbSpline
 70
8
 71
3
 72
8
 73
4
 74
0
 40
0
 40
0
 40
0
 40
0
 40
1
 40
1
 40
1
 40
1
 10
449.758433
 20
115.828740
 30
0.0
 10
451.187496
 20
118.303949
 30
0.0
 10
451.187496
 20
121.353531
 30
0.0
 10
449.758433
 20
123.828740
 30
0.0
  0
SPLINE
  5
1d6
100
AcDbEntity
  8
Calque_1
 62
7
100
AcDbSpline
 70
8
 71
3
 72
8
 73
4
 74
0
 40
0
 40
0
 40
0
 40
0
 40
1
 40
1
 40
1
 40
1
 10
449.758433
 20
123.828740
 30
0.0
 10
448.329371
 20
126.303949
 30
0.0
 10
445.688355
 20
127.828740
 30
0.0
 10
442.830230
 20
127.828740
 30
0.0
  0
SPLINE
  5
1d7
100
AcDbEntity
  8
Calque_1
 62
7
100
AcDbSpline
 70
8
 71
3
 72
8
 73
4
 74
0
 40
0
 40
0
 40
0
 40
0
 40
1
 40
1
 40
1
 40
1
 10
442.830230
 20
127.828740
 30
0.0
 10
439.972105
 20
127.828740
 30
0.0
 10
437.331089
 20
126.303949
 30
0.0
 10
435.902027
 20
123.828740
 30
0.0
  0
SPLINE
  5
1d8
100
AcDbEntity
  8
Calque_1
 62
7
100
AcDbSpline
 70
8
 71
3
 72
8
 73
4
 74
0
 40
0
 40
0
 40
0
 40
0
 40
1
 40
1
 40
1
 40
1
 10
435.902027
 20
123.828740
 30
0.0
 10
434.472964
 20
121.353531
 30
0.0
 10
434.472964
 20
118.303949
 30
0.0
 10
435.902027
 20
115.828740
 30
0.0
  0
SPLINE
  5
1d9
100
AcDbEntity
  8
Calque_1
 62
7
100
AcDbSpline
 70
8
 71
3
 72
8
 73
4
 74
0
 40
0
 40
0
 40
0
 40
0
 40
1
 40
1
 40
1
 40
1
 10
435.902027
 20
115.828740
 30
0.0
 10
437.331089
 20
113.353531
 30
0.0
 10
439.972105
 20
111.828740
 30
0.0
 10
442.830230
 20
111.828740
 30
0.0
  0
LWPOLYLINE
  5
1da
100
AcDbEntity
  8
Calque_1
 62
7
100
AcDbPolyline
 90
1
 70
1
 10
417.857700
 20
23.037660
 30
0.0
  0
SPLINE
  5
1db
100
AcDbEntity
  8
Calque_1
 62
7
100
AcDbSpline
 70
8
 71
3
 72
8
 73
4
 74
0
 40
0
 40
0
 40
0
 40
0
 40
1
 40
1
 40
1
 40
1
 10
442.830230
 20
82.231800
 30
0.0
 10
445.688355
 20
82.231800
 30
0.0
 10
448.329371
 20
83.756591
 30
0.0
 10
449.758433
 20
86.231800
 30
0.0
  0
SPLINE
  5
1dc
100
AcDbEntity
  8
Calque_1
 62
7
100
AcDbSpline
 70
8
 71
3
 72
8
 73
4
 74
0
 40
0
 40
0
 40
0
 40
0
 40
1
 40
1
 40
1
 40
1
 10
449.758433
 20
86.231800
 30
0.0
 10
451.187496
 20
88.707009
 30
0.0
 10
451.187496
 20
91.756591
 30
0.0
 10
449.758433
 20
94.231800
 30
0.0
  0
SPLINE
  5
1dd
100
AcDbEntity
  8
Calque_1
 62
7
100
AcDbSpline
 70
8
 71
3
 72
8
 73
4
 74
0
 40
0
 40
0
 40
0
 40
0
 40
1
 40
1
 40
1
 40
1
 10
449.758433
 20
94.231800
 30
0.0
 10
448.329371
 20
96.707009
 30
0.0
 10
445.688355
 20
98.231800
 30
0.0
 10
442.830230
 20
98.231800
 30
0.0
  0
SPLINE
  5
1de
100
AcDbEntity
  8
Calque_1
 62
7
100
AcDbSpline
 70
8
 71
3
 72
8
 73
4
 74
0
 40
0
 40
0
 40
0
 40
0
 40
1
 40
1
 40
1
 40
1
 10
442.830230
 20
98.231800
 30
0.0
 10
439.972105
 20
98.231800
 30
0.0
 10
437.331089
 20
96.707009
 30
0.0
 10
435.902027
 20
94.231800
 30
0.0
  0
SPLINE
  5
1df
100
AcDbEntity
  8
Calque_1
 62
7
100
AcDbSpline
 70
8
 71
3
 72
8
 73
4
 74
0
 40
0
 40
0
 40
0
 40
0
 40
1
 40
1
 40
1
 40
1
 10
435.902027
 20
94.231800
 30
0.0
 10
434.472964
 20
91.756591
 30
0.0
 10
434.472964
 20
88.707009
 30
0.0
 10
435.902027
 20
86.231800
 30
0.0
  0
SPLINE
  5
1e0
100
AcDbEntity
  8
Calque_1
 62
7
100
AcDbSpline
 70
8
 71
3
 72
8
 73
4
 74
0
 40
0
 40
0
 40
0
 40
0
 40
1
 40
1
 40
1
 40
1
 10
435.902027
 20
86.231800
 30
0.0
 10
437.331089
 20
83.756591
 30
0.0
 10
439.972105
 20
82.231800
 30
0.0
 10
442.830230
 20
82.231800
 30
0.0
  0
LWPOLYLINE
  5
1e1
100
AcDbEntity
  8
Calque_1
 62
7
100
AcDbPolyline
 90
1
 70
1
 10
442.830230
 20
111.828740
 30
0.0
  0
SPLINE
  5
1e2
100
AcDbEntity
  8
Calque_1
 62
7
100
AcDbSpline
 70
8
 71
3
 72
8
 73
4
 74
0
 40
0
 40
0
 40
0
 40
0
 40
1
 40
1
 40
1
 40
1
 10
442.830230
 20
52.634800
 30
0.0
 10
445.688355
 20
52.634800
 30
0.0
 10
448.329371
 20
54.159591
 30
0.0
 10
449.758433
 20
56.634800
 30
0.0
  0
SPLINE
  5
1e3
100
AcDbEntity
  8
Calque_1
 62
7
100
AcDbSpline
 70
8
 71
3
 72
8
 73
4
 74
0
 40
0
 40
0
 40
0
 40
0
 40
1
 40
1
 40
1
 40
1
 10
449.758433
 20
56.634800
 30
0.0
 10
451.187496
 20
59.110009
 30
0.0
 10
451.187496
 20
62.159591
 30
0.0
 10
449.758433
 20
64.634800
 30
0.0
  0
SPLINE
  5
1e4
100
AcDbEntity
  8
Calque_1
 62
7
100
AcDbSpline
 70
8
 71
3
 72
8
 73
4
 74
0
 40
0
 40
0
 40
0
 40
0
 40
1
 40
1
 40
1
 40
1
 10
449.758433
 20
64.634800
 30
0.0
 10
448.329371
 20
67.110009
 30
0.0
 10
445.688355
 20
68.634800
 30
0.0
 10
442.830230
 20
68.634800
 30
0.0
  0
SPLINE
  5
1e5
100
AcDbEntity
  8
Calque_1
 62
7
100
AcDbSpline
 70
8
 71
3
 72
8
 73
4
 74
0
 40
0
 40
0
 40
0
 40
0
 40
1
 40
1
 40
1
 40
1
 10
442.830230
 20
68.634800
 30
0.0
 10
439.972105
 20
68.634800
 30
0.0
 10
437.331089
 20
67.110009
 30
0.0
 10
435.902027
 20
64.634800
 30
0.0
  0
SPLINE
  5
1e6
100
AcDbEntity
  8
Calque_1
 62
7
100
AcDbSpline
 70
8
 71
3
 72
8
 73
4
 74
0
 40
0
 40
0
 40
0
 40
0
 40
1
 40
1
 40
1
 40
1
 10
435.902027
 20
64.634800
 30
0.0
 10
434.472964
 20
62.159591
 30
0.0
 10
434.472964
 20
59.110009
 30
0.0
 10
435.902027
 20
56.634800
 30
0.0
  0
SPLINE
  5
1e7
100
AcDbEntity
  8
Calque_1
 62
7
100
AcDbSpline
 70
8
 71
3
 72
8
 73
4
 74
0
 40
0
 40
0
 40
0
 40
0
 40
1
 40
1
 40
1
 40
1
 10
435.902027
 20
56.634800
 30
0.0
 10
437.331089
 20
54.159591
 30
0.0
 10
439.972105
 20
52.634800
 30
0.0
 10
442.830230
 20
52.634800
 30
0.0
  0
LWPOLYLINE
  5
1e8
100
AcDbEntity
  8
Calque_1
 62
7
100
AcDbPolyline
 90
1
 70
1
 10
442.830230
 20
82.231800
 30
0.0
  0
SPLINE
  5
1e9
100
AcDbEntity
  8
Calque_1
 62
7
100
AcDbSpline
 70
8
 71
3
 72
8
 73
4
 74
0
 40
0
 40
0
 40
0
 40
0
 40
1
 40
1
 40
1
 40
1
 10
442.830230
 20
23.037810
 30
0.0
 10
445.688355
 20
23.037810
 30
0.0
 10
448.329371
 20
24.562601
 30
0.0
 10
449.758433
 20
27.037810
 30
0.0
  0
SPLINE
  5
1ea
100
AcDbEntity
  8
Calque_1
 62
7
100
AcDbSpline
 70
8
 71
3
 72
8
 73
4
 74
0
 40
0
 40
0
 40
0
 40
0
 40
1
 40
1
 40
1
 40
1
 10
449.758433
 20
27.037810
 30
0.0
 10
451.187496
 20
29.513019
 30
0.0
 10
451.187496
 20
32.562601
 30
0.0
 10
449.758433
 20
35.037810
 30
0.0
  0
SPLINE
  5
1eb
100
AcDbEntity
  8
Calque_1
 62
7
100
AcDbSpline
 70
8
 71
3
 72
8
 73
4
 74
0
 40
0
 40
0
 40
0
 40
0
 40
1
 40
1
 40
1
 40
1
 10
449.758433
 20
35.037810
 30
0.0
 10
448.329371
 20
37.513019
 30
0.0
 10
445.688355
 20
39.037810
 30
0.0
 10
442.830230
 20
39.037810
 30
0.0
  0
SPLINE
  5
1ec
100
AcDbEntity
  8
Calque_1
 62
7
100
AcDbSpline
 70
8
 71
3
 72
8
 73
4
 74
0
 40
0
 40
0
 40
0
 40
0
 40
1
 40
1
 40
1
 40
1
 10
442.830230
 20
39.037810
 30
0.0
 10
439.972105
 20
39.037810
 30
0.0
 10
437.331089
 20
37.513019
 30
0.0
 10
435.902027
 20
35.037810
 30
0.0
  0
SPLINE
  5
1ed
100
AcDbEntity
  8
Calque_1
 62
7
100
AcDbSpline
 70
8
 71
3
 72
8
 73
4
 74
0
 40
0
 40
0
 40
0
 40
0
 40
1
 40
1
 40
1
 40
1
 10
435.902027
 20
35.037810
 30
0.0
 10
434.472964
 20
32.562601
 30
0.0
 10
434.472964
 20
29.513019
 30
0.0
 10
435.902027
 20
27.037810
 30
0.0
  0
SPLINE
  5
1ee
100
AcDbEntity
  8
Calque_1
 62
7
100
AcDbSpline
 70
8
 71
3
 72
8
 73
4
 74
0
 40
0
 40
0
 40
0
 40
0
 40
1
 40
1
 40
1
 40
1
 10
435.902027
 20
27.037810
 30
0.0
 10
437.331089
 20
24.562601
 30
0.0
 10
439.972105
 20
23.037810
 30
0.0
 10
442.830230
 20
23.037810
 30
0.0
  0
LWPOLYLINE
  5
1ef
100
AcDbEntity
  8
Calque_1
 62
7
100
AcDbPolyline
 90
1
 70
1
 10
442.830230
 20
52.634800
 30
0.0
  0
SPLINE
  5
1f0
100
AcDbEntity
  8
Calque_1
 62
7
100
AcDbSpline
 70
8
 71
3
 72
8
 73
4
 74
0
 40
0
 40
0
 40
0
 40
0
 40
1
 40
1
 40
1
 40
1
 10
312.341060
 20
119.828550
 30
0.0
 10
312.341060
 20
121.972144
 30
0.0
 10
311.197466
 20
123.952906
 30
0.0
 10
309.341060
 20
125.024702
 30
0.0
  0
SPLINE
  5
1f1
100
AcDbEntity
  8
Calque_1
 62
7
100
AcDbSpline
 70
8
 71
3
 72
8
 73
4
 74
0
 40
0
 40
0
 40
0
 40
0
 40
1
 40
1
 40
1
 40
1
 10
309.341060
 20
125.024702
 30
0.0
 10
307.484654
 20
126.096499
 30
0.0
 10
305.197466
 20
126.096499
 30
0.0
 10
303.341060
 20
125.024702
 30
0.0
  0
SPLINE
  5
1f2
100
AcDbEntity
  8
Calque_1
 62
7
100
AcDbSpline
 70
8
 71
3
 72
8
 73
4
 74
0
 40
0
 40
0
 40
0
 40
0
 40
1
 40
1
 40
1
 40
1
 10
303.341060
 20
125.024702
 30
0.0
 10
301.484654
 20
123.952906
 30
0.0
 10
300.341060
 20
121.972144
 30
0.0
 10
300.341060
 20
119.828550
 30
0.0
  0
SPLINE
  5
1f3
100
AcDbEntity
  8
Calque_1
 62
7
100
AcDbSpline
 70
8
 71
3
 72
8
 73
4
 74
0
 40
0
 40
0
 40
0
 40
0
 40
1
 40
1
 40
1
 40
1
 10
300.341060
 20
119.828550
 30
0.0
 10
300.341060
 20
117.684956
 30
0.0
 10
301.484654
 20
115.704194
 30
0.0
 10
303.341060
 20
114.632398
 30
0.0
  0
SPLINE
  5
1f4
100
AcDbEntity
  8
Calque_1
 62
7
100
AcDbSpline
 70
8
 71
3
 72
8
 73
4
 74
0
 40
0
 40
0
 40
0
 40
0
 40
1
 40
1
 40
1
 40
1
 10
303.341060
 20
114.632398
 30
0.0
 10
305.197466
 20
113.560601
 30
0.0
 10
307.484654
 20
113.560601
 30
0.0
 10
309.341060
 20
114.632398
 30
0.0
  0
SPLINE
  5
1f5
100
AcDbEntity
  8
Calque_1
 62
7
100
AcDbSpline
 70
8
 71
3
 72
8
 73
4
 74
0
 40
0
 40
0
 40
0
 40
0
 40
1
 40
1
 40
1
 40
1
 10
309.341060
 20
114.632398
 30
0.0
 10
311.197466
 20
115.704194
 30
0.0
 10
312.341060
 20
117.684956
 30
0.0
 10
312.341060
 20
119.828550
 30
0.0
  0
LWPOLYLINE
  5
1f6
100
AcDbEntity
  8
Calque_1
 62
7
100
AcDbPolyline
 90
1
 70
1
 10
442.830230
 20
23.037810
 30
0.0
  0
LWPOLYLINE
  5
1f7
100
AcDbEntity
  8
Calque_1
 62
7
100
AcDbPolyline
 90
1
 70
1
 10
312.341060
 20
119.828550
 30
0.0
  0
SPLINE
  5
1f8
100
AcDbEntity
  8
Calque_1
 62
7
100
AcDbSpline
 70
8
 71
3
 72
8
 73
4
 74
0
 40
0
 40
0
 40
0
 40
0
 40
1
 40
1
 40
1
 40
1
 10
499.231350
 20
106.726730
 30
0.0
 10
499.231350
 20
108.155792
 30
0.0
 10
498.468954
 20
109.476300
 30
0.0
 10
497.231350
 20
110.190832
 30
0.0
  0
SPLINE
  5
1f9
100
AcDbEntity
  8
Calque_1
 62
7
100
AcDbSpline
 70
8
 71
3
 72
8
 73
4
 74
0
 40
0
 40
0
 40
0
 40
0
 40
1
 40
1
 40
1
 40
1
 10
497.231350
 20
110.190832
 30
0.0
 10
495.993746
 20
110.905363
 30
0.0
 10
494.468954
 20
110.905363
 30
0.0
 10
493.231350
 20
110.190832
 30
0.0
  0
SPLINE
  5
1fa
100
AcDbEntity
  8
Calque_1
 62
7
100
AcDbSpline
 70
8
 71
3
 72
8
 73
4
 74
0
 40
0
 40
0
 40
0
 40
0
 40
1
 40
1
 40
1
 40
1
 10
493.231350
 20
110.190832
 30
0.0
 10
491.993746
 20
109.476300
 30
0.0
 10
491.231350
 20
108.155792
 30
0.0
 10
491.231350
 20
106.726730
 30
0.0
  0
SPLINE
  5
1fb
100
AcDbEntity
  8
Calque_1
 62
7
100
AcDbSpline
 70
8
 71
3
 72
8
 73
4
 74
0
 40
0
 40
0
 40
0
 40
0
 40
1
 40
1
 40
1
 40
1
 10
491.231350
 20
106.726730
 30
0.0
 10
491.231350
 20
105.297668
 30
0.0
 10
491.993746
 20
103.977160
 30
0.0
 10
493.231350
 20
103.262628
 30
0.0
  0
SPLINE
  5
1fc
100
AcDbEntity
  8
Calque_1
 62
7
100
AcDbSpline
 70
8
 71
3
 72
8
 73
4
 74
0
 40
0
 40
0
 40
0
 40
0
 40
1
 40
1
 40
1
 40
1
 10
493.231350
 20
103.262628
 30
0.0
 10
494.468954
 20
102.548097
 30
0.0
 10
495.993746
 20
102.548097
 30
0.0
 10
497.231350
 20
103.262628
 30
0.0
  0
SPLINE
  5
1fd
100
AcDbEntity
  8
Calque_1
 62
7
100
AcDbSpline
 70
8
 71
3
 72
8
 73
4
 74
0
 40
0
 40
0
 40
0
 40
0
 40
1
 40
1
 40
1
 40
1
 10
497.231350
 20
103.262628
 30
0.0
 10
498.468954
 20
103.977160
 30
0.0
 10
499.231350
 20
105.297668
 30
0.0
 10
499.231350
 20
106.726730
 30
0.0
  0
LWPOLYLINE
  5
1fe
100
AcDbEntity
  8
Calque_1
 62
5
100
AcDbPolyline
 90
4
 70
1
 10
477.848450
 20
192.761180
 30
0.0
 10
580.448730
 20
192.761180
 30
0.0
 10
580.448730
 20
8.224180
 30
0.0
 10
477.848450
 20
8.224180
 30
0.0
  0
SPLINE
  5
1ff
100
AcDbEntity
  8
Calque_1
 62
7
100
AcDbSpline
 70
8
 71
3
 72
8
 73
4
 74
0
 40
0
 40
0
 40
0
 40
0
 40
1
 40
1
 40
1
 40
1
 10
499.231371
 20
79.186033
 30
0.0
 10
499.231371
 20
80.615095
 30
0.0
 10
498.468975
 20
81.935603
 30
0.0
 10
497.231371
 20
82.650134
 30
0.0
  0
SPLINE
  5
200
100
AcDbEntity
  8
Calque_1
 62
7
100
AcDbSpline
 70
8
 71
3
 72
8
 73
4
 74
0
 40
0
 40
0
 40
0
 40
0
 40
1
 40
1
 40
1
 40
1
 10
497.231371
 20
82.650134
 30
0.0
 10
495.993766
 20
83.364665
 30
0.0
 10
494.468975
 20
83.364665
 30
0.0
 10
493.231371
 20
82.650134
 30
0.0
  0
SPLINE
  5
201
100
AcDbEntity
  8
Calque_1
 62
7
100
AcDbSpline
 70
8
 71
3
 72
8
 73
4
 74
0
 40
0
 40
0
 40
0
 40
0
 40
1
 40
1
 40
1
 40
1
 10
493.231371
 20
82.650134
 30
0.0
 10
491.993766
 20
81.935603
 30
0.0
 10
491.231371
 20
80.615095
 30
0.0
 10
491.231371
 20
79.186033
 30
0.0
  0
SPLINE
  5
202
100
AcDbEntity
  8
Calque_1
 62
7
100
AcDbSpline
 70
8
 71
3
 72
8
 73
4
 74
0
 40
0
 40
0
 40
0
 40
0
 40
1
 40
1
 40
1
 40
1
 10
491.231371
 20
79.186033
 30
0.0
 10
491.231371
 20
77.756970
 30
0.0
 10
491.993766
 20
76.436462
 30
0.0
 10
493.231371
 20
75.721931
 30
0.0
  0
SPLINE
  5
203
100
AcDbEntity
  8
Calque_1
 62
7
100
AcDbSpline
 70
8
 71
3
 72
8
 73
4
 74
0
 40
0
 40
0
 40
0
 40
0
 40
1
 40
1
 40
1
 40
1
 10
493.231371
 20
75.721931
 30
0.0
 10
494.468975
 20
75.007400
 30
0.0
 10
495.993766
 20
75.007400
 30
0.0
 10
497.231371
 20
75.721931
 30
0.0
  0
SPLINE
  5
204
100
AcDbEntity
  8
Calque_1
 62
7
100
AcDbSpline
 70
8
 71
3
 72
8
 73
4
 74
0
 40
0
 40
0
 40
0
 40
0
 40
1
 40
1
 40
1
 40
1
 10
497.231371
 20
75.721931
 30
0.0
 10
498.468975
 20
76.436462
 30
0.0
 10
499.231371
 20
77.756970
 30
0.0
 10
499.231371
 20
79.186033
 30
0.0
  0
LWPOLYLINE
  5
205
100
AcDbEntity
  8
Calque_1
 62
7
100
AcDbPolyline
 90
1
 70
1
 10
499.231350
 20
106.726730
 30
0.0
  0
LWPOLYLINE
  5
206
100
AcDbEntity
  8
Calque_1
 62
7
100
AcDbPolyline
 90
1
 70
1
 10
499.231371
 20
79.186033
 30
0.0
  0
LWPOLYLINE
  5
207
100
AcDbEntity
  8
Calque_1
 62
5
100
AcDbPolyline
 90
3
 70
0
 10
496.266290
 20
157.858470
 30
0.0
 10
502.621160
 20
181.575170
 30
0.0
 10
526.326030
 20
181.575170
 30
0.0
  0
LWPOLYLINE
  5
208
100
AcDbEntity
  8
Calque_1
 62
5
100
AcDbPolyline
 90
3
 70
0
 10
498.058020
 20
156.822820
 30
0.0
 10
511.973760
 20
170.738580
 30
0.0
 10
526.326030
 20
170.738580
 30
0.0
  0
LWPOLYLINE
  5
209
100
AcDbEntity
  8
Calque_1
 62
5
100
AcDbPolyline
 90
3
 70
0
 10
499.090560
 20
155.030210
 30
0.0
 10
517.270400
 20
159.901480
 30
0.0
 10
526.326030
 20
159.901480
 30
0.0
  0
LWPOLYLINE
  5
20a
100
AcDbEntity
  8
Calque_1
 62
5
100
AcDbPolyline
 90
3
 70
0
 10
499.093730
 20
152.961220
 30
0.0
 10
513.636420
 20
149.064520
 30
0.0
 10
526.326030
 20
149.064520
 30
0.0
  0
LWPOLYLINE
  5
20b
100
AcDbEntity
  8
Calque_1
 62
5
100
AcDbPolyline
 90
3
 70
0
 10
498.058100
 20
151.169410
 30
0.0
 10
510.999750
 20
138.227740
 30
0.0
 10
526.326030
 20
138.227740
 30
0.0
  0
SPLINE
  5
20c
100
AcDbEntity
  8
Calque_1
 62
7
100
AcDbSpline
 70
8
 71
3
 72
8
 73
4
 74
0
 40
0
 40
0
 40
0
 40
0
 40
1
 40
1
 40
1
 40
1
 10
499.231350
 20
153.996140
 30
0.0
 10
499.231350
 20
155.425202
 30
0.0
 10
498.468954
 20
156.745710
 30
0.0
 10
497.231350
 20
157.460242
 30
0.0
  0
SPLINE
  5
20d
100
AcDbEntity
  8
Calque_1
 62
7
100
AcDbSpline
 70
8
 71
3
 72
8
 73
4
 74
0
 40
0
 40
0
 40
0
 40
0
 40
1
 40
1
 40
1
 40
1
 10
497.231350
 20
157.460242
 30
0.0
 10
495.993746
 20
158.174773
 30
0.0
 10
494.468954
 20
158.174773
 30
0.0
 10
493.231350
 20
157.460242
 30
0.0
  0
SPLINE
  5
20e
100
AcDbEntity
  8
Calque_1
 62
7
100
AcDbSpline
 70
8
 71
3
 72
8
 73
4
 74
0
 40
0
 40
0
 40
0
 40
0
 40
1
 40
1
 40
1
 40
1
 10
493.231350
 20
157.460242
 30
0.0
 10
491.993746
 20
156.745710
 30
0.0
 10
491.231350
 20
155.425202
 30
0.0
 10
491.231350
 20
153.996140
 30
0.0
  0
SPLINE
  5
20f
100
AcDbEntity
  8
Calque_1
 62
7
100
AcDbSpline
 70
8
 71
3
 72
8
 73
4
 74
0
 40
0
 40
0
 40
0
 40
0
 40
1
 40
1
 40
1
 40
1
 10
491.231350
 20
153.996140
 30
0.0
 10
491.231350
 20
152.567078
 30
0.0
 10
491.993746
 20
151.246570
 30
0.0
 10
493.231350
 20
150.532038
 30
0.0
  0
SPLINE
  5
210
100
AcDbEntity
  8
Calque_1
 62
7
100
AcDbSpline
 70
8
 71
3
 72
8
 73
4
 74
0
 40
0
 40
0
 40
0
 40
0
 40
1
 40
1
 40
1
 40
1
 10
493.231350
 20
150.532038
 30
0.0
 10
494.468954
 20
149.817507
 30
0.0
 10
495.993746
 20
149.817507
 30
0.0
 10
497.231350
 20
150.532038
 30
0.0
  0
SPLINE
  5
211
100
AcDbEntity
  8
Calque_1
 62
7
100
AcDbSpline
 70
8
 71
3
 72
8
 73
4
 74
0
 40
0
 40
0
 40
0
 40
0
 40
1
 40
1
 40
1
 40
1
 10
497.231350
 20
150.532038
 30
0.0
 10
498.468954
 20
151.246570
 30
0.0
 10
499.231350
 20
152.567078
 30
0.0
 10
499.231350
 20
153.996140
 30
0.0
  0
LWPOLYLINE
  5
212
100
AcDbEntity
  8
Calque_1
 62
5
100
AcDbPolyline
 90
3
 70
0
 10
496.265310
 20
150.137400
 30
0.0
 10
502.360310
 20
127.390640
 30
0.0
 10
526.326030
 20
127.390640
 30
0.0
  0
LWPOLYLINE
  5
213
100
AcDbEntity
  8
Calque_1
 62
7
100
AcDbPolyline
 90
1
 70
1
 10
499.231350
 20
153.996140
 30
0.0
  0
LWPOLYLINE
  5
214
100
AcDbEntity
  8
Calque_1
 62
5
100
AcDbPolyline
 90
4
 70
1
 10
383.948460
 20
192.761180
 30
0.0
 10
473.848721
 20
192.761180
 30
0.0
 10
473.848721
 20
155.616809
 30
0.0
 10
383.948460
 20
155.616809
 30
0.0
  0
LWPOLYLINE
  5
215
100
AcDbEntity
  8
Calque_1
 62
5
100
AcDbPolyline
 90
4
 70
1
 10
-16.177376
 20
204.069344
 30
0.0
 10
594.480954
 20
204.069344
 30
0.0
 10
594.480954
 20
-6.009816
 30
0.0
 10
-16.177376
 20
-6.009816
 30
0.0
  0
ENDSEC
  0
SECTION
  2
OBJECTS
  0
DICTIONARY
  5
C
330
0
100
AcDbDictionary
  3
ACAD_GROUP
350
D
  3
ACAD_MLINESTYLE
350
17
  0
DICTIONARY
  5
D
330
C
100
AcDbDictionary
  0
DICTIONARY
  5
1A
330
C
100
AcDbDictionary
  0
DICTIONARY
  5
17
330
C
100
AcDbDictionary
  3
STANDARD
350
18
  0
DICTIONARY
  5
19
330
C
100
AcDbDictionary
  0
ENDSEC
  0
EOF
