<?xml version="1.0" encoding="UTF-8" standalone="no"?>
<!-- Created with Inkscape (http://www.inkscape.org/) -->

<svg
   xmlns:dc="http://purl.org/dc/elements/1.1/"
   xmlns:cc="http://creativecommons.org/ns#"
   xmlns:rdf="http://www.w3.org/1999/02/22-rdf-syntax-ns#"
   xmlns:svg="http://www.w3.org/2000/svg"
   xmlns="http://www.w3.org/2000/svg"
   xmlns:sodipodi="http://sodipodi.sourceforge.net/DTD/sodipodi-0.dtd"
   xmlns:inkscape="http://www.inkscape.org/namespaces/inkscape"
   width="210mm"
   height="297mm"
   viewBox="0 0 210 296.99999"
   version="1.1"
   id="svg8"
   inkscape:version="0.92.3 (2405546, 2018-03-11)"
   sodipodi:docname="parts.svg">
  <defs
     id="defs2" />
  <sodipodi:namedview
     id="base"
     pagecolor="#ffffff"
     bordercolor="#666666"
     borderopacity="1.0"
     inkscape:pageopacity="0.0"
     inkscape:pageshadow="2"
     inkscape:zoom="0.25"
     inkscape:cx="1996.5692"
     inkscape:cy="14.457924"
     inkscape:document-units="mm"
     inkscape:current-layer="layer1"
     showgrid="false"
     inkscape:snap-global="true"
     inkscape:snap-bbox="true"
     inkscape:bbox-nodes="true"
     inkscape:window-width="1920"
     inkscape:window-height="1017"
     inkscape:window-x="1912"
     inkscape:window-y="-8"
     inkscape:window-maximized="1" />
  <metadata
     id="metadata5">
    <rdf:RDF>
      <cc:Work
         rdf:about="">
        <dc:format>image/svg+xml</dc:format>
        <dc:type
           rdf:resource="http://purl.org/dc/dcmitype/StillImage" />
        <dc:title></dc:title>
      </cc:Work>
    </rdf:RDF>
  </metadata>
  <g
     inkscape:label="Calque 1"
     inkscape:groupmode="layer"
     id="layer1">
    <circle
       style="fill:#64ff64;fill-opacity:1;stroke:none;stroke-width:0.26458332"
       id="path832-7-7-3-3-0"
       cx="106.77192"
       cy="-252.10097"
       transform="scale(1,-1)"
       r="9" />
    <rect
       id="rect10-7"
       width="80"
       height="36.199997"
       x="0"
       y="-297"
       style="fill:#18ca49;fill-opacity:1;stroke:none;stroke-width:0.17527878"
       transform="scale(1,-1)" />
    <rect
       id="rect10"
       width="71.5"
       height="27.5"
       x="4.3000002"
       y="-293.30002"
       style="fill:#9696ff;fill-opacity:1;stroke:none;stroke-width:0.1752788"
       transform="scale(1,-1)" />
    <circle
       style="fill:#000003;fill-opacity:1;stroke:none;stroke-width:0.26458332"
       id="path832"
       cx="2.5"
       cy="294.5"
       r="1.4499999" />
    <circle
       style="fill:#000003;fill-opacity:1;stroke:none;stroke-width:0.26458332"
       id="path832-7"
       cx="2.5"
       cy="263.29999"
       r="1.4499999" />
    <circle
       style="fill:#000003;fill-opacity:1;stroke:none;stroke-width:0.26458332"
       id="path832-0"
       cx="77.5"
       cy="263.29999"
       r="1.4499999" />
    <circle
       style="fill:#000003;fill-opacity:1;stroke:none;stroke-width:0.26458332"
       id="path832-1"
       cx="77.5"
       cy="294.5"
       r="1.4499999" />
    <rect
       id="rect10-1"
       width="17.5"
       height="45"
       x="53.154999"
       y="185.99998"
       style="fill:#ff0000;fill-opacity:1;stroke:none;stroke-width:0.1752788" />
    <circle
       style="fill:#000003;fill-opacity:1;stroke:none;stroke-width:0.26458332"
       id="path832-7-7"
       cx="61.904987"
       cy="-212.99998"
       r="6"
       transform="scale(1,-1)" />
    <rect
       id="rect10-1-9"
       width="17.5"
       height="28"
       x="101.53734"
       y="196.88658"
       style="fill:#757575;fill-opacity:1;stroke:none;stroke-width:0.1752788" />
    <circle
       style="fill:#000003;fill-opacity:1;stroke:none;stroke-width:0.26458332"
       id="path832-7-7-3"
       cx="110.28734"
       cy="-210.88658"
       r="6"
       transform="scale(1,-1)" />
    <circle
       style="fill:#000003;fill-opacity:1;stroke:none;stroke-width:0.26458332"
       id="path832-7-7-3-3"
       cx="106.77192"
       cy="-252.10098"
       transform="scale(1,-1)"
       r="8" />
    <rect
       style="fill:#0000ff;fill-opacity:1;stroke:none;stroke-width:0.26458332"
       id="rect4669"
       width="45"
       height="45"
       x="50"
       y="107" />
    <rect
       style="fill:#00ff00;fill-opacity:1;stroke:none;stroke-width:0.26458332"
       id="rect4669-5"
       width="42.599998"
       height="42.599998"
       x="51.200001"
       y="108.2" />
    <circle
       style="fill:#000003;fill-opacity:1;stroke:none;stroke-width:0.26458332"
       id="path832-7-7-3-3-08"
       cx="72.5"
       cy="-130.2"
       transform="scale(1,-1)"
       r="19" />
    <circle
       style="fill:#000003;fill-opacity:1;stroke:none;stroke-width:0.26458332"
       id="path832-7-0"
       cx="53.400002"
       cy="148.60001"
       r="1.5" />
    <circle
       style="fill:#000003;fill-opacity:1;stroke:none;stroke-width:0.26458332"
       id="path832-7-0-4"
       cx="91.599998"
       cy="148.60001"
       r="1.5" />
    <rect
       style="fill:#000000;fill-opacity:1;stroke:none;stroke-width:0.26458332"
       id="rect4716"
       width="2.5"
       height="112"
       x="136.5"
       y="23.000021" />
    <circle
       style="fill:#000003;fill-opacity:1;stroke:none;stroke-width:0.26458332"
       id="path832-7-0-4-0"
       cx="137.25"
       cy="19.25"
       r="1.25" />
    <circle
       style="fill:#000003;fill-opacity:1;stroke:none;stroke-width:0.26458332"
       id="path832-7-0-4-0-7"
       cx="137.25"
       cy="138.75"
       r="1.25" />
    <circle
       style="fill:#000003;fill-opacity:1;stroke:none;stroke-width:0.26458332"
       id="path832-7-7-3-3-08-1"
       cx="157.38885"
       cy="-47.00227"
       transform="scale(1,-1)"
       r="4" />
    <circle
       style="fill:#000003;fill-opacity:1;stroke:none;stroke-width:0.26458332"
       id="path832-7-7-3-3-08-1-6"
       cx="44.67923"
       cy="-18.60434"
       transform="scale(1,-1)"
       r="18.5" />
    <circle
       style="fill:#000003;fill-opacity:1;stroke:none;stroke-width:0.26458332"
       id="path832-7-0-4-0-6"
       cx="28.429228"
       cy="34.85434"
       r="1.25" />
    <circle
       style="fill:#000003;fill-opacity:1;stroke:none;stroke-width:0.26458332"
       id="path832-7-0-4-0-5"
       cx="60.929226"
       cy="34.85434"
       r="1.25" />
    <circle
       style="fill:#000003;fill-opacity:1;stroke:none;stroke-width:0.26458332"
       id="path832-7-0-4-0-6-5"
       cx="28.429228"
       cy="2.3543406"
       r="1.25" />
    <circle
       style="fill:#000003;fill-opacity:1;stroke:none;stroke-width:0.26458332"
       id="path832-7-0-4-0-6-5-9"
       cx="60.929226"
       cy="2.3543406"
       r="1.25" />
    <rect
       style="fill:#000000;fill-opacity:1;stroke:none;stroke-width:0.26458332"
       id="rect4716-8"
       width="2.5"
       height="112"
       x="365.5"
       y="35.000031" />
    <circle
       style="fill:#000003;fill-opacity:1;stroke:none;stroke-width:0.26458332"
       id="path832-7-0-4-0-2"
       cx="366.25"
       cy="31.250006"
       r="1.25" />
    <circle
       style="fill:#000003;fill-opacity:1;stroke:none;stroke-width:0.26458332"
       id="path832-7-0-4-0-7-6"
       cx="366.25"
       cy="150.75"
       r="1.25" />
    <circle
       style="fill:#64ff64;fill-opacity:1;stroke:none;stroke-width:0.26458332"
       id="path832-7-7-3-3-0-3"
       cx="339"
       cy="-143"
       transform="scale(1,-1)"
       r="9" />
    <circle
       style="fill:#000003;fill-opacity:1;stroke:none;stroke-width:0.26458332"
       id="path832-7-7-3-3-4"
       cx="339"
       cy="-143.00003"
       transform="scale(1,-1)"
       r="8" />
    <circle
       style="fill:#64ff64;fill-opacity:1;stroke:none;stroke-width:0.26458332"
       id="path832-7-7-3-3-0-3-1"
       cx="339"
       cy="-39"
       transform="scale(1,-1)"
       r="9" />
    <circle
       style="fill:#000003;fill-opacity:1;stroke:none;stroke-width:0.26458332"
       id="path832-7-7-3-3-4-2"
       cx="339"
       cy="-39.000031"
       transform="scale(1,-1)"
       r="8" />
    <rect
       id="rect10-1-1"
       width="17.5"
       height="45"
       x="421.25308"
       y="29.681114"
       style="fill:#ff0000;fill-opacity:1;stroke:none;stroke-width:0.1752788" />
    <circle
       style="fill:#000003;fill-opacity:1;stroke:none;stroke-width:0.26458332"
       id="path832-7-7-6"
       cx="430.00308"
       cy="-56.681114"
       r="6"
       transform="scale(1,-1)" />
    <rect
       id="rect10-1-7"
       width="17.5"
       height="45"
       x="421.25308"
       y="80.961945"
       style="fill:#ff0000;fill-opacity:1;stroke:none;stroke-width:0.1752788" />
    <circle
       style="fill:#000003;fill-opacity:1;stroke:none;stroke-width:0.26458332"
       id="path832-7-7-0"
       cx="430.00308"
       cy="-107.96194"
       r="6"
       transform="scale(1,-1)" />
    <circle
       style="fill:#64ff64;fill-opacity:1;stroke:none;stroke-width:0.26458332"
       id="path832-7-7-3-3-0-3-4"
       cx="430.00308"
       cy="-143"
       transform="scale(1,-1)"
       r="9" />
    <circle
       style="fill:#000003;fill-opacity:1;stroke:none;stroke-width:0.26458332"
       id="path832-7-7-3-3-4-0"
       cx="430.00308"
       cy="-143.00003"
       transform="scale(1,-1)"
       r="8" />
    <circle
       style="fill:#64ff64;fill-opacity:1;stroke:none;stroke-width:0.26458332"
       id="path832-7-7-3-3-0-3-4-9"
       cx="68.000008"
       cy="479"
       transform="matrix(0,1,1,0,0,0)"
       r="9" />
    <circle
       style="fill:#000003;fill-opacity:1;stroke:none;stroke-width:0.26458332"
       id="path832-7-7-3-3-4-0-6"
       cx="68.000008"
       cy="479"
       transform="matrix(0,1,1,0,0,0)"
       r="8" />
    <circle
       style="fill:#64ff64;fill-opacity:1;stroke:none;stroke-width:0.26458332"
       id="path832-7-7-3-3-0-3-4-0"
       cx="93.471008"
       cy="479"
       transform="matrix(0,1,1,0,0,0)"
       r="9" />
    <circle
       style="fill:#000003;fill-opacity:1;stroke:none;stroke-width:0.26458332"
       id="path832-7-7-3-3-4-0-4"
       cx="93.471008"
       cy="479"
       transform="matrix(0,1,1,0,0,0)"
       r="8" />
    <circle
       style="fill:#64ff64;fill-opacity:1;stroke:none;stroke-width:0.26458332"
       id="path832-7-7-3-3-0-3-4-09"
       cx="118"
       cy="479"
       transform="matrix(0,1,1,0,0,0)"
       r="9" />
    <circle
       style="fill:#000003;fill-opacity:1;stroke:none;stroke-width:0.26458332"
       id="path832-7-7-3-3-4-0-2"
       cx="118"
       cy="479"
       transform="matrix(0,1,1,0,0,0)"
       r="8" />
    <circle
       style="fill:#64ff64;fill-opacity:1;stroke:none;stroke-width:0.26458332"
       id="path832-7-7-3-3-0-3-4-93"
       cx="143"
       cy="479"
       transform="matrix(0,1,1,0,0,0)"
       r="9" />
    <circle
       style="fill:#000003;fill-opacity:1;stroke:none;stroke-width:0.26458332"
       id="path832-7-7-3-3-4-0-3"
       cx="143"
       cy="479"
       transform="matrix(0,1,1,0,0,0)"
       r="8" />
    <circle
       style="fill:#64ff64;fill-opacity:1;stroke:none;stroke-width:0.26458332"
       id="path832-7-7-3-3-0-3-4-4"
       cx="43.000004"
       cy="479"
       transform="matrix(0,1,1,0,0,0)"
       r="9" />
    <circle
       style="fill:#000003;fill-opacity:1;stroke:none;stroke-width:0.26458332"
       id="path832-7-7-3-3-4-0-48"
       cx="43.000004"
       cy="479"
       transform="matrix(0,1,1,0,0,0)"
       r="8" />
    <circle
       style="fill:#64ff64;fill-opacity:1;stroke:none;stroke-width:0.26458332"
       id="path832-7-7-3-3-0-3-4-9-6"
       cx="68.000008"
       cy="504"
       transform="matrix(0,1,1,0,0,0)"
       r="9" />
    <circle
       style="fill:#000003;fill-opacity:1;stroke:none;stroke-width:0.26458332"
       id="path832-7-7-3-3-4-0-6-5"
       cx="68.000008"
       cy="504"
       transform="matrix(0,1,1,0,0,0)"
       r="8" />
    <circle
       style="fill:#64ff64;fill-opacity:1;stroke:none;stroke-width:0.26458332"
       id="path832-7-7-3-3-0-3-4-0-3"
       cx="93.471008"
       cy="504"
       transform="matrix(0,1,1,0,0,0)"
       r="9" />
    <circle
       style="fill:#000003;fill-opacity:1;stroke:none;stroke-width:0.26458332"
       id="path832-7-7-3-3-4-0-4-0"
       cx="93.471008"
       cy="504"
       transform="matrix(0,1,1,0,0,0)"
       r="8" />
    <circle
       style="fill:#64ff64;fill-opacity:1;stroke:none;stroke-width:0.26458332"
       id="path832-7-7-3-3-0-3-4-09-5"
       cx="118"
       cy="504"
       transform="matrix(0,1,1,0,0,0)"
       r="9" />
    <circle
       style="fill:#000003;fill-opacity:1;stroke:none;stroke-width:0.26458332"
       id="path832-7-7-3-3-4-0-2-6"
       cx="118"
       cy="504"
       transform="matrix(0,1,1,0,0,0)"
       r="8" />
    <circle
       style="fill:#64ff64;fill-opacity:1;stroke:none;stroke-width:0.26458332"
       id="path832-7-7-3-3-0-3-4-93-3"
       cx="143"
       cy="504"
       transform="matrix(0,1,1,0,0,0)"
       r="9" />
    <circle
       style="fill:#000003;fill-opacity:1;stroke:none;stroke-width:0.26458332"
       id="path832-7-7-3-3-4-0-3-5"
       cx="143"
       cy="504"
       transform="matrix(0,1,1,0,0,0)"
       r="8" />
    <circle
       style="fill:#64ff64;fill-opacity:1;stroke:none;stroke-width:0.26458332"
       id="path832-7-7-3-3-0-3-4-4-2"
       cx="43.000004"
       cy="504"
       transform="matrix(0,1,1,0,0,0)"
       r="9" />
    <circle
       style="fill:#000003;fill-opacity:1;stroke:none;stroke-width:0.26458332"
       id="path832-7-7-3-3-4-0-48-8"
       cx="43.000004"
       cy="504"
       transform="matrix(0,1,1,0,0,0)"
       r="8" />
    <circle
       style="fill:#64ff64;fill-opacity:1;stroke:none;stroke-width:0.26458332"
       id="path832-7-7-3-3-0-3-4-0-3-7"
       cx="93.471001"
       cy="549"
       transform="matrix(0,1,1,0,0,0)"
       r="9" />
    <circle
       style="fill:#000003;fill-opacity:1;stroke:none;stroke-width:0.26458332"
       id="path832-7-7-3-3-4-0-4-0-7"
       cx="93.471001"
       cy="549"
       transform="matrix(0,1,1,0,0,0)"
       r="8" />
    <circle
       style="fill:#64ff64;fill-opacity:1;stroke:none;stroke-width:0.26458332"
       id="path832-7-7-3-3-0-3-4-09-5-1"
       cx="118"
       cy="549"
       transform="matrix(0,1,1,0,0,0)"
       r="9" />
    <circle
       style="fill:#000003;fill-opacity:1;stroke:none;stroke-width:0.26458332"
       id="path832-7-7-3-3-4-0-2-6-1"
       cx="118"
       cy="549"
       transform="matrix(0,1,1,0,0,0)"
       r="8" />
    <circle
       style="fill:#64ff64;fill-opacity:1;stroke:none;stroke-width:0.26458332"
       id="path832-7-7-3-3-0-3-4-93-3-6"
       cx="143"
       cy="549"
       transform="matrix(0,1,1,0,0,0)"
       r="9" />
    <circle
       style="fill:#000003;fill-opacity:1;stroke:none;stroke-width:0.26458332"
       id="path832-7-7-3-3-4-0-3-5-7"
       cx="143"
       cy="549"
       transform="matrix(0,1,1,0,0,0)"
       r="8" />
    <rect
       id="rect10-1-9-8"
       width="17.5"
       height="27.999998"
       x="585.25"
       y="24.000002"
       style="fill:#757575;fill-opacity:1;stroke:none;stroke-width:0.1752788" />
    <circle
       style="fill:#000003;fill-opacity:1;stroke:none;stroke-width:0.26458332"
       id="path832-7-7-3-2"
       cx="594"
       cy="-38.000004"
       r="6"
       transform="scale(1,-1)" />
    <rect
       id="rect10-1-9-8-3"
       width="17.5"
       height="27.999998"
       x="540.25"
       y="24.000002"
       style="fill:#757575;fill-opacity:1;stroke:none;stroke-width:0.1752788" />
    <circle
       style="fill:#000003;fill-opacity:1;stroke:none;stroke-width:0.26458332"
       id="path832-7-7-3-2-1"
       cx="549"
       cy="-38.000004"
       r="6"
       transform="scale(1,-1)" />
    <circle
       style="fill:#64ff64;fill-opacity:1;stroke:none;stroke-width:0.26458332"
       id="path832-7-7-3-3-0-3-4-9-1"
       cx="68.000015"
       cy="594"
       transform="matrix(0,1,1,0,0,0)"
       r="9" />
    <circle
       style="fill:#000003;fill-opacity:1;stroke:none;stroke-width:0.26458332"
       id="path832-7-7-3-3-4-0-6-4"
       cx="68.000015"
       cy="594"
       transform="matrix(0,1,1,0,0,0)"
       r="8" />
    <circle
       style="fill:#64ff64;fill-opacity:1;stroke:none;stroke-width:0.26458332"
       id="path832-7-7-3-3-0-3-4-0-7"
       cx="93.471016"
       cy="594"
       transform="matrix(0,1,1,0,0,0)"
       r="9" />
    <circle
       style="fill:#000003;fill-opacity:1;stroke:none;stroke-width:0.26458332"
       id="path832-7-7-3-3-4-0-4-9"
       cx="93.471016"
       cy="594"
       transform="matrix(0,1,1,0,0,0)"
       r="8" />
    <circle
       style="fill:#64ff64;fill-opacity:1;stroke:none;stroke-width:0.26458332"
       id="path832-7-7-3-3-0-3-4-09-1"
       cx="118"
       cy="594"
       transform="matrix(0,1,1,0,0,0)"
       r="9" />
    <circle
       style="fill:#000003;fill-opacity:1;stroke:none;stroke-width:0.26458332"
       id="path832-7-7-3-3-4-0-2-9"
       cx="118"
       cy="594"
       transform="matrix(0,1,1,0,0,0)"
       r="8" />
    <circle
       style="fill:#64ff64;fill-opacity:1;stroke:none;stroke-width:0.26458332"
       id="path832-7-7-3-3-0-3-4-93-2"
       cx="143"
       cy="594"
       transform="matrix(0,1,1,0,0,0)"
       r="9" />
    <circle
       style="fill:#000003;fill-opacity:1;stroke:none;stroke-width:0.26458332"
       id="path832-7-7-3-3-4-0-3-0"
       cx="143"
       cy="594"
       transform="matrix(0,1,1,0,0,0)"
       r="8" />
    <circle
       style="fill:#64ff64;fill-opacity:1;stroke:none;stroke-width:0.26458332"
       id="path832-7-7-3-3-0-3-4-9-6-4"
       cx="68.000015"
       cy="619"
       transform="matrix(0,1,1,0,0,0)"
       r="9" />
    <circle
       style="fill:#000003;fill-opacity:1;stroke:none;stroke-width:0.26458332"
       id="path832-7-7-3-3-4-0-6-5-7"
       cx="68.000015"
       cy="619"
       transform="matrix(0,1,1,0,0,0)"
       r="8" />
    <circle
       style="fill:#64ff64;fill-opacity:1;stroke:none;stroke-width:0.26458332"
       id="path832-7-7-3-3-0-3-4-0-3-8"
       cx="93.471016"
       cy="619"
       transform="matrix(0,1,1,0,0,0)"
       r="9" />
    <circle
       style="fill:#000003;fill-opacity:1;stroke:none;stroke-width:0.26458332"
       id="path832-7-7-3-3-4-0-4-0-4"
       cx="93.471016"
       cy="619"
       transform="matrix(0,1,1,0,0,0)"
       r="8" />
    <circle
       style="fill:#64ff64;fill-opacity:1;stroke:none;stroke-width:0.26458332"
       id="path832-7-7-3-3-0-3-4-09-5-7"
       cx="118"
       cy="619"
       transform="matrix(0,1,1,0,0,0)"
       r="9" />
    <circle
       style="fill:#000003;fill-opacity:1;stroke:none;stroke-width:0.26458332"
       id="path832-7-7-3-3-4-0-2-6-4"
       cx="118"
       cy="619"
       transform="matrix(0,1,1,0,0,0)"
       r="8" />
    <circle
       style="fill:#64ff64;fill-opacity:1;stroke:none;stroke-width:0.26458332"
       id="path832-7-7-3-3-0-3-4-93-3-1"
       cx="143"
       cy="619"
       transform="matrix(0,1,1,0,0,0)"
       r="9" />
    <circle
       style="fill:#000003;fill-opacity:1;stroke:none;stroke-width:0.26458332"
       id="path832-7-7-3-3-4-0-3-5-6"
       cx="143"
       cy="619"
       transform="matrix(0,1,1,0,0,0)"
       r="8" />
    <rect
       id="rect10-7-7"
       width="80"
       height="36.200001"
       x="660"
       y="-152"
       style="fill:#18ca49;fill-opacity:1;stroke:none;stroke-width:0.17527878"
       transform="scale(1,-1)" />
    <rect
       id="rect10-9"
       width="71.500008"
       height="27.500002"
       x="664.29999"
       y="-148.30002"
       style="fill:#9696ff;fill-opacity:1;stroke:none;stroke-width:0.1752788"
       transform="scale(1,-1)" />
    <circle
       style="fill:#000003;fill-opacity:1;stroke:none;stroke-width:0.26458332"
       id="path832-8"
       cx="662.5"
       cy="149.5"
       r="1.4499999" />
    <circle
       style="fill:#000003;fill-opacity:1;stroke:none;stroke-width:0.26458332"
       id="path832-7-8"
       cx="662.5"
       cy="118.3"
       r="1.4499999" />
    <circle
       style="fill:#000003;fill-opacity:1;stroke:none;stroke-width:0.26458332"
       id="path832-0-1"
       cx="737.5"
       cy="118.3"
       r="1.4499999" />
    <circle
       style="fill:#000003;fill-opacity:1;stroke:none;stroke-width:0.26458332"
       id="path832-1-9"
       cx="737.5"
       cy="149.5"
       r="1.4499999" />
    <rect
       id="rect10-7-7-4"
       width="80"
       height="36.200005"
       x="660"
       y="-102"
       style="fill:#18ca49;fill-opacity:1;stroke:none;stroke-width:0.17527878"
       transform="scale(1,-1)" />
    <rect
       id="rect10-9-4"
       width="71.500015"
       height="27.500004"
       x="664.29999"
       y="-98.300018"
       style="fill:#9696ff;fill-opacity:1;stroke:none;stroke-width:0.1752788"
       transform="scale(1,-1)" />
    <circle
       style="fill:#000003;fill-opacity:1;stroke:none;stroke-width:0.26458332"
       id="path832-8-7"
       cx="662.5"
       cy="99.5"
       r="1.4499999" />
    <circle
       style="fill:#000003;fill-opacity:1;stroke:none;stroke-width:0.26458332"
       id="path832-7-8-3"
       cx="662.5"
       cy="68.300003"
       r="1.4499999" />
    <circle
       style="fill:#000003;fill-opacity:1;stroke:none;stroke-width:0.26458332"
       id="path832-0-1-6"
       cx="737.5"
       cy="68.300003"
       r="1.4499999" />
    <circle
       style="fill:#000003;fill-opacity:1;stroke:none;stroke-width:0.26458332"
       id="path832-1-9-0"
       cx="737.5"
       cy="99.5"
       r="1.4499999" />
    <circle
       style="fill:#000003;fill-opacity:1;stroke:none;stroke-width:0.26458332"
       id="path832-7-7-3-3-08-1-8"
       cx="674"
       cy="-38"
       transform="scale(1,-1)"
       r="4" />
    <circle
       style="fill:#000003;fill-opacity:1;stroke:none;stroke-width:0.26458332"
       id="path832-7-7-3-3-08-1-6-9"
       cx="778.5"
       cy="-133.5"
       transform="scale(1,-1)"
       r="18.5" />
    <circle
       style="fill:#000003;fill-opacity:1;stroke:none;stroke-width:0.26458332"
       id="path832-7-0-4-0-6-1"
       cx="762.25"
       cy="149.75"
       r="1.25" />
    <circle
       style="fill:#000003;fill-opacity:1;stroke:none;stroke-width:0.26458332"
       id="path832-7-0-4-0-5-9"
       cx="794.75"
       cy="149.75"
       r="1.25" />
    <circle
       style="fill:#000003;fill-opacity:1;stroke:none;stroke-width:0.26458332"
       id="path832-7-0-4-0-6-5-8"
       cx="762.25"
       cy="117.25001"
       r="1.25" />
    <circle
       style="fill:#000003;fill-opacity:1;stroke:none;stroke-width:0.26458332"
       id="path832-7-0-4-0-6-5-9-3"
       cx="794.75"
       cy="117.25001"
       r="1.25" />
    <rect
       style="fill:#0000ff;fill-opacity:1;stroke:none;stroke-width:0.26458332"
       id="rect4669-7"
       width="45"
       height="45"
       x="395"
       y="-38" />
    <rect
       style="fill:#00ff00;fill-opacity:1;stroke:none;stroke-width:0.26458332"
       id="rect4669-5-2"
       width="42.599998"
       height="42.599998"
       x="396.20001"
       y="-36.800003" />
    <circle
       style="fill:#000003;fill-opacity:1;stroke:none;stroke-width:0.26458332"
       id="path832-7-7-3-3-08-18"
       cx="417.5"
       cy="14.800003"
       transform="scale(1,-1)"
       r="19.000002" />
    <circle
       style="fill:#000003;fill-opacity:1;stroke:none;stroke-width:0.26458332"
       id="path832-7-0-3"
       cx="398.40002"
       cy="3.6000075"
       r="1.5" />
    <circle
       style="fill:#000003;fill-opacity:1;stroke:none;stroke-width:0.26458332"
       id="path832-7-0-4-3"
       cx="436.60001"
       cy="3.6000075"
       r="1.5" />
    <rect
       style="fill:#0000ff;fill-opacity:1;stroke:none;stroke-width:0.26458332"
       id="rect4669-8"
       width="45"
       height="45"
       x="455"
       y="-38" />
    <rect
       style="fill:#00ff00;fill-opacity:1;stroke:none;stroke-width:0.26458332"
       id="rect4669-5-0"
       width="42.599998"
       height="42.599998"
       x="456.20001"
       y="-36.800003" />
    <circle
       style="fill:#000003;fill-opacity:1;stroke:none;stroke-width:0.26458332"
       id="path832-7-7-3-3-08-0"
       cx="477.5"
       cy="14.800003"
       transform="scale(1,-1)"
       r="19.000002" />
    <circle
       style="fill:#000003;fill-opacity:1;stroke:none;stroke-width:0.26458332"
       id="path832-7-0-47"
       cx="458.40002"
       cy="3.6000113"
       r="1.5" />
    <circle
       style="fill:#000003;fill-opacity:1;stroke:none;stroke-width:0.26458332"
       id="path832-7-0-4-6"
       cx="496.60001"
       cy="3.6000113"
       r="1.5" />
    <rect
       style="fill:#0000ff;fill-opacity:1;stroke:none;stroke-width:0.26458332"
       id="rect4669-6"
       width="45"
       height="45"
       x="514.99994"
       y="-38" />
    <rect
       style="fill:#00ff00;fill-opacity:1;stroke:none;stroke-width:0.26458332"
       id="rect4669-5-3"
       width="42.599998"
       height="42.599998"
       x="516.19995"
       y="-36.800007" />
    <circle
       style="fill:#000003;fill-opacity:1;stroke:none;stroke-width:0.26458332"
       id="path832-7-7-3-3-08-9"
       cx="537.49994"
       cy="14.800007"
       transform="scale(1,-1)"
       r="19.000002" />
    <circle
       style="fill:#000003;fill-opacity:1;stroke:none;stroke-width:0.26458332"
       id="path832-7-0-2"
       cx="518.39996"
       cy="3.6000056"
       r="1.5" />
    <circle
       style="fill:#000003;fill-opacity:1;stroke:none;stroke-width:0.26458332"
       id="path832-7-0-4-5"
       cx="556.59991"
       cy="3.6000056"
       r="1.5" />
    <rect
       style="fill:#0000ff;fill-opacity:1;stroke:none;stroke-width:0.26458332"
       id="rect4669-58"
       width="45"
       height="45"
       x="574.99994"
       y="-38" />
    <rect
       style="fill:#00ff00;fill-opacity:1;stroke:none;stroke-width:0.26458332"
       id="rect4669-5-1"
       width="42.599998"
       height="42.599998"
       x="576.19995"
       y="-36.800003" />
    <circle
       style="fill:#000003;fill-opacity:1;stroke:none;stroke-width:0.26458332"
       id="path832-7-7-3-3-08-5"
       cx="597.49994"
       cy="14.800005"
       transform="scale(1,-1)"
       r="19.000002" />
    <circle
       style="fill:#000003;fill-opacity:1;stroke:none;stroke-width:0.26458332"
       id="path832-7-0-6"
       cx="578.3999"
       cy="3.6000085"
       r="1.5" />
    <circle
       style="fill:#000003;fill-opacity:1;stroke:none;stroke-width:0.26458332"
       id="path832-7-0-4-36"
       cx="616.59991"
       cy="3.6000085"
       r="1.5" />
    <rect
       style="fill:#0000ff;fill-opacity:1;stroke:none;stroke-width:0.26458332"
       id="rect4669-4"
       width="45"
       height="45"
       x="634.99994"
       y="-38" />
    <rect
       style="fill:#00ff00;fill-opacity:1;stroke:none;stroke-width:0.26458332"
       id="rect4669-5-4"
       width="42.599998"
       height="42.599998"
       x="636.19995"
       y="-36.800003" />
    <circle
       style="fill:#000003;fill-opacity:1;stroke:none;stroke-width:0.26458332"
       id="path832-7-7-3-3-08-90"
       cx="657.49994"
       cy="14.800003"
       transform="scale(1,-1)"
       r="19.000002" />
    <circle
       style="fill:#000003;fill-opacity:1;stroke:none;stroke-width:0.26458332"
       id="path832-7-0-5"
       cx="638.39996"
       cy="3.6000113"
       r="1.5" />
    <circle
       style="fill:#000003;fill-opacity:1;stroke:none;stroke-width:0.26458332"
       id="path832-7-0-4-33"
       cx="676.59998"
       cy="3.6000113"
       r="1.5" />
    <rect
       style="fill:#0000ff;fill-opacity:1;stroke:none;stroke-width:0.26458332"
       id="rect4669-0"
       width="45"
       height="45"
       x="694.99994"
       y="-38" />
    <rect
       style="fill:#00ff00;fill-opacity:1;stroke:none;stroke-width:0.26458332"
       id="rect4669-5-09"
       width="42.599998"
       height="42.599998"
       x="696.19995"
       y="-36.800003" />
    <circle
       style="fill:#000003;fill-opacity:1;stroke:none;stroke-width:0.26458332"
       id="path832-7-7-3-3-08-56"
       cx="717.49994"
       cy="14.800003"
       transform="scale(1,-1)"
       r="19.000002" />
    <circle
       style="fill:#000003;fill-opacity:1;stroke:none;stroke-width:0.26458332"
       id="path832-7-0-40"
       cx="698.3999"
       cy="3.6000113"
       r="1.5" />
    <circle
       style="fill:#000003;fill-opacity:1;stroke:none;stroke-width:0.26458332"
       id="path832-7-0-4-8"
       cx="736.59991"
       cy="3.6000113"
       r="1.5" />
  </g>
</svg>
