  0
SECTION
  2
HEADER
  9
$ACADVER
  1
AC1014
  9
$HANDSEED
  5
FFFF
  9
$MEASUREMENT
 70
     1
  0
ENDSEC
  0
SECTION
  2
TABLES
  0
TABLE
  2
VPORT
  5
8
330
0
100
AcDbSymbolTable
 70
     4
  0
VPORT
  5
2E
330
8
100
AcDbSymbolTableRecord
100
AcDbViewportTableRecord
  2
*ACTIVE
 70
     0
 10
0.0
 20
0.0
 11
1.0
 21
1.0
 12
210.0
 22
148.5
 13
0.0
 23
0.0
 14
10.0
 24
10.0
 15
10.0
 25
10.0
 16
0.0
 26
0.0
 36
1.0
 17
0.0
 27
0.0
 37
0.0
 40
341.0
 41
1.24
 42
50.0
 43
0.0
 44
0.0
 50
0.0
 51
0.0
 71
     0
 72
   100
 73
     1
 74
     3
 75
     0
 76
     0
 77
     0
 78
     0
  0
ENDTAB
  0
TABLE
  2
LTYPE
  5
5
330
0
100
AcDbSymbolTable
 70
     1
  0
LTYPE
  5
14
330
5
100
AcDbSymbolTableRecord
100
AcDbLinetypeTableRecord
  2
BYBLOCK
 70
     0
  3

 72
    65
 73
     0
 40
0.0
  0
LTYPE
  5
15
330
5
100
AcDbSymbolTableRecord
100
AcDbLinetypeTableRecord
  2
BYLAYER
 70
     0
  3

 72
    65
 73
     0
 40
0.0
  0
LTYPE
  5
16
330
5
100
AcDbSymbolTableRecord
100
AcDbLinetypeTableRecord
  2
CONTINUOUS
 70
     0
  3
Solid line
 72
    65
 73
     0
 40
0.0
  0
ENDTAB
  0
TABLE
  2
LAYER
  5
2
100
AcDbSymbolTable
 70
2
  0
LAYER
  5
50
100
AcDbSymbolTableRecord
100
AcDbLayerTableRecord
  2
0
 70
0
  6
CONTINUOUS
  0
LAYER
  5
51
100
AcDbSymbolTableRecord
100
AcDbLayerTableRecord
  2
Calque_1
 70
0
  6
CONTINUOUS
  0
ENDTAB
  0
TABLE
  2
STYLE
  5
3
330
0
100
AcDbSymbolTable
 70
     1
  0
STYLE
  5
11
330
3
100
AcDbSymbolTableRecord
100
AcDbTextStyleTableRecord
  2
STANDARD
 70
     0
 40
0.0
 41
1.0
 50
0.0
 71
     0
 42
2.5
  3
txt
  4

  0
ENDTAB
  0
TABLE
  2
VIEW
  5
6
330
0
100
AcDbSymbolTable
 70
     0
  0
ENDTAB
  0
TABLE
  2
UCS
  5
7
330
0
100
AcDbSymbolTable
 70
     0
  0
ENDTAB
  0
TABLE
  2
APPID
  5
9
330
0
100
AcDbSymbolTable
 70
     2
  0
APPID
  5
12
330
9
100
AcDbSymbolTableRecord
100
AcDbRegAppTableRecord
  2
ACAD
 70
     0
  0
ENDTAB
  0
TABLE
  2
DIMSTYLE
  5
A
330
0
100
AcDbSymbolTable
 70
     1
  0
DIMSTYLE
105
27
330
A
100
AcDbSymbolTableRecord
100
AcDbDimStyleTableRecord
  2
ISO-25
 70
     0
  3

  4

  5

  6

  7

 40
1.0
 41
2.5
 42
0.625
 43
3.75
 44
1.25
 45
0.0
 46
0.0
 47
0.0
 48
0.0
140
2.5
141
2.5
142
0.0
143
0.03937007874016
144
1.0
145
0.0
146
1.0
147
0.625
 71
     0
 72
     0
 73
     0
 74
     0
 75
     0
 76
     0
 77
     1
 78
     8
170
     0
171
     3
172
     1
173
     0
174
     0
175
     0
176
     0
177
     0
178
     0
270
     2
271
     2
272
     2
273
     2
274
     3
340
11
275
     0
280
     0
281
     0
282
     0
283
     0
284
     8
285
     0
286
     0
287
     3
288
     0
  0
ENDTAB
  0
TABLE
  2
BLOCK_RECORD
  5
1
330
0
100
AcDbSymbolTable
 70
     1
  0
BLOCK_RECORD
  5
1F
330
1
100
AcDbSymbolTableRecord
100
AcDbBlockTableRecord
  2
*MODEL_SPACE
  0
BLOCK_RECORD
  5
1B
330
1
100
AcDbSymbolTableRecord
100
AcDbBlockTableRecord
  2
*PAPER_SPACE
  0
ENDTAB
  0
ENDSEC
  0
SECTION
  2
BLOCKS
  0
BLOCK
  5
20
330
1F
100
AcDbEntity
  8
0
100
AcDbBlockBegin
  2
*MODEL_SPACE
 70
     0
 10
0.0
 20
0.0
 30
0.0
  3
*MODEL_SPACE
  1

  0
ENDBLK
  5
21
330
1F
100
AcDbEntity
  8
0
100
AcDbBlockEnd
  0
BLOCK
  5
1C
330
1B
100
AcDbEntity
 67
     1
  8
0
100
AcDbBlockBegin
  2
*PAPER_SPACE
  1

  0
ENDBLK
  5
1D
330
1B
100
AcDbEntity
 67
     1
  8
0
100
AcDbBlockEnd
  0
ENDSEC
  0
SECTION
  2
ENTITIES
  0
SPLINE
  5
100
100
AcDbEntity
  8
Calque_1
 62
7
100
AcDbSpline
 70
8
 71
3
 72
8
 73
4
 74
0
 40
0
 40
0
 40
0
 40
0
 40
1
 40
1
 40
1
 40
1
 10
226.564350
 20
52.185990
 30
0.0
 10
226.564350
 20
58.795403
 30
0.0
 10
223.038270
 20
64.902753
 30
0.0
 10
217.314350
 20
68.207460
 30
0.0
  0
SPLINE
  5
101
100
AcDbEntity
  8
Calque_1
 62
7
100
AcDbSpline
 70
8
 71
3
 72
8
 73
4
 74
0
 40
0
 40
0
 40
0
 40
0
 40
1
 40
1
 40
1
 40
1
 10
217.314350
 20
68.207460
 30
0.0
 10
211.590430
 20
71.512167
 30
0.0
 10
204.538270
 20
71.512167
 30
0.0
 10
198.814350
 20
68.207460
 30
0.0
  0
SPLINE
  5
102
100
AcDbEntity
  8
Calque_1
 62
7
100
AcDbSpline
 70
8
 71
3
 72
8
 73
4
 74
0
 40
0
 40
0
 40
0
 40
0
 40
1
 40
1
 40
1
 40
1
 10
198.814350
 20
68.207460
 30
0.0
 10
193.090430
 20
64.902753
 30
0.0
 10
189.564350
 20
58.795403
 30
0.0
 10
189.564350
 20
52.185990
 30
0.0
  0
SPLINE
  5
103
100
AcDbEntity
  8
Calque_1
 62
7
100
AcDbSpline
 70
8
 71
3
 72
8
 73
4
 74
0
 40
0
 40
0
 40
0
 40
0
 40
1
 40
1
 40
1
 40
1
 10
189.564350
 20
52.185990
 30
0.0
 10
189.564350
 20
45.576577
 30
0.0
 10
193.090430
 20
39.469227
 30
0.0
 10
198.814350
 20
36.164520
 30
0.0
  0
SPLINE
  5
104
100
AcDbEntity
  8
Calque_1
 62
7
100
AcDbSpline
 70
8
 71
3
 72
8
 73
4
 74
0
 40
0
 40
0
 40
0
 40
0
 40
1
 40
1
 40
1
 40
1
 10
198.814350
 20
36.164520
 30
0.0
 10
204.538270
 20
32.859813
 30
0.0
 10
211.590430
 20
32.859813
 30
0.0
 10
217.314350
 20
36.164520
 30
0.0
  0
SPLINE
  5
105
100
AcDbEntity
  8
Calque_1
 62
7
100
AcDbSpline
 70
8
 71
3
 72
8
 73
4
 74
0
 40
0
 40
0
 40
0
 40
0
 40
1
 40
1
 40
1
 40
1
 10
217.314350
 20
36.164520
 30
0.0
 10
223.038270
 20
39.469227
 30
0.0
 10
226.564350
 20
45.576577
 30
0.0
 10
226.564350
 20
52.185990
 30
0.0
  0
SPLINE
  5
106
100
AcDbEntity
  8
Calque_1
 62
7
100
AcDbSpline
 70
8
 71
3
 72
8
 73
4
 74
0
 40
0
 40
0
 40
0
 40
0
 40
1
 40
1
 40
1
 40
1
 10
193.064350
 20
35.936000
 30
0.0
 10
193.064350
 20
35.489418
 30
0.0
 10
192.826101
 20
35.076759
 30
0.0
 10
192.439350
 20
34.853468
 30
0.0
  0
SPLINE
  5
107
100
AcDbEntity
  8
Calque_1
 62
7
100
AcDbSpline
 70
8
 71
3
 72
8
 73
4
 74
0
 40
0
 40
0
 40
0
 40
0
 40
1
 40
1
 40
1
 40
1
 10
192.439350
 20
34.853468
 30
0.0
 10
192.052599
 20
34.630177
 30
0.0
 10
191.576101
 20
34.630177
 30
0.0
 10
191.189350
 20
34.853468
 30
0.0
  0
SPLINE
  5
108
100
AcDbEntity
  8
Calque_1
 62
7
100
AcDbSpline
 70
8
 71
3
 72
8
 73
4
 74
0
 40
0
 40
0
 40
0
 40
0
 40
1
 40
1
 40
1
 40
1
 10
191.189350
 20
34.853468
 30
0.0
 10
190.802599
 20
35.076759
 30
0.0
 10
190.564350
 20
35.489418
 30
0.0
 10
190.564350
 20
35.936000
 30
0.0
  0
SPLINE
  5
109
100
AcDbEntity
  8
Calque_1
 62
7
100
AcDbSpline
 70
8
 71
3
 72
8
 73
4
 74
0
 40
0
 40
0
 40
0
 40
0
 40
1
 40
1
 40
1
 40
1
 10
190.564350
 20
35.936000
 30
0.0
 10
190.564350
 20
36.382582
 30
0.0
 10
190.802599
 20
36.795241
 30
0.0
 10
191.189350
 20
37.018532
 30
0.0
  0
SPLINE
  5
10a
100
AcDbEntity
  8
Calque_1
 62
7
100
AcDbSpline
 70
8
 71
3
 72
8
 73
4
 74
0
 40
0
 40
0
 40
0
 40
0
 40
1
 40
1
 40
1
 40
1
 10
191.189350
 20
37.018532
 30
0.0
 10
191.576101
 20
37.241823
 30
0.0
 10
192.052599
 20
37.241823
 30
0.0
 10
192.439350
 20
37.018532
 30
0.0
  0
SPLINE
  5
10b
100
AcDbEntity
  8
Calque_1
 62
7
100
AcDbSpline
 70
8
 71
3
 72
8
 73
4
 74
0
 40
0
 40
0
 40
0
 40
0
 40
1
 40
1
 40
1
 40
1
 10
192.439350
 20
37.018532
 30
0.0
 10
192.826101
 20
36.795241
 30
0.0
 10
193.064350
 20
36.382582
 30
0.0
 10
193.064350
 20
35.936000
 30
0.0
  0
LWPOLYLINE
  5
10c
100
AcDbEntity
  8
Calque_1
 62
7
100
AcDbPolyline
 90
1
 70
1
 10
226.564350
 20
52.185990
 30
0.0
  0
SPLINE
  5
10d
100
AcDbEntity
  8
Calque_1
 62
7
100
AcDbSpline
 70
8
 71
3
 72
8
 73
4
 74
0
 40
0
 40
0
 40
0
 40
0
 40
1
 40
1
 40
1
 40
1
 10
225.564350
 20
35.936000
 30
0.0
 10
225.564350
 20
35.489418
 30
0.0
 10
225.326101
 20
35.076759
 30
0.0
 10
224.939350
 20
34.853468
 30
0.0
  0
SPLINE
  5
10e
100
AcDbEntity
  8
Calque_1
 62
7
100
AcDbSpline
 70
8
 71
3
 72
8
 73
4
 74
0
 40
0
 40
0
 40
0
 40
0
 40
1
 40
1
 40
1
 40
1
 10
224.939350
 20
34.853468
 30
0.0
 10
224.552599
 20
34.630177
 30
0.0
 10
224.076101
 20
34.630177
 30
0.0
 10
223.689350
 20
34.853468
 30
0.0
  0
SPLINE
  5
10f
100
AcDbEntity
  8
Calque_1
 62
7
100
AcDbSpline
 70
8
 71
3
 72
8
 73
4
 74
0
 40
0
 40
0
 40
0
 40
0
 40
1
 40
1
 40
1
 40
1
 10
223.689350
 20
34.853468
 30
0.0
 10
223.302599
 20
35.076759
 30
0.0
 10
223.064350
 20
35.489418
 30
0.0
 10
223.064350
 20
35.936000
 30
0.0
  0
SPLINE
  5
110
100
AcDbEntity
  8
Calque_1
 62
7
100
AcDbSpline
 70
8
 71
3
 72
8
 73
4
 74
0
 40
0
 40
0
 40
0
 40
0
 40
1
 40
1
 40
1
 40
1
 10
223.064350
 20
35.936000
 30
0.0
 10
223.064350
 20
36.382582
 30
0.0
 10
223.302599
 20
36.795241
 30
0.0
 10
223.689350
 20
37.018532
 30
0.0
  0
SPLINE
  5
111
100
AcDbEntity
  8
Calque_1
 62
7
100
AcDbSpline
 70
8
 71
3
 72
8
 73
4
 74
0
 40
0
 40
0
 40
0
 40
0
 40
1
 40
1
 40
1
 40
1
 10
223.689350
 20
37.018532
 30
0.0
 10
224.076101
 20
37.241823
 30
0.0
 10
224.552599
 20
37.241823
 30
0.0
 10
224.939350
 20
37.018532
 30
0.0
  0
SPLINE
  5
112
100
AcDbEntity
  8
Calque_1
 62
7
100
AcDbSpline
 70
8
 71
3
 72
8
 73
4
 74
0
 40
0
 40
0
 40
0
 40
0
 40
1
 40
1
 40
1
 40
1
 10
224.939350
 20
37.018532
 30
0.0
 10
225.326101
 20
36.795241
 30
0.0
 10
225.564350
 20
36.382582
 30
0.0
 10
225.564350
 20
35.936000
 30
0.0
  0
LWPOLYLINE
  5
113
100
AcDbEntity
  8
Calque_1
 62
7
100
AcDbPolyline
 90
1
 70
1
 10
193.064350
 20
35.936000
 30
0.0
  0
SPLINE
  5
114
100
AcDbEntity
  8
Calque_1
 62
7
100
AcDbSpline
 70
8
 71
3
 72
8
 73
4
 74
0
 40
0
 40
0
 40
0
 40
0
 40
1
 40
1
 40
1
 40
1
 10
193.064350
 20
68.436000
 30
0.0
 10
193.064350
 20
67.989418
 30
0.0
 10
192.826101
 20
67.576759
 30
0.0
 10
192.439350
 20
67.353468
 30
0.0
  0
SPLINE
  5
115
100
AcDbEntity
  8
Calque_1
 62
7
100
AcDbSpline
 70
8
 71
3
 72
8
 73
4
 74
0
 40
0
 40
0
 40
0
 40
0
 40
1
 40
1
 40
1
 40
1
 10
192.439350
 20
67.353468
 30
0.0
 10
192.052599
 20
67.130177
 30
0.0
 10
191.576101
 20
67.130177
 30
0.0
 10
191.189350
 20
67.353468
 30
0.0
  0
SPLINE
  5
116
100
AcDbEntity
  8
Calque_1
 62
7
100
AcDbSpline
 70
8
 71
3
 72
8
 73
4
 74
0
 40
0
 40
0
 40
0
 40
0
 40
1
 40
1
 40
1
 40
1
 10
191.189350
 20
67.353468
 30
0.0
 10
190.802599
 20
67.576759
 30
0.0
 10
190.564350
 20
67.989418
 30
0.0
 10
190.564350
 20
68.436000
 30
0.0
  0
SPLINE
  5
117
100
AcDbEntity
  8
Calque_1
 62
7
100
AcDbSpline
 70
8
 71
3
 72
8
 73
4
 74
0
 40
0
 40
0
 40
0
 40
0
 40
1
 40
1
 40
1
 40
1
 10
190.564350
 20
68.436000
 30
0.0
 10
190.564350
 20
68.882582
 30
0.0
 10
190.802599
 20
69.295241
 30
0.0
 10
191.189350
 20
69.518532
 30
0.0
  0
SPLINE
  5
118
100
AcDbEntity
  8
Calque_1
 62
7
100
AcDbSpline
 70
8
 71
3
 72
8
 73
4
 74
0
 40
0
 40
0
 40
0
 40
0
 40
1
 40
1
 40
1
 40
1
 10
191.189350
 20
69.518532
 30
0.0
 10
191.576101
 20
69.741823
 30
0.0
 10
192.052599
 20
69.741823
 30
0.0
 10
192.439350
 20
69.518532
 30
0.0
  0
SPLINE
  5
119
100
AcDbEntity
  8
Calque_1
 62
7
100
AcDbSpline
 70
8
 71
3
 72
8
 73
4
 74
0
 40
0
 40
0
 40
0
 40
0
 40
1
 40
1
 40
1
 40
1
 10
192.439350
 20
69.518532
 30
0.0
 10
192.826101
 20
69.295241
 30
0.0
 10
193.064350
 20
68.882582
 30
0.0
 10
193.064350
 20
68.436000
 30
0.0
  0
LWPOLYLINE
  5
11a
100
AcDbEntity
  8
Calque_1
 62
7
100
AcDbPolyline
 90
1
 70
1
 10
225.564350
 20
35.936000
 30
0.0
  0
SPLINE
  5
11b
100
AcDbEntity
  8
Calque_1
 62
7
100
AcDbSpline
 70
8
 71
3
 72
8
 73
4
 74
0
 40
0
 40
0
 40
0
 40
0
 40
1
 40
1
 40
1
 40
1
 10
225.564350
 20
68.436000
 30
0.0
 10
225.564350
 20
67.989418
 30
0.0
 10
225.326101
 20
67.576759
 30
0.0
 10
224.939350
 20
67.353468
 30
0.0
  0
SPLINE
  5
11c
100
AcDbEntity
  8
Calque_1
 62
7
100
AcDbSpline
 70
8
 71
3
 72
8
 73
4
 74
0
 40
0
 40
0
 40
0
 40
0
 40
1
 40
1
 40
1
 40
1
 10
224.939350
 20
67.353468
 30
0.0
 10
224.552599
 20
67.130177
 30
0.0
 10
224.076101
 20
67.130177
 30
0.0
 10
223.689350
 20
67.353468
 30
0.0
  0
SPLINE
  5
11d
100
AcDbEntity
  8
Calque_1
 62
7
100
AcDbSpline
 70
8
 71
3
 72
8
 73
4
 74
0
 40
0
 40
0
 40
0
 40
0
 40
1
 40
1
 40
1
 40
1
 10
223.689350
 20
67.353468
 30
0.0
 10
223.302599
 20
67.576759
 30
0.0
 10
223.064350
 20
67.989418
 30
0.0
 10
223.064350
 20
68.436000
 30
0.0
  0
SPLINE
  5
11e
100
AcDbEntity
  8
Calque_1
 62
7
100
AcDbSpline
 70
8
 71
3
 72
8
 73
4
 74
0
 40
0
 40
0
 40
0
 40
0
 40
1
 40
1
 40
1
 40
1
 10
223.064350
 20
68.436000
 30
0.0
 10
223.064350
 20
68.882582
 30
0.0
 10
223.302599
 20
69.295241
 30
0.0
 10
223.689350
 20
69.518532
 30
0.0
  0
SPLINE
  5
11f
100
AcDbEntity
  8
Calque_1
 62
7
100
AcDbSpline
 70
8
 71
3
 72
8
 73
4
 74
0
 40
0
 40
0
 40
0
 40
0
 40
1
 40
1
 40
1
 40
1
 10
223.689350
 20
69.518532
 30
0.0
 10
224.076101
 20
69.741823
 30
0.0
 10
224.552599
 20
69.741823
 30
0.0
 10
224.939350
 20
69.518532
 30
0.0
  0
SPLINE
  5
120
100
AcDbEntity
  8
Calque_1
 62
7
100
AcDbSpline
 70
8
 71
3
 72
8
 73
4
 74
0
 40
0
 40
0
 40
0
 40
0
 40
1
 40
1
 40
1
 40
1
 10
224.939350
 20
69.518532
 30
0.0
 10
225.326101
 20
69.295241
 30
0.0
 10
225.564350
 20
68.882582
 30
0.0
 10
225.564350
 20
68.436000
 30
0.0
  0
LWPOLYLINE
  5
121
100
AcDbEntity
  8
Calque_1
 62
7
100
AcDbPolyline
 90
1
 70
1
 10
193.064350
 20
68.436000
 30
0.0
  0
LWPOLYLINE
  5
122
100
AcDbEntity
  8
Calque_1
 62
7
100
AcDbPolyline
 90
1
 70
1
 10
225.564350
 20
68.436000
 30
0.0
  0
SPLINE
  5
123
100
AcDbEntity
  8
Calque_1
 62
7
100
AcDbSpline
 70
8
 71
3
 72
8
 73
4
 74
0
 40
0
 40
0
 40
0
 40
0
 40
1
 40
1
 40
1
 40
1
 10
-250.408870
 20
160.564760
 30
0.0
 10
-250.408870
 20
160.118178
 30
0.0
 10
-250.647119
 20
159.705519
 30
0.0
 10
-251.033870
 20
159.482228
 30
0.0
  0
SPLINE
  5
124
100
AcDbEntity
  8
Calque_1
 62
7
100
AcDbSpline
 70
8
 71
3
 72
8
 73
4
 74
0
 40
0
 40
0
 40
0
 40
0
 40
1
 40
1
 40
1
 40
1
 10
-251.033870
 20
159.482228
 30
0.0
 10
-251.420621
 20
159.258937
 30
0.0
 10
-251.897119
 20
159.258937
 30
0.0
 10
-252.283870
 20
159.482228
 30
0.0
  0
SPLINE
  5
125
100
AcDbEntity
  8
Calque_1
 62
7
100
AcDbSpline
 70
8
 71
3
 72
8
 73
4
 74
0
 40
0
 40
0
 40
0
 40
0
 40
1
 40
1
 40
1
 40
1
 10
-252.283870
 20
159.482228
 30
0.0
 10
-252.670621
 20
159.705519
 30
0.0
 10
-252.908870
 20
160.118178
 30
0.0
 10
-252.908870
 20
160.564760
 30
0.0
  0
SPLINE
  5
126
100
AcDbEntity
  8
Calque_1
 62
7
100
AcDbSpline
 70
8
 71
3
 72
8
 73
4
 74
0
 40
0
 40
0
 40
0
 40
0
 40
1
 40
1
 40
1
 40
1
 10
-252.908870
 20
160.564760
 30
0.0
 10
-252.908870
 20
161.011342
 30
0.0
 10
-252.670621
 20
161.424001
 30
0.0
 10
-252.283870
 20
161.647292
 30
0.0
  0
SPLINE
  5
127
100
AcDbEntity
  8
Calque_1
 62
7
100
AcDbSpline
 70
8
 71
3
 72
8
 73
4
 74
0
 40
0
 40
0
 40
0
 40
0
 40
1
 40
1
 40
1
 40
1
 10
-252.283870
 20
161.647292
 30
0.0
 10
-251.897119
 20
161.870583
 30
0.0
 10
-251.420621
 20
161.870583
 30
0.0
 10
-251.033870
 20
161.647292
 30
0.0
  0
SPLINE
  5
128
100
AcDbEntity
  8
Calque_1
 62
7
100
AcDbSpline
 70
8
 71
3
 72
8
 73
4
 74
0
 40
0
 40
0
 40
0
 40
0
 40
1
 40
1
 40
1
 40
1
 10
-251.033870
 20
161.647292
 30
0.0
 10
-250.647119
 20
161.424001
 30
0.0
 10
-250.408870
 20
161.011342
 30
0.0
 10
-250.408870
 20
160.564760
 30
0.0
  0
LWPOLYLINE
  5
129
100
AcDbEntity
  8
Calque_1
 62
7
100
AcDbPolyline
 90
4
 70
1
 10
-252.408890
 20
156.814730
 30
0.0
 10
-249.908890
 20
156.814730
 30
0.0
 10
-249.908890
 20
44.814730
 30
0.0
 10
-252.408890
 20
44.814730
 30
0.0
  0
SPLINE
  5
12a
100
AcDbEntity
  8
Calque_1
 62
7
100
AcDbSpline
 70
8
 71
3
 72
8
 73
4
 74
0
 40
0
 40
0
 40
0
 40
0
 40
1
 40
1
 40
1
 40
1
 10
-250.408870
 20
41.064760
 30
0.0
 10
-250.408870
 20
40.618178
 30
0.0
 10
-250.647119
 20
40.205519
 30
0.0
 10
-251.033870
 20
39.982228
 30
0.0
  0
SPLINE
  5
12b
100
AcDbEntity
  8
Calque_1
 62
7
100
AcDbSpline
 70
8
 71
3
 72
8
 73
4
 74
0
 40
0
 40
0
 40
0
 40
0
 40
1
 40
1
 40
1
 40
1
 10
-251.033870
 20
39.982228
 30
0.0
 10
-251.420621
 20
39.758937
 30
0.0
 10
-251.897119
 20
39.758937
 30
0.0
 10
-252.283870
 20
39.982228
 30
0.0
  0
SPLINE
  5
12c
100
AcDbEntity
  8
Calque_1
 62
7
100
AcDbSpline
 70
8
 71
3
 72
8
 73
4
 74
0
 40
0
 40
0
 40
0
 40
0
 40
1
 40
1
 40
1
 40
1
 10
-252.283870
 20
39.982228
 30
0.0
 10
-252.670621
 20
40.205519
 30
0.0
 10
-252.908870
 20
40.618178
 30
0.0
 10
-252.908870
 20
41.064760
 30
0.0
  0
SPLINE
  5
12d
100
AcDbEntity
  8
Calque_1
 62
7
100
AcDbSpline
 70
8
 71
3
 72
8
 73
4
 74
0
 40
0
 40
0
 40
0
 40
0
 40
1
 40
1
 40
1
 40
1
 10
-252.908870
 20
41.064760
 30
0.0
 10
-252.908870
 20
41.511342
 30
0.0
 10
-252.670621
 20
41.924001
 30
0.0
 10
-252.283870
 20
42.147292
 30
0.0
  0
SPLINE
  5
12e
100
AcDbEntity
  8
Calque_1
 62
7
100
AcDbSpline
 70
8
 71
3
 72
8
 73
4
 74
0
 40
0
 40
0
 40
0
 40
0
 40
1
 40
1
 40
1
 40
1
 10
-252.283870
 20
42.147292
 30
0.0
 10
-251.897119
 20
42.370583
 30
0.0
 10
-251.420621
 20
42.370583
 30
0.0
 10
-251.033870
 20
42.147292
 30
0.0
  0
SPLINE
  5
12f
100
AcDbEntity
  8
Calque_1
 62
7
100
AcDbSpline
 70
8
 71
3
 72
8
 73
4
 74
0
 40
0
 40
0
 40
0
 40
0
 40
1
 40
1
 40
1
 40
1
 10
-251.033870
 20
42.147292
 30
0.0
 10
-250.647119
 20
41.924001
 30
0.0
 10
-250.408870
 20
41.511342
 30
0.0
 10
-250.408870
 20
41.064760
 30
0.0
  0
LWPOLYLINE
  5
130
100
AcDbEntity
  8
Calque_1
 62
7
100
AcDbPolyline
 90
1
 70
1
 10
-250.408870
 20
160.564760
 30
0.0
  0
SPLINE
  5
131
100
AcDbEntity
  8
Calque_1
 62
7
100
AcDbSpline
 70
8
 71
3
 72
8
 73
4
 74
0
 40
0
 40
0
 40
0
 40
0
 40
1
 40
1
 40
1
 40
1
 10
-275.142210
 20
41.620800
 30
0.0
 10
-275.142210
 20
44.478925
 30
0.0
 10
-276.667001
 20
47.119941
 30
0.0
 10
-279.142210
 20
48.549003
 30
0.0
  0
SPLINE
  5
132
100
AcDbEntity
  8
Calque_1
 62
7
100
AcDbSpline
 70
8
 71
3
 72
8
 73
4
 74
0
 40
0
 40
0
 40
0
 40
0
 40
1
 40
1
 40
1
 40
1
 10
-279.142210
 20
48.549003
 30
0.0
 10
-281.617419
 20
49.978066
 30
0.0
 10
-284.667001
 20
49.978066
 30
0.0
 10
-287.142210
 20
48.549003
 30
0.0
  0
SPLINE
  5
133
100
AcDbEntity
  8
Calque_1
 62
7
100
AcDbSpline
 70
8
 71
3
 72
8
 73
4
 74
0
 40
0
 40
0
 40
0
 40
0
 40
1
 40
1
 40
1
 40
1
 10
-287.142210
 20
48.549003
 30
0.0
 10
-289.617419
 20
47.119941
 30
0.0
 10
-291.142210
 20
44.478925
 30
0.0
 10
-291.142210
 20
41.620800
 30
0.0
  0
SPLINE
  5
134
100
AcDbEntity
  8
Calque_1
 62
7
100
AcDbSpline
 70
8
 71
3
 72
8
 73
4
 74
0
 40
0
 40
0
 40
0
 40
0
 40
1
 40
1
 40
1
 40
1
 10
-291.142210
 20
41.620800
 30
0.0
 10
-291.142210
 20
38.762675
 30
0.0
 10
-289.617419
 20
36.121659
 30
0.0
 10
-287.142210
 20
34.692597
 30
0.0
  0
SPLINE
  5
135
100
AcDbEntity
  8
Calque_1
 62
7
100
AcDbSpline
 70
8
 71
3
 72
8
 73
4
 74
0
 40
0
 40
0
 40
0
 40
0
 40
1
 40
1
 40
1
 40
1
 10
-287.142210
 20
34.692597
 30
0.0
 10
-284.667001
 20
33.263534
 30
0.0
 10
-281.617419
 20
33.263534
 30
0.0
 10
-279.142210
 20
34.692597
 30
0.0
  0
SPLINE
  5
136
100
AcDbEntity
  8
Calque_1
 62
7
100
AcDbSpline
 70
8
 71
3
 72
8
 73
4
 74
0
 40
0
 40
0
 40
0
 40
0
 40
1
 40
1
 40
1
 40
1
 10
-279.142210
 20
34.692597
 30
0.0
 10
-276.667001
 20
36.121659
 30
0.0
 10
-275.142210
 20
38.762675
 30
0.0
 10
-275.142210
 20
41.620800
 30
0.0
  0
LWPOLYLINE
  5
137
100
AcDbEntity
  8
Calque_1
 62
7
100
AcDbPolyline
 90
1
 70
1
 10
-250.408870
 20
41.064760
 30
0.0
  0
SPLINE
  5
138
100
AcDbEntity
  8
Calque_1
 62
7
100
AcDbSpline
 70
8
 71
3
 72
8
 73
4
 74
0
 40
0
 40
0
 40
0
 40
0
 40
1
 40
1
 40
1
 40
1
 10
-275.142210
 20
160.008700
 30
0.0
 10
-275.142210
 20
162.866825
 30
0.0
 10
-276.667001
 20
165.507841
 30
0.0
 10
-279.142210
 20
166.936903
 30
0.0
  0
SPLINE
  5
139
100
AcDbEntity
  8
Calque_1
 62
7
100
AcDbSpline
 70
8
 71
3
 72
8
 73
4
 74
0
 40
0
 40
0
 40
0
 40
0
 40
1
 40
1
 40
1
 40
1
 10
-279.142210
 20
166.936903
 30
0.0
 10
-281.617419
 20
168.365966
 30
0.0
 10
-284.667001
 20
168.365966
 30
0.0
 10
-287.142210
 20
166.936903
 30
0.0
  0
SPLINE
  5
13a
100
AcDbEntity
  8
Calque_1
 62
7
100
AcDbSpline
 70
8
 71
3
 72
8
 73
4
 74
0
 40
0
 40
0
 40
0
 40
0
 40
1
 40
1
 40
1
 40
1
 10
-287.142210
 20
166.936903
 30
0.0
 10
-289.617419
 20
165.507841
 30
0.0
 10
-291.142210
 20
162.866825
 30
0.0
 10
-291.142210
 20
160.008700
 30
0.0
  0
SPLINE
  5
13b
100
AcDbEntity
  8
Calque_1
 62
7
100
AcDbSpline
 70
8
 71
3
 72
8
 73
4
 74
0
 40
0
 40
0
 40
0
 40
0
 40
1
 40
1
 40
1
 40
1
 10
-291.142210
 20
160.008700
 30
0.0
 10
-291.142210
 20
157.150575
 30
0.0
 10
-289.617419
 20
154.509559
 30
0.0
 10
-287.142210
 20
153.080497
 30
0.0
  0
SPLINE
  5
13c
100
AcDbEntity
  8
Calque_1
 62
7
100
AcDbSpline
 70
8
 71
3
 72
8
 73
4
 74
0
 40
0
 40
0
 40
0
 40
0
 40
1
 40
1
 40
1
 40
1
 10
-287.142210
 20
153.080497
 30
0.0
 10
-284.667001
 20
151.651434
 30
0.0
 10
-281.617419
 20
151.651434
 30
0.0
 10
-279.142210
 20
153.080497
 30
0.0
  0
SPLINE
  5
13d
100
AcDbEntity
  8
Calque_1
 62
7
100
AcDbSpline
 70
8
 71
3
 72
8
 73
4
 74
0
 40
0
 40
0
 40
0
 40
0
 40
1
 40
1
 40
1
 40
1
 10
-279.142210
 20
153.080497
 30
0.0
 10
-276.667001
 20
154.509559
 30
0.0
 10
-275.142210
 20
157.150575
 30
0.0
 10
-275.142210
 20
160.008700
 30
0.0
  0
LWPOLYLINE
  5
13e
100
AcDbEntity
  8
Calque_1
 62
7
100
AcDbPolyline
 90
1
 70
1
 10
-275.142210
 20
41.620800
 30
0.0
  0
LWPOLYLINE
  5
13f
100
AcDbEntity
  8
Calque_1
 62
7
100
AcDbPolyline
 90
1
 70
1
 10
-275.142210
 20
160.008700
 30
0.0
  0
LWPOLYLINE
  5
140
100
AcDbEntity
  8
Calque_1
 62
5
100
AcDbPolyline
 90
4
 70
1
 10
-307.365360
 20
203.344513
 30
0.0
 10
-232.470356
 20
203.344513
 30
0.0
 10
-232.470356
 20
18.807513
 30
0.0
 10
-307.365360
 20
18.807513
 30
0.0
  0
SPLINE
  5
141
100
AcDbEntity
  8
Calque_1
 62
7
100
AcDbSpline
 70
8
 71
3
 72
8
 73
4
 74
0
 40
0
 40
0
 40
0
 40
0
 40
1
 40
1
 40
1
 40
1
 10
-192.017320
 20
49.676160
 30
0.0
 10
-192.017320
 20
53.963347
 30
0.0
 10
-194.304507
 20
57.924871
 30
0.0
 10
-198.017320
 20
60.068465
 30
0.0
  0
SPLINE
  5
142
100
AcDbEntity
  8
Calque_1
 62
7
100
AcDbSpline
 70
8
 71
3
 72
8
 73
4
 74
0
 40
0
 40
0
 40
0
 40
0
 40
1
 40
1
 40
1
 40
1
 10
-198.017320
 20
60.068465
 30
0.0
 10
-201.730133
 20
62.212058
 30
0.0
 10
-206.304507
 20
62.212058
 30
0.0
 10
-210.017320
 20
60.068465
 30
0.0
  0
SPLINE
  5
143
100
AcDbEntity
  8
Calque_1
 62
7
100
AcDbSpline
 70
8
 71
3
 72
8
 73
4
 74
0
 40
0
 40
0
 40
0
 40
0
 40
1
 40
1
 40
1
 40
1
 10
-210.017320
 20
60.068465
 30
0.0
 10
-213.730133
 20
57.924871
 30
0.0
 10
-216.017320
 20
53.963347
 30
0.0
 10
-216.017320
 20
49.676160
 30
0.0
  0
SPLINE
  5
144
100
AcDbEntity
  8
Calque_1
 62
7
100
AcDbSpline
 70
8
 71
3
 72
8
 73
4
 74
0
 40
0
 40
0
 40
0
 40
0
 40
1
 40
1
 40
1
 40
1
 10
-216.017320
 20
49.676160
 30
0.0
 10
-216.017320
 20
45.388973
 30
0.0
 10
-213.730133
 20
41.427449
 30
0.0
 10
-210.017320
 20
39.283855
 30
0.0
  0
SPLINE
  5
145
100
AcDbEntity
  8
Calque_1
 62
7
100
AcDbSpline
 70
8
 71
3
 72
8
 73
4
 74
0
 40
0
 40
0
 40
0
 40
0
 40
1
 40
1
 40
1
 40
1
 10
-210.017320
 20
39.283855
 30
0.0
 10
-206.304507
 20
37.140262
 30
0.0
 10
-201.730133
 20
37.140262
 30
0.0
 10
-198.017320
 20
39.283855
 30
0.0
  0
SPLINE
  5
146
100
AcDbEntity
  8
Calque_1
 62
7
100
AcDbSpline
 70
8
 71
3
 72
8
 73
4
 74
0
 40
0
 40
0
 40
0
 40
0
 40
1
 40
1
 40
1
 40
1
 10
-198.017320
 20
39.283855
 30
0.0
 10
-194.304507
 20
41.427449
 30
0.0
 10
-192.017320
 20
45.388973
 30
0.0
 10
-192.017320
 20
49.676160
 30
0.0
  0
LWPOLYLINE
  5
147
100
AcDbEntity
  8
Calque_1
 62
5
100
AcDbPolyline
 90
4
 70
1
 10
-228.470090
 20
203.344513
 30
0.0
 10
-133.662587
 20
203.344513
 30
0.0
 10
-133.662587
 20
18.807863
 30
0.0
 10
-228.470090
 20
18.807863
 30
0.0
  0
SPLINE
  5
148
100
AcDbEntity
  8
Calque_1
 62
7
100
AcDbSpline
 70
8
 71
3
 72
8
 73
4
 74
0
 40
0
 40
0
 40
0
 40
0
 40
1
 40
1
 40
1
 40
1
 10
-198.017320
 20
160.415250
 30
0.0
 10
-198.017320
 20
162.558844
 30
0.0
 10
-199.160914
 20
164.539606
 30
0.0
 10
-201.017320
 20
165.611402
 30
0.0
  0
SPLINE
  5
149
100
AcDbEntity
  8
Calque_1
 62
7
100
AcDbSpline
 70
8
 71
3
 72
8
 73
4
 74
0
 40
0
 40
0
 40
0
 40
0
 40
1
 40
1
 40
1
 40
1
 10
-201.017320
 20
165.611402
 30
0.0
 10
-202.873726
 20
166.683199
 30
0.0
 10
-205.160914
 20
166.683199
 30
0.0
 10
-207.017320
 20
165.611402
 30
0.0
  0
SPLINE
  5
14a
100
AcDbEntity
  8
Calque_1
 62
7
100
AcDbSpline
 70
8
 71
3
 72
8
 73
4
 74
0
 40
0
 40
0
 40
0
 40
0
 40
1
 40
1
 40
1
 40
1
 10
-207.017320
 20
165.611402
 30
0.0
 10
-208.873726
 20
164.539606
 30
0.0
 10
-210.017320
 20
162.558844
 30
0.0
 10
-210.017320
 20
160.415250
 30
0.0
  0
SPLINE
  5
14b
100
AcDbEntity
  8
Calque_1
 62
7
100
AcDbSpline
 70
8
 71
3
 72
8
 73
4
 74
0
 40
0
 40
0
 40
0
 40
0
 40
1
 40
1
 40
1
 40
1
 10
-210.017320
 20
160.415250
 30
0.0
 10
-210.017320
 20
158.271656
 30
0.0
 10
-208.873726
 20
156.290894
 30
0.0
 10
-207.017320
 20
155.219098
 30
0.0
  0
SPLINE
  5
14c
100
AcDbEntity
  8
Calque_1
 62
7
100
AcDbSpline
 70
8
 71
3
 72
8
 73
4
 74
0
 40
0
 40
0
 40
0
 40
0
 40
1
 40
1
 40
1
 40
1
 10
-207.017320
 20
155.219098
 30
0.0
 10
-205.160914
 20
154.147301
 30
0.0
 10
-202.873726
 20
154.147301
 30
0.0
 10
-201.017320
 20
155.219098
 30
0.0
  0
SPLINE
  5
14d
100
AcDbEntity
  8
Calque_1
 62
7
100
AcDbSpline
 70
8
 71
3
 72
8
 73
4
 74
0
 40
0
 40
0
 40
0
 40
0
 40
1
 40
1
 40
1
 40
1
 10
-201.017320
 20
155.219098
 30
0.0
 10
-199.160914
 20
156.290894
 30
0.0
 10
-198.017320
 20
158.271656
 30
0.0
 10
-198.017320
 20
160.415250
 30
0.0
  0
LWPOLYLINE
  5
14e
100
AcDbEntity
  8
Calque_1
 62
7
100
AcDbPolyline
 90
1
 70
1
 10
-192.017320
 20
49.676160
 30
0.0
  0
SPLINE
  5
14f
100
AcDbEntity
  8
Calque_1
 62
7
100
AcDbSpline
 70
8
 71
3
 72
8
 73
4
 74
0
 40
0
 40
0
 40
0
 40
0
 40
1
 40
1
 40
1
 40
1
 10
-198.017320
 20
99.011080
 30
0.0
 10
-198.017320
 20
101.154674
 30
0.0
 10
-199.160914
 20
103.135436
 30
0.0
 10
-201.017320
 20
104.207232
 30
0.0
  0
SPLINE
  5
150
100
AcDbEntity
  8
Calque_1
 62
7
100
AcDbSpline
 70
8
 71
3
 72
8
 73
4
 74
0
 40
0
 40
0
 40
0
 40
0
 40
1
 40
1
 40
1
 40
1
 10
-201.017320
 20
104.207232
 30
0.0
 10
-202.873726
 20
105.279029
 30
0.0
 10
-205.160914
 20
105.279029
 30
0.0
 10
-207.017320
 20
104.207232
 30
0.0
  0
SPLINE
  5
151
100
AcDbEntity
  8
Calque_1
 62
7
100
AcDbSpline
 70
8
 71
3
 72
8
 73
4
 74
0
 40
0
 40
0
 40
0
 40
0
 40
1
 40
1
 40
1
 40
1
 10
-207.017320
 20
104.207232
 30
0.0
 10
-208.873726
 20
103.135436
 30
0.0
 10
-210.017320
 20
101.154674
 30
0.0
 10
-210.017320
 20
99.011080
 30
0.0
  0
SPLINE
  5
152
100
AcDbEntity
  8
Calque_1
 62
7
100
AcDbSpline
 70
8
 71
3
 72
8
 73
4
 74
0
 40
0
 40
0
 40
0
 40
0
 40
1
 40
1
 40
1
 40
1
 10
-210.017320
 20
99.011080
 30
0.0
 10
-210.017320
 20
96.867486
 30
0.0
 10
-208.873726
 20
94.886724
 30
0.0
 10
-207.017320
 20
93.814928
 30
0.0
  0
SPLINE
  5
153
100
AcDbEntity
  8
Calque_1
 62
7
100
AcDbSpline
 70
8
 71
3
 72
8
 73
4
 74
0
 40
0
 40
0
 40
0
 40
0
 40
1
 40
1
 40
1
 40
1
 10
-207.017320
 20
93.814928
 30
0.0
 10
-205.160914
 20
92.743131
 30
0.0
 10
-202.873726
 20
92.743131
 30
0.0
 10
-201.017320
 20
93.814928
 30
0.0
  0
SPLINE
  5
154
100
AcDbEntity
  8
Calque_1
 62
7
100
AcDbSpline
 70
8
 71
3
 72
8
 73
4
 74
0
 40
0
 40
0
 40
0
 40
0
 40
1
 40
1
 40
1
 40
1
 10
-201.017320
 20
93.814928
 30
0.0
 10
-199.160914
 20
94.886724
 30
0.0
 10
-198.017320
 20
96.867486
 30
0.0
 10
-198.017320
 20
99.011080
 30
0.0
  0
LWPOLYLINE
  5
155
100
AcDbEntity
  8
Calque_1
 62
7
100
AcDbPolyline
 90
1
 70
1
 10
-198.017320
 20
160.415250
 30
0.0
  0
SPLINE
  5
156
100
AcDbEntity
  8
Calque_1
 62
7
100
AcDbSpline
 70
8
 71
3
 72
8
 73
4
 74
0
 40
0
 40
0
 40
0
 40
0
 40
1
 40
1
 40
1
 40
1
 10
-90.073349
 20
122.411710
 30
0.0
 10
-87.215224
 20
122.411710
 30
0.0
 10
-84.574208
 20
123.936501
 30
0.0
 10
-83.145146
 20
126.411710
 30
0.0
  0
SPLINE
  5
157
100
AcDbEntity
  8
Calque_1
 62
7
100
AcDbSpline
 70
8
 71
3
 72
8
 73
4
 74
0
 40
0
 40
0
 40
0
 40
0
 40
1
 40
1
 40
1
 40
1
 10
-83.145146
 20
126.411710
 30
0.0
 10
-81.716083
 20
128.886919
 30
0.0
 10
-81.716083
 20
131.936501
 30
0.0
 10
-83.145146
 20
134.411710
 30
0.0
  0
SPLINE
  5
158
100
AcDbEntity
  8
Calque_1
 62
7
100
AcDbSpline
 70
8
 71
3
 72
8
 73
4
 74
0
 40
0
 40
0
 40
0
 40
0
 40
1
 40
1
 40
1
 40
1
 10
-83.145146
 20
134.411710
 30
0.0
 10
-84.574208
 20
136.886919
 30
0.0
 10
-87.215224
 20
138.411710
 30
0.0
 10
-90.073349
 20
138.411710
 30
0.0
  0
SPLINE
  5
159
100
AcDbEntity
  8
Calque_1
 62
7
100
AcDbSpline
 70
8
 71
3
 72
8
 73
4
 74
0
 40
0
 40
0
 40
0
 40
0
 40
1
 40
1
 40
1
 40
1
 10
-90.073349
 20
138.411710
 30
0.0
 10
-92.931474
 20
138.411710
 30
0.0
 10
-95.572490
 20
136.886919
 30
0.0
 10
-97.001552
 20
134.411710
 30
0.0
  0
SPLINE
  5
15a
100
AcDbEntity
  8
Calque_1
 62
7
100
AcDbSpline
 70
8
 71
3
 72
8
 73
4
 74
0
 40
0
 40
0
 40
0
 40
0
 40
1
 40
1
 40
1
 40
1
 10
-97.001552
 20
134.411710
 30
0.0
 10
-98.430615
 20
131.936501
 30
0.0
 10
-98.430615
 20
128.886919
 30
0.0
 10
-97.001552
 20
126.411710
 30
0.0
  0
SPLINE
  5
15b
100
AcDbEntity
  8
Calque_1
 62
7
100
AcDbSpline
 70
8
 71
3
 72
8
 73
4
 74
0
 40
0
 40
0
 40
0
 40
0
 40
1
 40
1
 40
1
 40
1
 10
-97.001552
 20
126.411710
 30
0.0
 10
-95.572490
 20
123.936501
 30
0.0
 10
-92.931474
 20
122.411710
 30
0.0
 10
-90.073349
 20
122.411710
 30
0.0
  0
LWPOLYLINE
  5
15c
100
AcDbEntity
  8
Calque_1
 62
7
100
AcDbPolyline
 90
1
 70
1
 10
-198.017320
 20
99.011080
 30
0.0
  0
SPLINE
  5
15d
100
AcDbEntity
  8
Calque_1
 62
7
100
AcDbSpline
 70
8
 71
3
 72
8
 73
4
 74
0
 40
0
 40
0
 40
0
 40
0
 40
1
 40
1
 40
1
 40
1
 10
-90.073349
 20
92.814740
 30
0.0
 10
-87.215224
 20
92.814740
 30
0.0
 10
-84.574208
 20
94.339531
 30
0.0
 10
-83.145146
 20
96.814740
 30
0.0
  0
SPLINE
  5
15e
100
AcDbEntity
  8
Calque_1
 62
7
100
AcDbSpline
 70
8
 71
3
 72
8
 73
4
 74
0
 40
0
 40
0
 40
0
 40
0
 40
1
 40
1
 40
1
 40
1
 10
-83.145146
 20
96.814740
 30
0.0
 10
-81.716083
 20
99.289949
 30
0.0
 10
-81.716083
 20
102.339531
 30
0.0
 10
-83.145146
 20
104.814740
 30
0.0
  0
SPLINE
  5
15f
100
AcDbEntity
  8
Calque_1
 62
7
100
AcDbSpline
 70
8
 71
3
 72
8
 73
4
 74
0
 40
0
 40
0
 40
0
 40
0
 40
1
 40
1
 40
1
 40
1
 10
-83.145146
 20
104.814740
 30
0.0
 10
-84.574208
 20
107.289949
 30
0.0
 10
-87.215224
 20
108.814740
 30
0.0
 10
-90.073349
 20
108.814740
 30
0.0
  0
SPLINE
  5
160
100
AcDbEntity
  8
Calque_1
 62
7
100
AcDbSpline
 70
8
 71
3
 72
8
 73
4
 74
0
 40
0
 40
0
 40
0
 40
0
 40
1
 40
1
 40
1
 40
1
 10
-90.073349
 20
108.814740
 30
0.0
 10
-92.931474
 20
108.814740
 30
0.0
 10
-95.572490
 20
107.289949
 30
0.0
 10
-97.001552
 20
104.814740
 30
0.0
  0
SPLINE
  5
161
100
AcDbEntity
  8
Calque_1
 62
7
100
AcDbSpline
 70
8
 71
3
 72
8
 73
4
 74
0
 40
0
 40
0
 40
0
 40
0
 40
1
 40
1
 40
1
 40
1
 10
-97.001552
 20
104.814740
 30
0.0
 10
-98.430615
 20
102.339531
 30
0.0
 10
-98.430615
 20
99.289949
 30
0.0
 10
-97.001552
 20
96.814740
 30
0.0
  0
SPLINE
  5
162
100
AcDbEntity
  8
Calque_1
 62
7
100
AcDbSpline
 70
8
 71
3
 72
8
 73
4
 74
0
 40
0
 40
0
 40
0
 40
0
 40
1
 40
1
 40
1
 40
1
 10
-97.001552
 20
96.814740
 30
0.0
 10
-95.572490
 20
94.339531
 30
0.0
 10
-92.931474
 20
92.814740
 30
0.0
 10
-90.073349
 20
92.814740
 30
0.0
  0
LWPOLYLINE
  5
163
100
AcDbEntity
  8
Calque_1
 62
7
100
AcDbPolyline
 90
1
 70
1
 10
-90.073349
 20
122.411710
 30
0.0
  0
SPLINE
  5
164
100
AcDbEntity
  8
Calque_1
 62
7
100
AcDbSpline
 70
8
 71
3
 72
8
 73
4
 74
0
 40
0
 40
0
 40
0
 40
0
 40
1
 40
1
 40
1
 40
1
 10
-90.073349
 20
63.217760
 30
0.0
 10
-87.215224
 20
63.217760
 30
0.0
 10
-84.574208
 20
64.742551
 30
0.0
 10
-83.145146
 20
67.217760
 30
0.0
  0
SPLINE
  5
165
100
AcDbEntity
  8
Calque_1
 62
7
100
AcDbSpline
 70
8
 71
3
 72
8
 73
4
 74
0
 40
0
 40
0
 40
0
 40
0
 40
1
 40
1
 40
1
 40
1
 10
-83.145146
 20
67.217760
 30
0.0
 10
-81.716083
 20
69.692969
 30
0.0
 10
-81.716083
 20
72.742551
 30
0.0
 10
-83.145146
 20
75.217760
 30
0.0
  0
SPLINE
  5
166
100
AcDbEntity
  8
Calque_1
 62
7
100
AcDbSpline
 70
8
 71
3
 72
8
 73
4
 74
0
 40
0
 40
0
 40
0
 40
0
 40
1
 40
1
 40
1
 40
1
 10
-83.145146
 20
75.217760
 30
0.0
 10
-84.574208
 20
77.692969
 30
0.0
 10
-87.215224
 20
79.217760
 30
0.0
 10
-90.073349
 20
79.217760
 30
0.0
  0
SPLINE
  5
167
100
AcDbEntity
  8
Calque_1
 62
7
100
AcDbSpline
 70
8
 71
3
 72
8
 73
4
 74
0
 40
0
 40
0
 40
0
 40
0
 40
1
 40
1
 40
1
 40
1
 10
-90.073349
 20
79.217760
 30
0.0
 10
-92.931474
 20
79.217760
 30
0.0
 10
-95.572490
 20
77.692969
 30
0.0
 10
-97.001552
 20
75.217760
 30
0.0
  0
SPLINE
  5
168
100
AcDbEntity
  8
Calque_1
 62
7
100
AcDbSpline
 70
8
 71
3
 72
8
 73
4
 74
0
 40
0
 40
0
 40
0
 40
0
 40
1
 40
1
 40
1
 40
1
 10
-97.001552
 20
75.217760
 30
0.0
 10
-98.430615
 20
72.742551
 30
0.0
 10
-98.430615
 20
69.692969
 30
0.0
 10
-97.001552
 20
67.217760
 30
0.0
  0
SPLINE
  5
169
100
AcDbEntity
  8
Calque_1
 62
7
100
AcDbSpline
 70
8
 71
3
 72
8
 73
4
 74
0
 40
0
 40
0
 40
0
 40
0
 40
1
 40
1
 40
1
 40
1
 10
-97.001552
 20
67.217760
 30
0.0
 10
-95.572490
 20
64.742551
 30
0.0
 10
-92.931474
 20
63.217760
 30
0.0
 10
-90.073349
 20
63.217760
 30
0.0
  0
LWPOLYLINE
  5
16a
100
AcDbEntity
  8
Calque_1
 62
7
100
AcDbPolyline
 90
1
 70
1
 10
-90.073349
 20
92.814740
 30
0.0
  0
SPLINE
  5
16b
100
AcDbEntity
  8
Calque_1
 62
7
100
AcDbSpline
 70
8
 71
3
 72
8
 73
4
 74
0
 40
0
 40
0
 40
0
 40
0
 40
1
 40
1
 40
1
 40
1
 10
-90.073349
 20
33.620800
 30
0.0
 10
-87.215224
 20
33.620800
 30
0.0
 10
-84.574208
 20
35.145591
 30
0.0
 10
-83.145146
 20
37.620800
 30
0.0
  0
SPLINE
  5
16c
100
AcDbEntity
  8
Calque_1
 62
7
100
AcDbSpline
 70
8
 71
3
 72
8
 73
4
 74
0
 40
0
 40
0
 40
0
 40
0
 40
1
 40
1
 40
1
 40
1
 10
-83.145146
 20
37.620800
 30
0.0
 10
-81.716083
 20
40.096009
 30
0.0
 10
-81.716083
 20
43.145591
 30
0.0
 10
-83.145146
 20
45.620800
 30
0.0
  0
SPLINE
  5
16d
100
AcDbEntity
  8
Calque_1
 62
7
100
AcDbSpline
 70
8
 71
3
 72
8
 73
4
 74
0
 40
0
 40
0
 40
0
 40
0
 40
1
 40
1
 40
1
 40
1
 10
-83.145146
 20
45.620800
 30
0.0
 10
-84.574208
 20
48.096009
 30
0.0
 10
-87.215224
 20
49.620800
 30
0.0
 10
-90.073349
 20
49.620800
 30
0.0
  0
SPLINE
  5
16e
100
AcDbEntity
  8
Calque_1
 62
7
100
AcDbSpline
 70
8
 71
3
 72
8
 73
4
 74
0
 40
0
 40
0
 40
0
 40
0
 40
1
 40
1
 40
1
 40
1
 10
-90.073349
 20
49.620800
 30
0.0
 10
-92.931474
 20
49.620800
 30
0.0
 10
-95.572490
 20
48.096009
 30
0.0
 10
-97.001552
 20
45.620800
 30
0.0
  0
SPLINE
  5
16f
100
AcDbEntity
  8
Calque_1
 62
7
100
AcDbSpline
 70
8
 71
3
 72
8
 73
4
 74
0
 40
0
 40
0
 40
0
 40
0
 40
1
 40
1
 40
1
 40
1
 10
-97.001552
 20
45.620800
 30
0.0
 10
-98.430615
 20
43.145591
 30
0.0
 10
-98.430615
 20
40.096009
 30
0.0
 10
-97.001552
 20
37.620800
 30
0.0
  0
SPLINE
  5
170
100
AcDbEntity
  8
Calque_1
 62
7
100
AcDbSpline
 70
8
 71
3
 72
8
 73
4
 74
0
 40
0
 40
0
 40
0
 40
0
 40
1
 40
1
 40
1
 40
1
 10
-97.001552
 20
37.620800
 30
0.0
 10
-95.572490
 20
35.145591
 30
0.0
 10
-92.931474
 20
33.620800
 30
0.0
 10
-90.073349
 20
33.620800
 30
0.0
  0
LWPOLYLINE
  5
171
100
AcDbEntity
  8
Calque_1
 62
7
100
AcDbPolyline
 90
1
 70
1
 10
-90.073349
 20
63.217760
 30
0.0
  0
SPLINE
  5
172
100
AcDbEntity
  8
Calque_1
 62
7
100
AcDbSpline
 70
8
 71
3
 72
8
 73
4
 74
0
 40
0
 40
0
 40
0
 40
0
 40
1
 40
1
 40
1
 40
1
 10
-90.073349
 20
152.008700
 30
0.0
 10
-87.215224
 20
152.008700
 30
0.0
 10
-84.574208
 20
153.533491
 30
0.0
 10
-83.145146
 20
156.008700
 30
0.0
  0
SPLINE
  5
173
100
AcDbEntity
  8
Calque_1
 62
7
100
AcDbSpline
 70
8
 71
3
 72
8
 73
4
 74
0
 40
0
 40
0
 40
0
 40
0
 40
1
 40
1
 40
1
 40
1
 10
-83.145146
 20
156.008700
 30
0.0
 10
-81.716083
 20
158.483909
 30
0.0
 10
-81.716083
 20
161.533491
 30
0.0
 10
-83.145146
 20
164.008700
 30
0.0
  0
SPLINE
  5
174
100
AcDbEntity
  8
Calque_1
 62
7
100
AcDbSpline
 70
8
 71
3
 72
8
 73
4
 74
0
 40
0
 40
0
 40
0
 40
0
 40
1
 40
1
 40
1
 40
1
 10
-83.145146
 20
164.008700
 30
0.0
 10
-84.574208
 20
166.483909
 30
0.0
 10
-87.215224
 20
168.008700
 30
0.0
 10
-90.073349
 20
168.008700
 30
0.0
  0
SPLINE
  5
175
100
AcDbEntity
  8
Calque_1
 62
7
100
AcDbSpline
 70
8
 71
3
 72
8
 73
4
 74
0
 40
0
 40
0
 40
0
 40
0
 40
1
 40
1
 40
1
 40
1
 10
-90.073349
 20
168.008700
 30
0.0
 10
-92.931474
 20
168.008700
 30
0.0
 10
-95.572490
 20
166.483909
 30
0.0
 10
-97.001552
 20
164.008700
 30
0.0
  0
SPLINE
  5
176
100
AcDbEntity
  8
Calque_1
 62
7
100
AcDbSpline
 70
8
 71
3
 72
8
 73
4
 74
0
 40
0
 40
0
 40
0
 40
0
 40
1
 40
1
 40
1
 40
1
 10
-97.001552
 20
164.008700
 30
0.0
 10
-98.430615
 20
161.533491
 30
0.0
 10
-98.430615
 20
158.483909
 30
0.0
 10
-97.001552
 20
156.008700
 30
0.0
  0
SPLINE
  5
177
100
AcDbEntity
  8
Calque_1
 62
7
100
AcDbSpline
 70
8
 71
3
 72
8
 73
4
 74
0
 40
0
 40
0
 40
0
 40
0
 40
1
 40
1
 40
1
 40
1
 10
-97.001552
 20
156.008700
 30
0.0
 10
-95.572490
 20
153.533491
 30
0.0
 10
-92.931474
 20
152.008700
 30
0.0
 10
-90.073349
 20
152.008700
 30
0.0
  0
LWPOLYLINE
  5
178
100
AcDbEntity
  8
Calque_1
 62
7
100
AcDbPolyline
 90
1
 70
1
 10
-90.073349
 20
33.620800
 30
0.0
  0
LWPOLYLINE
  5
179
100
AcDbEntity
  8
Calque_1
 62
7
100
AcDbPolyline
 90
1
 70
1
 10
-90.073349
 20
152.008700
 30
0.0
  0
SPLINE
  5
17a
100
AcDbEntity
  8
Calque_1
 62
7
100
AcDbSpline
 70
8
 71
3
 72
8
 73
4
 74
0
 40
0
 40
0
 40
0
 40
0
 40
1
 40
1
 40
1
 40
1
 10
-2.465471
 20
92.814930
 30
0.0
 10
0.392654
 20
92.814930
 30
0.0
 10
3.033670
 20
94.339721
 30
0.0
 10
4.462732
 20
96.814930
 30
0.0
  0
SPLINE
  5
17b
100
AcDbEntity
  8
Calque_1
 62
7
100
AcDbSpline
 70
8
 71
3
 72
8
 73
4
 74
0
 40
0
 40
0
 40
0
 40
0
 40
1
 40
1
 40
1
 40
1
 10
4.462732
 20
96.814930
 30
0.0
 10
5.891795
 20
99.290139
 30
0.0
 10
5.891795
 20
102.339721
 30
0.0
 10
4.462732
 20
104.814930
 30
0.0
  0
SPLINE
  5
17c
100
AcDbEntity
  8
Calque_1
 62
7
100
AcDbSpline
 70
8
 71
3
 72
8
 73
4
 74
0
 40
0
 40
0
 40
0
 40
0
 40
1
 40
1
 40
1
 40
1
 10
4.462732
 20
104.814930
 30
0.0
 10
3.033670
 20
107.290139
 30
0.0
 10
0.392654
 20
108.814930
 30
0.0
 10
-2.465471
 20
108.814930
 30
0.0
  0
SPLINE
  5
17d
100
AcDbEntity
  8
Calque_1
 62
7
100
AcDbSpline
 70
8
 71
3
 72
8
 73
4
 74
0
 40
0
 40
0
 40
0
 40
0
 40
1
 40
1
 40
1
 40
1
 10
-2.465471
 20
108.814930
 30
0.0
 10
-5.323596
 20
108.814930
 30
0.0
 10
-7.964612
 20
107.290139
 30
0.0
 10
-9.393674
 20
104.814930
 30
0.0
  0
SPLINE
  5
17e
100
AcDbEntity
  8
Calque_1
 62
7
100
AcDbSpline
 70
8
 71
3
 72
8
 73
4
 74
0
 40
0
 40
0
 40
0
 40
0
 40
1
 40
1
 40
1
 40
1
 10
-9.393674
 20
104.814930
 30
0.0
 10
-10.822737
 20
102.339721
 30
0.0
 10
-10.822737
 20
99.290139
 30
0.0
 10
-9.393674
 20
96.814930
 30
0.0
  0
SPLINE
  5
17f
100
AcDbEntity
  8
Calque_1
 62
7
100
AcDbSpline
 70
8
 71
3
 72
8
 73
4
 74
0
 40
0
 40
0
 40
0
 40
0
 40
1
 40
1
 40
1
 40
1
 10
-9.393674
 20
96.814930
 30
0.0
 10
-7.964612
 20
94.339721
 30
0.0
 10
-5.323596
 20
92.814930
 30
0.0
 10
-2.465471
 20
92.814930
 30
0.0
  0
LWPOLYLINE
  5
180
100
AcDbEntity
  8
Calque_1
 62
5
100
AcDbPolyline
 90
4
 70
1
 10
-129.663090
 20
203.344513
 30
0.0
 10
71.036620
 20
203.344513
 30
0.0
 10
71.036620
 20
18.807513
 30
0.0
 10
-129.663090
 20
18.807513
 30
0.0
  0
SPLINE
  5
181
100
AcDbEntity
  8
Calque_1
 62
7
100
AcDbSpline
 70
8
 71
3
 72
8
 73
4
 74
0
 40
0
 40
0
 40
0
 40
0
 40
1
 40
1
 40
1
 40
1
 10
-2.465471
 20
63.217960
 30
0.0
 10
0.392654
 20
63.217960
 30
0.0
 10
3.033670
 20
64.742751
 30
0.0
 10
4.462732
 20
67.217960
 30
0.0
  0
SPLINE
  5
182
100
AcDbEntity
  8
Calque_1
 62
7
100
AcDbSpline
 70
8
 71
3
 72
8
 73
4
 74
0
 40
0
 40
0
 40
0
 40
0
 40
1
 40
1
 40
1
 40
1
 10
4.462732
 20
67.217960
 30
0.0
 10
5.891795
 20
69.693169
 30
0.0
 10
5.891795
 20
72.742751
 30
0.0
 10
4.462732
 20
75.217960
 30
0.0
  0
SPLINE
  5
183
100
AcDbEntity
  8
Calque_1
 62
7
100
AcDbSpline
 70
8
 71
3
 72
8
 73
4
 74
0
 40
0
 40
0
 40
0
 40
0
 40
1
 40
1
 40
1
 40
1
 10
4.462732
 20
75.217960
 30
0.0
 10
3.033670
 20
77.693169
 30
0.0
 10
0.392654
 20
79.217960
 30
0.0
 10
-2.465471
 20
79.217960
 30
0.0
  0
SPLINE
  5
184
100
AcDbEntity
  8
Calque_1
 62
7
100
AcDbSpline
 70
8
 71
3
 72
8
 73
4
 74
0
 40
0
 40
0
 40
0
 40
0
 40
1
 40
1
 40
1
 40
1
 10
-2.465471
 20
79.217960
 30
0.0
 10
-5.323596
 20
79.217960
 30
0.0
 10
-7.964612
 20
77.693169
 30
0.0
 10
-9.393674
 20
75.217960
 30
0.0
  0
SPLINE
  5
185
100
AcDbEntity
  8
Calque_1
 62
7
100
AcDbSpline
 70
8
 71
3
 72
8
 73
4
 74
0
 40
0
 40
0
 40
0
 40
0
 40
1
 40
1
 40
1
 40
1
 10
-9.393674
 20
75.217960
 30
0.0
 10
-10.822737
 20
72.742751
 30
0.0
 10
-10.822737
 20
69.693169
 30
0.0
 10
-9.393674
 20
67.217960
 30
0.0
  0
SPLINE
  5
186
100
AcDbEntity
  8
Calque_1
 62
7
100
AcDbSpline
 70
8
 71
3
 72
8
 73
4
 74
0
 40
0
 40
0
 40
0
 40
0
 40
1
 40
1
 40
1
 40
1
 10
-9.393674
 20
67.217960
 30
0.0
 10
-7.964612
 20
64.742751
 30
0.0
 10
-5.323596
 20
63.217960
 30
0.0
 10
-2.465471
 20
63.217960
 30
0.0
  0
LWPOLYLINE
  5
187
100
AcDbEntity
  8
Calque_1
 62
7
100
AcDbPolyline
 90
1
 70
1
 10
-2.465471
 20
92.814930
 30
0.0
  0
SPLINE
  5
188
100
AcDbEntity
  8
Calque_1
 62
7
100
AcDbSpline
 70
8
 71
3
 72
8
 73
4
 74
0
 40
0
 40
0
 40
0
 40
0
 40
1
 40
1
 40
1
 40
1
 10
-2.465471
 20
33.620990
 30
0.0
 10
0.392654
 20
33.620990
 30
0.0
 10
3.033670
 20
35.145781
 30
0.0
 10
4.462732
 20
37.620990
 30
0.0
  0
SPLINE
  5
189
100
AcDbEntity
  8
Calque_1
 62
7
100
AcDbSpline
 70
8
 71
3
 72
8
 73
4
 74
0
 40
0
 40
0
 40
0
 40
0
 40
1
 40
1
 40
1
 40
1
 10
4.462732
 20
37.620990
 30
0.0
 10
5.891795
 20
40.096199
 30
0.0
 10
5.891795
 20
43.145781
 30
0.0
 10
4.462732
 20
45.620990
 30
0.0
  0
SPLINE
  5
18a
100
AcDbEntity
  8
Calque_1
 62
7
100
AcDbSpline
 70
8
 71
3
 72
8
 73
4
 74
0
 40
0
 40
0
 40
0
 40
0
 40
1
 40
1
 40
1
 40
1
 10
4.462732
 20
45.620990
 30
0.0
 10
3.033670
 20
48.096199
 30
0.0
 10
0.392654
 20
49.620990
 30
0.0
 10
-2.465471
 20
49.620990
 30
0.0
  0
SPLINE
  5
18b
100
AcDbEntity
  8
Calque_1
 62
7
100
AcDbSpline
 70
8
 71
3
 72
8
 73
4
 74
0
 40
0
 40
0
 40
0
 40
0
 40
1
 40
1
 40
1
 40
1
 10
-2.465471
 20
49.620990
 30
0.0
 10
-5.323596
 20
49.620990
 30
0.0
 10
-7.964612
 20
48.096199
 30
0.0
 10
-9.393674
 20
45.620990
 30
0.0
  0
SPLINE
  5
18c
100
AcDbEntity
  8
Calque_1
 62
7
100
AcDbSpline
 70
8
 71
3
 72
8
 73
4
 74
0
 40
0
 40
0
 40
0
 40
0
 40
1
 40
1
 40
1
 40
1
 10
-9.393674
 20
45.620990
 30
0.0
 10
-10.822737
 20
43.145781
 30
0.0
 10
-10.822737
 20
40.096199
 30
0.0
 10
-9.393674
 20
37.620990
 30
0.0
  0
SPLINE
  5
18d
100
AcDbEntity
  8
Calque_1
 62
7
100
AcDbSpline
 70
8
 71
3
 72
8
 73
4
 74
0
 40
0
 40
0
 40
0
 40
0
 40
1
 40
1
 40
1
 40
1
 10
-9.393674
 20
37.620990
 30
0.0
 10
-7.964612
 20
35.145781
 30
0.0
 10
-5.323596
 20
33.620990
 30
0.0
 10
-2.465471
 20
33.620990
 30
0.0
  0
LWPOLYLINE
  5
18e
100
AcDbEntity
  8
Calque_1
 62
7
100
AcDbPolyline
 90
1
 70
1
 10
-2.465471
 20
63.217960
 30
0.0
  0
SPLINE
  5
18f
100
AcDbEntity
  8
Calque_1
 62
7
100
AcDbSpline
 70
8
 71
3
 72
8
 73
4
 74
0
 40
0
 40
0
 40
0
 40
0
 40
1
 40
1
 40
1
 40
1
 10
3.534529
 20
161.503910
 30
0.0
 10
3.534529
 20
163.647504
 30
0.0
 10
2.390935
 20
165.628266
 30
0.0
 10
0.534529
 20
166.700062
 30
0.0
  0
SPLINE
  5
190
100
AcDbEntity
  8
Calque_1
 62
7
100
AcDbSpline
 70
8
 71
3
 72
8
 73
4
 74
0
 40
0
 40
0
 40
0
 40
0
 40
1
 40
1
 40
1
 40
1
 10
0.534529
 20
166.700062
 30
0.0
 10
-1.321877
 20
167.771859
 30
0.0
 10
-3.609065
 20
167.771859
 30
0.0
 10
-5.465471
 20
166.700062
 30
0.0
  0
SPLINE
  5
191
100
AcDbEntity
  8
Calque_1
 62
7
100
AcDbSpline
 70
8
 71
3
 72
8
 73
4
 74
0
 40
0
 40
0
 40
0
 40
0
 40
1
 40
1
 40
1
 40
1
 10
-5.465471
 20
166.700062
 30
0.0
 10
-7.321877
 20
165.628266
 30
0.0
 10
-8.465471
 20
163.647504
 30
0.0
 10
-8.465471
 20
161.503910
 30
0.0
  0
SPLINE
  5
192
100
AcDbEntity
  8
Calque_1
 62
7
100
AcDbSpline
 70
8
 71
3
 72
8
 73
4
 74
0
 40
0
 40
0
 40
0
 40
0
 40
1
 40
1
 40
1
 40
1
 10
-8.465471
 20
161.503910
 30
0.0
 10
-8.465471
 20
159.360316
 30
0.0
 10
-7.321877
 20
157.379554
 30
0.0
 10
-5.465471
 20
156.307758
 30
0.0
  0
SPLINE
  5
193
100
AcDbEntity
  8
Calque_1
 62
7
100
AcDbSpline
 70
8
 71
3
 72
8
 73
4
 74
0
 40
0
 40
0
 40
0
 40
0
 40
1
 40
1
 40
1
 40
1
 10
-5.465471
 20
156.307758
 30
0.0
 10
-3.609065
 20
155.235961
 30
0.0
 10
-1.321877
 20
155.235961
 30
0.0
 10
0.534529
 20
156.307758
 30
0.0
  0
SPLINE
  5
194
100
AcDbEntity
  8
Calque_1
 62
7
100
AcDbSpline
 70
8
 71
3
 72
8
 73
4
 74
0
 40
0
 40
0
 40
0
 40
0
 40
1
 40
1
 40
1
 40
1
 10
0.534529
 20
156.307758
 30
0.0
 10
2.390935
 20
157.379554
 30
0.0
 10
3.534529
 20
159.360316
 30
0.0
 10
3.534529
 20
161.503910
 30
0.0
  0
LWPOLYLINE
  5
195
100
AcDbEntity
  8
Calque_1
 62
7
100
AcDbPolyline
 90
1
 70
1
 10
-2.465471
 20
33.620990
 30
0.0
  0
SPLINE
  5
196
100
AcDbEntity
  8
Calque_1
 62
7
100
AcDbSpline
 70
8
 71
3
 72
8
 73
4
 74
0
 40
0
 40
0
 40
0
 40
0
 40
1
 40
1
 40
1
 40
1
 10
-59.862320
 20
122.411880
 30
0.0
 10
-57.004195
 20
122.411880
 30
0.0
 10
-54.363179
 20
123.936671
 30
0.0
 10
-52.934117
 20
126.411880
 30
0.0
  0
SPLINE
  5
197
100
AcDbEntity
  8
Calque_1
 62
7
100
AcDbSpline
 70
8
 71
3
 72
8
 73
4
 74
0
 40
0
 40
0
 40
0
 40
0
 40
1
 40
1
 40
1
 40
1
 10
-52.934117
 20
126.411880
 30
0.0
 10
-51.505054
 20
128.887089
 30
0.0
 10
-51.505054
 20
131.936671
 30
0.0
 10
-52.934117
 20
134.411880
 30
0.0
  0
SPLINE
  5
198
100
AcDbEntity
  8
Calque_1
 62
7
100
AcDbSpline
 70
8
 71
3
 72
8
 73
4
 74
0
 40
0
 40
0
 40
0
 40
0
 40
1
 40
1
 40
1
 40
1
 10
-52.934117
 20
134.411880
 30
0.0
 10
-54.363179
 20
136.887089
 30
0.0
 10
-57.004195
 20
138.411880
 30
0.0
 10
-59.862320
 20
138.411880
 30
0.0
  0
SPLINE
  5
199
100
AcDbEntity
  8
Calque_1
 62
7
100
AcDbSpline
 70
8
 71
3
 72
8
 73
4
 74
0
 40
0
 40
0
 40
0
 40
0
 40
1
 40
1
 40
1
 40
1
 10
-59.862320
 20
138.411880
 30
0.0
 10
-62.720445
 20
138.411880
 30
0.0
 10
-65.361461
 20
136.887089
 30
0.0
 10
-66.790523
 20
134.411880
 30
0.0
  0
SPLINE
  5
19a
100
AcDbEntity
  8
Calque_1
 62
7
100
AcDbSpline
 70
8
 71
3
 72
8
 73
4
 74
0
 40
0
 40
0
 40
0
 40
0
 40
1
 40
1
 40
1
 40
1
 10
-66.790523
 20
134.411880
 30
0.0
 10
-68.219586
 20
131.936671
 30
0.0
 10
-68.219586
 20
128.887089
 30
0.0
 10
-66.790523
 20
126.411880
 30
0.0
  0
SPLINE
  5
19b
100
AcDbEntity
  8
Calque_1
 62
7
100
AcDbSpline
 70
8
 71
3
 72
8
 73
4
 74
0
 40
0
 40
0
 40
0
 40
0
 40
1
 40
1
 40
1
 40
1
 10
-66.790523
 20
126.411880
 30
0.0
 10
-65.361461
 20
123.936671
 30
0.0
 10
-62.720445
 20
122.411880
 30
0.0
 10
-59.862320
 20
122.411880
 30
0.0
  0
LWPOLYLINE
  5
19c
100
AcDbEntity
  8
Calque_1
 62
7
100
AcDbPolyline
 90
1
 70
1
 10
3.534529
 20
161.503910
 30
0.0
  0
SPLINE
  5
19d
100
AcDbEntity
  8
Calque_1
 62
7
100
AcDbSpline
 70
8
 71
3
 72
8
 73
4
 74
0
 40
0
 40
0
 40
0
 40
0
 40
1
 40
1
 40
1
 40
1
 10
-59.862320
 20
92.814930
 30
0.0
 10
-57.004195
 20
92.814930
 30
0.0
 10
-54.363179
 20
94.339721
 30
0.0
 10
-52.934117
 20
96.814930
 30
0.0
  0
SPLINE
  5
19e
100
AcDbEntity
  8
Calque_1
 62
7
100
AcDbSpline
 70
8
 71
3
 72
8
 73
4
 74
0
 40
0
 40
0
 40
0
 40
0
 40
1
 40
1
 40
1
 40
1
 10
-52.934117
 20
96.814930
 30
0.0
 10
-51.505054
 20
99.290139
 30
0.0
 10
-51.505054
 20
102.339721
 30
0.0
 10
-52.934117
 20
104.814930
 30
0.0
  0
SPLINE
  5
19f
100
AcDbEntity
  8
Calque_1
 62
7
100
AcDbSpline
 70
8
 71
3
 72
8
 73
4
 74
0
 40
0
 40
0
 40
0
 40
0
 40
1
 40
1
 40
1
 40
1
 10
-52.934117
 20
104.814930
 30
0.0
 10
-54.363179
 20
107.290139
 30
0.0
 10
-57.004195
 20
108.814930
 30
0.0
 10
-59.862320
 20
108.814930
 30
0.0
  0
SPLINE
  5
1a0
100
AcDbEntity
  8
Calque_1
 62
7
100
AcDbSpline
 70
8
 71
3
 72
8
 73
4
 74
0
 40
0
 40
0
 40
0
 40
0
 40
1
 40
1
 40
1
 40
1
 10
-59.862320
 20
108.814930
 30
0.0
 10
-62.720445
 20
108.814930
 30
0.0
 10
-65.361461
 20
107.290139
 30
0.0
 10
-66.790523
 20
104.814930
 30
0.0
  0
SPLINE
  5
1a1
100
AcDbEntity
  8
Calque_1
 62
7
100
AcDbSpline
 70
8
 71
3
 72
8
 73
4
 74
0
 40
0
 40
0
 40
0
 40
0
 40
1
 40
1
 40
1
 40
1
 10
-66.790523
 20
104.814930
 30
0.0
 10
-68.219586
 20
102.339721
 30
0.0
 10
-68.219586
 20
99.290139
 30
0.0
 10
-66.790523
 20
96.814930
 30
0.0
  0
SPLINE
  5
1a2
100
AcDbEntity
  8
Calque_1
 62
7
100
AcDbSpline
 70
8
 71
3
 72
8
 73
4
 74
0
 40
0
 40
0
 40
0
 40
0
 40
1
 40
1
 40
1
 40
1
 10
-66.790523
 20
96.814930
 30
0.0
 10
-65.361461
 20
94.339721
 30
0.0
 10
-62.720445
 20
92.814930
 30
0.0
 10
-59.862320
 20
92.814930
 30
0.0
  0
LWPOLYLINE
  5
1a3
100
AcDbEntity
  8
Calque_1
 62
7
100
AcDbPolyline
 90
1
 70
1
 10
-59.862320
 20
122.411880
 30
0.0
  0
SPLINE
  5
1a4
100
AcDbEntity
  8
Calque_1
 62
7
100
AcDbSpline
 70
8
 71
3
 72
8
 73
4
 74
0
 40
0
 40
0
 40
0
 40
0
 40
1
 40
1
 40
1
 40
1
 10
-59.862320
 20
63.217960
 30
0.0
 10
-57.004195
 20
63.217960
 30
0.0
 10
-54.363179
 20
64.742751
 30
0.0
 10
-52.934117
 20
67.217960
 30
0.0
  0
SPLINE
  5
1a5
100
AcDbEntity
  8
Calque_1
 62
7
100
AcDbSpline
 70
8
 71
3
 72
8
 73
4
 74
0
 40
0
 40
0
 40
0
 40
0
 40
1
 40
1
 40
1
 40
1
 10
-52.934117
 20
67.217960
 30
0.0
 10
-51.505054
 20
69.693169
 30
0.0
 10
-51.505054
 20
72.742751
 30
0.0
 10
-52.934117
 20
75.217960
 30
0.0
  0
SPLINE
  5
1a6
100
AcDbEntity
  8
Calque_1
 62
7
100
AcDbSpline
 70
8
 71
3
 72
8
 73
4
 74
0
 40
0
 40
0
 40
0
 40
0
 40
1
 40
1
 40
1
 40
1
 10
-52.934117
 20
75.217960
 30
0.0
 10
-54.363179
 20
77.693169
 30
0.0
 10
-57.004195
 20
79.217960
 30
0.0
 10
-59.862320
 20
79.217960
 30
0.0
  0
SPLINE
  5
1a7
100
AcDbEntity
  8
Calque_1
 62
7
100
AcDbSpline
 70
8
 71
3
 72
8
 73
4
 74
0
 40
0
 40
0
 40
0
 40
0
 40
1
 40
1
 40
1
 40
1
 10
-59.862320
 20
79.217960
 30
0.0
 10
-62.720445
 20
79.217960
 30
0.0
 10
-65.361461
 20
77.693169
 30
0.0
 10
-66.790523
 20
75.217960
 30
0.0
  0
SPLINE
  5
1a8
100
AcDbEntity
  8
Calque_1
 62
7
100
AcDbSpline
 70
8
 71
3
 72
8
 73
4
 74
0
 40
0
 40
0
 40
0
 40
0
 40
1
 40
1
 40
1
 40
1
 10
-66.790523
 20
75.217960
 30
0.0
 10
-68.219586
 20
72.742751
 30
0.0
 10
-68.219586
 20
69.693169
 30
0.0
 10
-66.790523
 20
67.217960
 30
0.0
  0
SPLINE
  5
1a9
100
AcDbEntity
  8
Calque_1
 62
7
100
AcDbSpline
 70
8
 71
3
 72
8
 73
4
 74
0
 40
0
 40
0
 40
0
 40
0
 40
1
 40
1
 40
1
 40
1
 10
-66.790523
 20
67.217960
 30
0.0
 10
-65.361461
 20
64.742751
 30
0.0
 10
-62.720445
 20
63.217960
 30
0.0
 10
-59.862320
 20
63.217960
 30
0.0
  0
LWPOLYLINE
  5
1aa
100
AcDbEntity
  8
Calque_1
 62
7
100
AcDbPolyline
 90
1
 70
1
 10
-59.862320
 20
92.814930
 30
0.0
  0
SPLINE
  5
1ab
100
AcDbEntity
  8
Calque_1
 62
7
100
AcDbSpline
 70
8
 71
3
 72
8
 73
4
 74
0
 40
0
 40
0
 40
0
 40
0
 40
1
 40
1
 40
1
 40
1
 10
-59.862320
 20
33.620990
 30
0.0
 10
-57.004195
 20
33.620990
 30
0.0
 10
-54.363179
 20
35.145781
 30
0.0
 10
-52.934117
 20
37.620990
 30
0.0
  0
SPLINE
  5
1ac
100
AcDbEntity
  8
Calque_1
 62
7
100
AcDbSpline
 70
8
 71
3
 72
8
 73
4
 74
0
 40
0
 40
0
 40
0
 40
0
 40
1
 40
1
 40
1
 40
1
 10
-52.934117
 20
37.620990
 30
0.0
 10
-51.505054
 20
40.096199
 30
0.0
 10
-51.505054
 20
43.145781
 30
0.0
 10
-52.934117
 20
45.620990
 30
0.0
  0
SPLINE
  5
1ad
100
AcDbEntity
  8
Calque_1
 62
7
100
AcDbSpline
 70
8
 71
3
 72
8
 73
4
 74
0
 40
0
 40
0
 40
0
 40
0
 40
1
 40
1
 40
1
 40
1
 10
-52.934117
 20
45.620990
 30
0.0
 10
-54.363179
 20
48.096199
 30
0.0
 10
-57.004195
 20
49.620990
 30
0.0
 10
-59.862320
 20
49.620990
 30
0.0
  0
SPLINE
  5
1ae
100
AcDbEntity
  8
Calque_1
 62
7
100
AcDbSpline
 70
8
 71
3
 72
8
 73
4
 74
0
 40
0
 40
0
 40
0
 40
0
 40
1
 40
1
 40
1
 40
1
 10
-59.862320
 20
49.620990
 30
0.0
 10
-62.720445
 20
49.620990
 30
0.0
 10
-65.361461
 20
48.096199
 30
0.0
 10
-66.790523
 20
45.620990
 30
0.0
  0
SPLINE
  5
1af
100
AcDbEntity
  8
Calque_1
 62
7
100
AcDbSpline
 70
8
 71
3
 72
8
 73
4
 74
0
 40
0
 40
0
 40
0
 40
0
 40
1
 40
1
 40
1
 40
1
 10
-66.790523
 20
45.620990
 30
0.0
 10
-68.219586
 20
43.145781
 30
0.0
 10
-68.219586
 20
40.096199
 30
0.0
 10
-66.790523
 20
37.620990
 30
0.0
  0
SPLINE
  5
1b0
100
AcDbEntity
  8
Calque_1
 62
7
100
AcDbSpline
 70
8
 71
3
 72
8
 73
4
 74
0
 40
0
 40
0
 40
0
 40
0
 40
1
 40
1
 40
1
 40
1
 10
-66.790523
 20
37.620990
 30
0.0
 10
-65.361461
 20
35.145781
 30
0.0
 10
-62.720445
 20
33.620990
 30
0.0
 10
-59.862320
 20
33.620990
 30
0.0
  0
LWPOLYLINE
  5
1b1
100
AcDbEntity
  8
Calque_1
 62
7
100
AcDbPolyline
 90
1
 70
1
 10
-59.862320
 20
63.217960
 30
0.0
  0
SPLINE
  5
1b2
100
AcDbEntity
  8
Calque_1
 62
7
100
AcDbSpline
 70
8
 71
3
 72
8
 73
4
 74
0
 40
0
 40
0
 40
0
 40
0
 40
1
 40
1
 40
1
 40
1
 10
-59.862320
 20
152.008880
 30
0.0
 10
-57.004195
 20
152.008880
 30
0.0
 10
-54.363179
 20
153.533671
 30
0.0
 10
-52.934117
 20
156.008880
 30
0.0
  0
SPLINE
  5
1b3
100
AcDbEntity
  8
Calque_1
 62
7
100
AcDbSpline
 70
8
 71
3
 72
8
 73
4
 74
0
 40
0
 40
0
 40
0
 40
0
 40
1
 40
1
 40
1
 40
1
 10
-52.934117
 20
156.008880
 30
0.0
 10
-51.505054
 20
158.484089
 30
0.0
 10
-51.505054
 20
161.533671
 30
0.0
 10
-52.934117
 20
164.008880
 30
0.0
  0
SPLINE
  5
1b4
100
AcDbEntity
  8
Calque_1
 62
7
100
AcDbSpline
 70
8
 71
3
 72
8
 73
4
 74
0
 40
0
 40
0
 40
0
 40
0
 40
1
 40
1
 40
1
 40
1
 10
-52.934117
 20
164.008880
 30
0.0
 10
-54.363179
 20
166.484089
 30
0.0
 10
-57.004195
 20
168.008880
 30
0.0
 10
-59.862320
 20
168.008880
 30
0.0
  0
SPLINE
  5
1b5
100
AcDbEntity
  8
Calque_1
 62
7
100
AcDbSpline
 70
8
 71
3
 72
8
 73
4
 74
0
 40
0
 40
0
 40
0
 40
0
 40
1
 40
1
 40
1
 40
1
 10
-59.862320
 20
168.008880
 30
0.0
 10
-62.720445
 20
168.008880
 30
0.0
 10
-65.361461
 20
166.484089
 30
0.0
 10
-66.790523
 20
164.008880
 30
0.0
  0
SPLINE
  5
1b6
100
AcDbEntity
  8
Calque_1
 62
7
100
AcDbSpline
 70
8
 71
3
 72
8
 73
4
 74
0
 40
0
 40
0
 40
0
 40
0
 40
1
 40
1
 40
1
 40
1
 10
-66.790523
 20
164.008880
 30
0.0
 10
-68.219586
 20
161.533671
 30
0.0
 10
-68.219586
 20
158.484089
 30
0.0
 10
-66.790523
 20
156.008880
 30
0.0
  0
SPLINE
  5
1b7
100
AcDbEntity
  8
Calque_1
 62
7
100
AcDbSpline
 70
8
 71
3
 72
8
 73
4
 74
0
 40
0
 40
0
 40
0
 40
0
 40
1
 40
1
 40
1
 40
1
 10
-66.790523
 20
156.008880
 30
0.0
 10
-65.361461
 20
153.533671
 30
0.0
 10
-62.720445
 20
152.008880
 30
0.0
 10
-59.862320
 20
152.008880
 30
0.0
  0
LWPOLYLINE
  5
1b8
100
AcDbEntity
  8
Calque_1
 62
7
100
AcDbPolyline
 90
1
 70
1
 10
-59.862320
 20
33.620990
 30
0.0
  0
LWPOLYLINE
  5
1b9
100
AcDbEntity
  8
Calque_1
 62
7
100
AcDbPolyline
 90
1
 70
1
 10
-59.862320
 20
152.008880
 30
0.0
  0
SPLINE
  5
1ba
100
AcDbEntity
  8
Calque_1
 62
7
100
AcDbSpline
 70
8
 71
3
 72
8
 73
4
 74
0
 40
0
 40
0
 40
0
 40
0
 40
1
 40
1
 40
1
 40
1
 10
109.051160
 20
122.411880
 30
0.0
 10
111.909285
 20
122.411880
 30
0.0
 10
114.550301
 20
123.936671
 30
0.0
 10
115.979363
 20
126.411880
 30
0.0
  0
SPLINE
  5
1bb
100
AcDbEntity
  8
Calque_1
 62
7
100
AcDbSpline
 70
8
 71
3
 72
8
 73
4
 74
0
 40
0
 40
0
 40
0
 40
0
 40
1
 40
1
 40
1
 40
1
 10
115.979363
 20
126.411880
 30
0.0
 10
117.408426
 20
128.887089
 30
0.0
 10
117.408426
 20
131.936671
 30
0.0
 10
115.979363
 20
134.411880
 30
0.0
  0
SPLINE
  5
1bc
100
AcDbEntity
  8
Calque_1
 62
7
100
AcDbSpline
 70
8
 71
3
 72
8
 73
4
 74
0
 40
0
 40
0
 40
0
 40
0
 40
1
 40
1
 40
1
 40
1
 10
115.979363
 20
134.411880
 30
0.0
 10
114.550301
 20
136.887089
 30
0.0
 10
111.909285
 20
138.411880
 30
0.0
 10
109.051160
 20
138.411880
 30
0.0
  0
SPLINE
  5
1bd
100
AcDbEntity
  8
Calque_1
 62
7
100
AcDbSpline
 70
8
 71
3
 72
8
 73
4
 74
0
 40
0
 40
0
 40
0
 40
0
 40
1
 40
1
 40
1
 40
1
 10
109.051160
 20
138.411880
 30
0.0
 10
106.193035
 20
138.411880
 30
0.0
 10
103.552019
 20
136.887089
 30
0.0
 10
102.122957
 20
134.411880
 30
0.0
  0
SPLINE
  5
1be
100
AcDbEntity
  8
Calque_1
 62
7
100
AcDbSpline
 70
8
 71
3
 72
8
 73
4
 74
0
 40
0
 40
0
 40
0
 40
0
 40
1
 40
1
 40
1
 40
1
 10
102.122957
 20
134.411880
 30
0.0
 10
100.693894
 20
131.936671
 30
0.0
 10
100.693894
 20
128.887089
 30
0.0
 10
102.122957
 20
126.411880
 30
0.0
  0
SPLINE
  5
1bf
100
AcDbEntity
  8
Calque_1
 62
7
100
AcDbSpline
 70
8
 71
3
 72
8
 73
4
 74
0
 40
0
 40
0
 40
0
 40
0
 40
1
 40
1
 40
1
 40
1
 10
102.122957
 20
126.411880
 30
0.0
 10
103.552019
 20
123.936671
 30
0.0
 10
106.193035
 20
122.411880
 30
0.0
 10
109.051160
 20
122.411880
 30
0.0
  0
LWPOLYLINE
  5
1c0
100
AcDbEntity
  8
Calque_1
 62
5
100
AcDbPolyline
 90
4
 70
1
 10
75.141922
 20
153.578920
 30
0.0
 10
165.042183
 20
153.578920
 30
0.0
 10
165.042183
 20
18.807500
 30
0.0
 10
75.141922
 20
18.807500
 30
0.0
  0
SPLINE
  5
1c1
100
AcDbEntity
  8
Calque_1
 62
7
100
AcDbSpline
 70
8
 71
3
 72
8
 73
4
 74
0
 40
0
 40
0
 40
0
 40
0
 40
1
 40
1
 40
1
 40
1
 10
109.051160
 20
92.814910
 30
0.0
 10
111.909285
 20
92.814910
 30
0.0
 10
114.550301
 20
94.339701
 30
0.0
 10
115.979363
 20
96.814910
 30
0.0
  0
SPLINE
  5
1c2
100
AcDbEntity
  8
Calque_1
 62
7
100
AcDbSpline
 70
8
 71
3
 72
8
 73
4
 74
0
 40
0
 40
0
 40
0
 40
0
 40
1
 40
1
 40
1
 40
1
 10
115.979363
 20
96.814910
 30
0.0
 10
117.408426
 20
99.290119
 30
0.0
 10
117.408426
 20
102.339701
 30
0.0
 10
115.979363
 20
104.814910
 30
0.0
  0
SPLINE
  5
1c3
100
AcDbEntity
  8
Calque_1
 62
7
100
AcDbSpline
 70
8
 71
3
 72
8
 73
4
 74
0
 40
0
 40
0
 40
0
 40
0
 40
1
 40
1
 40
1
 40
1
 10
115.979363
 20
104.814910
 30
0.0
 10
114.550301
 20
107.290119
 30
0.0
 10
111.909285
 20
108.814910
 30
0.0
 10
109.051160
 20
108.814910
 30
0.0
  0
SPLINE
  5
1c4
100
AcDbEntity
  8
Calque_1
 62
7
100
AcDbSpline
 70
8
 71
3
 72
8
 73
4
 74
0
 40
0
 40
0
 40
0
 40
0
 40
1
 40
1
 40
1
 40
1
 10
109.051160
 20
108.814910
 30
0.0
 10
106.193035
 20
108.814910
 30
0.0
 10
103.552019
 20
107.290119
 30
0.0
 10
102.122957
 20
104.814910
 30
0.0
  0
SPLINE
  5
1c5
100
AcDbEntity
  8
Calque_1
 62
7
100
AcDbSpline
 70
8
 71
3
 72
8
 73
4
 74
0
 40
0
 40
0
 40
0
 40
0
 40
1
 40
1
 40
1
 40
1
 10
102.122957
 20
104.814910
 30
0.0
 10
100.693894
 20
102.339701
 30
0.0
 10
100.693894
 20
99.290119
 30
0.0
 10
102.122957
 20
96.814910
 30
0.0
  0
SPLINE
  5
1c6
100
AcDbEntity
  8
Calque_1
 62
7
100
AcDbSpline
 70
8
 71
3
 72
8
 73
4
 74
0
 40
0
 40
0
 40
0
 40
0
 40
1
 40
1
 40
1
 40
1
 10
102.122957
 20
96.814910
 30
0.0
 10
103.552019
 20
94.339701
 30
0.0
 10
106.193035
 20
92.814910
 30
0.0
 10
109.051160
 20
92.814910
 30
0.0
  0
LWPOLYLINE
  5
1c7
100
AcDbEntity
  8
Calque_1
 62
7
100
AcDbPolyline
 90
1
 70
1
 10
109.051160
 20
122.411880
 30
0.0
  0
SPLINE
  5
1c8
100
AcDbEntity
  8
Calque_1
 62
7
100
AcDbSpline
 70
8
 71
3
 72
8
 73
4
 74
0
 40
0
 40
0
 40
0
 40
0
 40
1
 40
1
 40
1
 40
1
 10
109.051160
 20
63.217960
 30
0.0
 10
111.909285
 20
63.217960
 30
0.0
 10
114.550301
 20
64.742751
 30
0.0
 10
115.979363
 20
67.217960
 30
0.0
  0
SPLINE
  5
1c9
100
AcDbEntity
  8
Calque_1
 62
7
100
AcDbSpline
 70
8
 71
3
 72
8
 73
4
 74
0
 40
0
 40
0
 40
0
 40
0
 40
1
 40
1
 40
1
 40
1
 10
115.979363
 20
67.217960
 30
0.0
 10
117.408426
 20
69.693169
 30
0.0
 10
117.408426
 20
72.742751
 30
0.0
 10
115.979363
 20
75.217960
 30
0.0
  0
SPLINE
  5
1ca
100
AcDbEntity
  8
Calque_1
 62
7
100
AcDbSpline
 70
8
 71
3
 72
8
 73
4
 74
0
 40
0
 40
0
 40
0
 40
0
 40
1
 40
1
 40
1
 40
1
 10
115.979363
 20
75.217960
 30
0.0
 10
114.550301
 20
77.693169
 30
0.0
 10
111.909285
 20
79.217960
 30
0.0
 10
109.051160
 20
79.217960
 30
0.0
  0
SPLINE
  5
1cb
100
AcDbEntity
  8
Calque_1
 62
7
100
AcDbSpline
 70
8
 71
3
 72
8
 73
4
 74
0
 40
0
 40
0
 40
0
 40
0
 40
1
 40
1
 40
1
 40
1
 10
109.051160
 20
79.217960
 30
0.0
 10
106.193035
 20
79.217960
 30
0.0
 10
103.552019
 20
77.693169
 30
0.0
 10
102.122957
 20
75.217960
 30
0.0
  0
SPLINE
  5
1cc
100
AcDbEntity
  8
Calque_1
 62
7
100
AcDbSpline
 70
8
 71
3
 72
8
 73
4
 74
0
 40
0
 40
0
 40
0
 40
0
 40
1
 40
1
 40
1
 40
1
 10
102.122957
 20
75.217960
 30
0.0
 10
100.693894
 20
72.742751
 30
0.0
 10
100.693894
 20
69.693169
 30
0.0
 10
102.122957
 20
67.217960
 30
0.0
  0
SPLINE
  5
1cd
100
AcDbEntity
  8
Calque_1
 62
7
100
AcDbSpline
 70
8
 71
3
 72
8
 73
4
 74
0
 40
0
 40
0
 40
0
 40
0
 40
1
 40
1
 40
1
 40
1
 10
102.122957
 20
67.217960
 30
0.0
 10
103.552019
 20
64.742751
 30
0.0
 10
106.193035
 20
63.217960
 30
0.0
 10
109.051160
 20
63.217960
 30
0.0
  0
LWPOLYLINE
  5
1ce
100
AcDbEntity
  8
Calque_1
 62
7
100
AcDbPolyline
 90
1
 70
1
 10
109.051160
 20
92.814910
 30
0.0
  0
SPLINE
  5
1cf
100
AcDbEntity
  8
Calque_1
 62
7
100
AcDbSpline
 70
8
 71
3
 72
8
 73
4
 74
0
 40
0
 40
0
 40
0
 40
0
 40
1
 40
1
 40
1
 40
1
 10
109.051160
 20
33.620990
 30
0.0
 10
111.909285
 20
33.620990
 30
0.0
 10
114.550301
 20
35.145781
 30
0.0
 10
115.979363
 20
37.620990
 30
0.0
  0
SPLINE
  5
1d0
100
AcDbEntity
  8
Calque_1
 62
7
100
AcDbSpline
 70
8
 71
3
 72
8
 73
4
 74
0
 40
0
 40
0
 40
0
 40
0
 40
1
 40
1
 40
1
 40
1
 10
115.979363
 20
37.620990
 30
0.0
 10
117.408426
 20
40.096199
 30
0.0
 10
117.408426
 20
43.145781
 30
0.0
 10
115.979363
 20
45.620990
 30
0.0
  0
SPLINE
  5
1d1
100
AcDbEntity
  8
Calque_1
 62
7
100
AcDbSpline
 70
8
 71
3
 72
8
 73
4
 74
0
 40
0
 40
0
 40
0
 40
0
 40
1
 40
1
 40
1
 40
1
 10
115.979363
 20
45.620990
 30
0.0
 10
114.550301
 20
48.096199
 30
0.0
 10
111.909285
 20
49.620990
 30
0.0
 10
109.051160
 20
49.620990
 30
0.0
  0
SPLINE
  5
1d2
100
AcDbEntity
  8
Calque_1
 62
7
100
AcDbSpline
 70
8
 71
3
 72
8
 73
4
 74
0
 40
0
 40
0
 40
0
 40
0
 40
1
 40
1
 40
1
 40
1
 10
109.051160
 20
49.620990
 30
0.0
 10
106.193035
 20
49.620990
 30
0.0
 10
103.552019
 20
48.096199
 30
0.0
 10
102.122957
 20
45.620990
 30
0.0
  0
SPLINE
  5
1d3
100
AcDbEntity
  8
Calque_1
 62
7
100
AcDbSpline
 70
8
 71
3
 72
8
 73
4
 74
0
 40
0
 40
0
 40
0
 40
0
 40
1
 40
1
 40
1
 40
1
 10
102.122957
 20
45.620990
 30
0.0
 10
100.693894
 20
43.145781
 30
0.0
 10
100.693894
 20
40.096199
 30
0.0
 10
102.122957
 20
37.620990
 30
0.0
  0
SPLINE
  5
1d4
100
AcDbEntity
  8
Calque_1
 62
7
100
AcDbSpline
 70
8
 71
3
 72
8
 73
4
 74
0
 40
0
 40
0
 40
0
 40
0
 40
1
 40
1
 40
1
 40
1
 10
102.122957
 20
37.620990
 30
0.0
 10
103.552019
 20
35.145781
 30
0.0
 10
106.193035
 20
33.620990
 30
0.0
 10
109.051160
 20
33.620990
 30
0.0
  0
LWPOLYLINE
  5
1d5
100
AcDbEntity
  8
Calque_1
 62
7
100
AcDbPolyline
 90
1
 70
1
 10
109.051160
 20
63.217960
 30
0.0
  0
SPLINE
  5
1d6
100
AcDbEntity
  8
Calque_1
 62
7
100
AcDbSpline
 70
8
 71
3
 72
8
 73
4
 74
0
 40
0
 40
0
 40
0
 40
0
 40
1
 40
1
 40
1
 40
1
 10
134.023700
 20
122.412060
 30
0.0
 10
136.881825
 20
122.412060
 30
0.0
 10
139.522841
 20
123.936851
 30
0.0
 10
140.951903
 20
126.412060
 30
0.0
  0
SPLINE
  5
1d7
100
AcDbEntity
  8
Calque_1
 62
7
100
AcDbSpline
 70
8
 71
3
 72
8
 73
4
 74
0
 40
0
 40
0
 40
0
 40
0
 40
1
 40
1
 40
1
 40
1
 10
140.951903
 20
126.412060
 30
0.0
 10
142.380966
 20
128.887269
 30
0.0
 10
142.380966
 20
131.936851
 30
0.0
 10
140.951903
 20
134.412060
 30
0.0
  0
SPLINE
  5
1d8
100
AcDbEntity
  8
Calque_1
 62
7
100
AcDbSpline
 70
8
 71
3
 72
8
 73
4
 74
0
 40
0
 40
0
 40
0
 40
0
 40
1
 40
1
 40
1
 40
1
 10
140.951903
 20
134.412060
 30
0.0
 10
139.522841
 20
136.887269
 30
0.0
 10
136.881825
 20
138.412060
 30
0.0
 10
134.023700
 20
138.412060
 30
0.0
  0
SPLINE
  5
1d9
100
AcDbEntity
  8
Calque_1
 62
7
100
AcDbSpline
 70
8
 71
3
 72
8
 73
4
 74
0
 40
0
 40
0
 40
0
 40
0
 40
1
 40
1
 40
1
 40
1
 10
134.023700
 20
138.412060
 30
0.0
 10
131.165575
 20
138.412060
 30
0.0
 10
128.524559
 20
136.887269
 30
0.0
 10
127.095497
 20
134.412060
 30
0.0
  0
SPLINE
  5
1da
100
AcDbEntity
  8
Calque_1
 62
7
100
AcDbSpline
 70
8
 71
3
 72
8
 73
4
 74
0
 40
0
 40
0
 40
0
 40
0
 40
1
 40
1
 40
1
 40
1
 10
127.095497
 20
134.412060
 30
0.0
 10
125.666434
 20
131.936851
 30
0.0
 10
125.666434
 20
128.887269
 30
0.0
 10
127.095497
 20
126.412060
 30
0.0
  0
SPLINE
  5
1db
100
AcDbEntity
  8
Calque_1
 62
7
100
AcDbSpline
 70
8
 71
3
 72
8
 73
4
 74
0
 40
0
 40
0
 40
0
 40
0
 40
1
 40
1
 40
1
 40
1
 10
127.095497
 20
126.412060
 30
0.0
 10
128.524559
 20
123.936851
 30
0.0
 10
131.165575
 20
122.412060
 30
0.0
 10
134.023700
 20
122.412060
 30
0.0
  0
LWPOLYLINE
  5
1dc
100
AcDbEntity
  8
Calque_1
 62
7
100
AcDbPolyline
 90
1
 70
1
 10
109.051160
 20
33.620990
 30
0.0
  0
SPLINE
  5
1dd
100
AcDbEntity
  8
Calque_1
 62
7
100
AcDbSpline
 70
8
 71
3
 72
8
 73
4
 74
0
 40
0
 40
0
 40
0
 40
0
 40
1
 40
1
 40
1
 40
1
 10
134.023700
 20
92.815120
 30
0.0
 10
136.881825
 20
92.815120
 30
0.0
 10
139.522841
 20
94.339911
 30
0.0
 10
140.951903
 20
96.815120
 30
0.0
  0
SPLINE
  5
1de
100
AcDbEntity
  8
Calque_1
 62
7
100
AcDbSpline
 70
8
 71
3
 72
8
 73
4
 74
0
 40
0
 40
0
 40
0
 40
0
 40
1
 40
1
 40
1
 40
1
 10
140.951903
 20
96.815120
 30
0.0
 10
142.380966
 20
99.290329
 30
0.0
 10
142.380966
 20
102.339911
 30
0.0
 10
140.951903
 20
104.815120
 30
0.0
  0
SPLINE
  5
1df
100
AcDbEntity
  8
Calque_1
 62
7
100
AcDbSpline
 70
8
 71
3
 72
8
 73
4
 74
0
 40
0
 40
0
 40
0
 40
0
 40
1
 40
1
 40
1
 40
1
 10
140.951903
 20
104.815120
 30
0.0
 10
139.522841
 20
107.290329
 30
0.0
 10
136.881825
 20
108.815120
 30
0.0
 10
134.023700
 20
108.815120
 30
0.0
  0
SPLINE
  5
1e0
100
AcDbEntity
  8
Calque_1
 62
7
100
AcDbSpline
 70
8
 71
3
 72
8
 73
4
 74
0
 40
0
 40
0
 40
0
 40
0
 40
1
 40
1
 40
1
 40
1
 10
134.023700
 20
108.815120
 30
0.0
 10
131.165575
 20
108.815120
 30
0.0
 10
128.524559
 20
107.290329
 30
0.0
 10
127.095497
 20
104.815120
 30
0.0
  0
SPLINE
  5
1e1
100
AcDbEntity
  8
Calque_1
 62
7
100
AcDbSpline
 70
8
 71
3
 72
8
 73
4
 74
0
 40
0
 40
0
 40
0
 40
0
 40
1
 40
1
 40
1
 40
1
 10
127.095497
 20
104.815120
 30
0.0
 10
125.666434
 20
102.339911
 30
0.0
 10
125.666434
 20
99.290329
 30
0.0
 10
127.095497
 20
96.815120
 30
0.0
  0
SPLINE
  5
1e2
100
AcDbEntity
  8
Calque_1
 62
7
100
AcDbSpline
 70
8
 71
3
 72
8
 73
4
 74
0
 40
0
 40
0
 40
0
 40
0
 40
1
 40
1
 40
1
 40
1
 10
127.095497
 20
96.815120
 30
0.0
 10
128.524559
 20
94.339911
 30
0.0
 10
131.165575
 20
92.815120
 30
0.0
 10
134.023700
 20
92.815120
 30
0.0
  0
LWPOLYLINE
  5
1e3
100
AcDbEntity
  8
Calque_1
 62
7
100
AcDbPolyline
 90
1
 70
1
 10
134.023700
 20
122.412060
 30
0.0
  0
SPLINE
  5
1e4
100
AcDbEntity
  8
Calque_1
 62
7
100
AcDbSpline
 70
8
 71
3
 72
8
 73
4
 74
0
 40
0
 40
0
 40
0
 40
0
 40
1
 40
1
 40
1
 40
1
 10
134.023700
 20
63.218120
 30
0.0
 10
136.881825
 20
63.218120
 30
0.0
 10
139.522841
 20
64.742911
 30
0.0
 10
140.951903
 20
67.218120
 30
0.0
  0
SPLINE
  5
1e5
100
AcDbEntity
  8
Calque_1
 62
7
100
AcDbSpline
 70
8
 71
3
 72
8
 73
4
 74
0
 40
0
 40
0
 40
0
 40
0
 40
1
 40
1
 40
1
 40
1
 10
140.951903
 20
67.218120
 30
0.0
 10
142.380966
 20
69.693329
 30
0.0
 10
142.380966
 20
72.742911
 30
0.0
 10
140.951903
 20
75.218120
 30
0.0
  0
SPLINE
  5
1e6
100
AcDbEntity
  8
Calque_1
 62
7
100
AcDbSpline
 70
8
 71
3
 72
8
 73
4
 74
0
 40
0
 40
0
 40
0
 40
0
 40
1
 40
1
 40
1
 40
1
 10
140.951903
 20
75.218120
 30
0.0
 10
139.522841
 20
77.693329
 30
0.0
 10
136.881825
 20
79.218120
 30
0.0
 10
134.023700
 20
79.218120
 30
0.0
  0
SPLINE
  5
1e7
100
AcDbEntity
  8
Calque_1
 62
7
100
AcDbSpline
 70
8
 71
3
 72
8
 73
4
 74
0
 40
0
 40
0
 40
0
 40
0
 40
1
 40
1
 40
1
 40
1
 10
134.023700
 20
79.218120
 30
0.0
 10
131.165575
 20
79.218120
 30
0.0
 10
128.524559
 20
77.693329
 30
0.0
 10
127.095497
 20
75.218120
 30
0.0
  0
SPLINE
  5
1e8
100
AcDbEntity
  8
Calque_1
 62
7
100
AcDbSpline
 70
8
 71
3
 72
8
 73
4
 74
0
 40
0
 40
0
 40
0
 40
0
 40
1
 40
1
 40
1
 40
1
 10
127.095497
 20
75.218120
 30
0.0
 10
125.666434
 20
72.742911
 30
0.0
 10
125.666434
 20
69.693329
 30
0.0
 10
127.095497
 20
67.218120
 30
0.0
  0
SPLINE
  5
1e9
100
AcDbEntity
  8
Calque_1
 62
7
100
AcDbSpline
 70
8
 71
3
 72
8
 73
4
 74
0
 40
0
 40
0
 40
0
 40
0
 40
1
 40
1
 40
1
 40
1
 10
127.095497
 20
67.218120
 30
0.0
 10
128.524559
 20
64.742911
 30
0.0
 10
131.165575
 20
63.218120
 30
0.0
 10
134.023700
 20
63.218120
 30
0.0
  0
LWPOLYLINE
  5
1ea
100
AcDbEntity
  8
Calque_1
 62
7
100
AcDbPolyline
 90
1
 70
1
 10
134.023700
 20
92.815120
 30
0.0
  0
SPLINE
  5
1eb
100
AcDbEntity
  8
Calque_1
 62
7
100
AcDbSpline
 70
8
 71
3
 72
8
 73
4
 74
0
 40
0
 40
0
 40
0
 40
0
 40
1
 40
1
 40
1
 40
1
 10
134.023700
 20
33.621140
 30
0.0
 10
136.881825
 20
33.621140
 30
0.0
 10
139.522841
 20
35.145931
 30
0.0
 10
140.951903
 20
37.621140
 30
0.0
  0
SPLINE
  5
1ec
100
AcDbEntity
  8
Calque_1
 62
7
100
AcDbSpline
 70
8
 71
3
 72
8
 73
4
 74
0
 40
0
 40
0
 40
0
 40
0
 40
1
 40
1
 40
1
 40
1
 10
140.951903
 20
37.621140
 30
0.0
 10
142.380966
 20
40.096349
 30
0.0
 10
142.380966
 20
43.145931
 30
0.0
 10
140.951903
 20
45.621140
 30
0.0
  0
SPLINE
  5
1ed
100
AcDbEntity
  8
Calque_1
 62
7
100
AcDbSpline
 70
8
 71
3
 72
8
 73
4
 74
0
 40
0
 40
0
 40
0
 40
0
 40
1
 40
1
 40
1
 40
1
 10
140.951903
 20
45.621140
 30
0.0
 10
139.522841
 20
48.096349
 30
0.0
 10
136.881825
 20
49.621140
 30
0.0
 10
134.023700
 20
49.621140
 30
0.0
  0
SPLINE
  5
1ee
100
AcDbEntity
  8
Calque_1
 62
7
100
AcDbSpline
 70
8
 71
3
 72
8
 73
4
 74
0
 40
0
 40
0
 40
0
 40
0
 40
1
 40
1
 40
1
 40
1
 10
134.023700
 20
49.621140
 30
0.0
 10
131.165575
 20
49.621140
 30
0.0
 10
128.524559
 20
48.096349
 30
0.0
 10
127.095497
 20
45.621140
 30
0.0
  0
SPLINE
  5
1ef
100
AcDbEntity
  8
Calque_1
 62
7
100
AcDbSpline
 70
8
 71
3
 72
8
 73
4
 74
0
 40
0
 40
0
 40
0
 40
0
 40
1
 40
1
 40
1
 40
1
 10
127.095497
 20
45.621140
 30
0.0
 10
125.666434
 20
43.145931
 30
0.0
 10
125.666434
 20
40.096349
 30
0.0
 10
127.095497
 20
37.621140
 30
0.0
  0
SPLINE
  5
1f0
100
AcDbEntity
  8
Calque_1
 62
7
100
AcDbSpline
 70
8
 71
3
 72
8
 73
4
 74
0
 40
0
 40
0
 40
0
 40
0
 40
1
 40
1
 40
1
 40
1
 10
127.095497
 20
37.621140
 30
0.0
 10
128.524559
 20
35.145931
 30
0.0
 10
131.165575
 20
33.621140
 30
0.0
 10
134.023700
 20
33.621140
 30
0.0
  0
LWPOLYLINE
  5
1f1
100
AcDbEntity
  8
Calque_1
 62
7
100
AcDbPolyline
 90
1
 70
1
 10
134.023700
 20
63.218120
 30
0.0
  0
SPLINE
  5
1f2
100
AcDbEntity
  8
Calque_1
 62
7
100
AcDbSpline
 70
8
 71
3
 72
8
 73
4
 74
0
 40
0
 40
0
 40
0
 40
0
 40
1
 40
1
 40
1
 40
1
 10
3.534529
 20
130.411880
 30
0.0
 10
3.534529
 20
132.555474
 30
0.0
 10
2.390935
 20
134.536236
 30
0.0
 10
0.534529
 20
135.608032
 30
0.0
  0
SPLINE
  5
1f3
100
AcDbEntity
  8
Calque_1
 62
7
100
AcDbSpline
 70
8
 71
3
 72
8
 73
4
 74
0
 40
0
 40
0
 40
0
 40
0
 40
1
 40
1
 40
1
 40
1
 10
0.534529
 20
135.608032
 30
0.0
 10
-1.321877
 20
136.679829
 30
0.0
 10
-3.609065
 20
136.679829
 30
0.0
 10
-5.465471
 20
135.608032
 30
0.0
  0
SPLINE
  5
1f4
100
AcDbEntity
  8
Calque_1
 62
7
100
AcDbSpline
 70
8
 71
3
 72
8
 73
4
 74
0
 40
0
 40
0
 40
0
 40
0
 40
1
 40
1
 40
1
 40
1
 10
-5.465471
 20
135.608032
 30
0.0
 10
-7.321877
 20
134.536236
 30
0.0
 10
-8.465471
 20
132.555474
 30
0.0
 10
-8.465471
 20
130.411880
 30
0.0
  0
SPLINE
  5
1f5
100
AcDbEntity
  8
Calque_1
 62
7
100
AcDbSpline
 70
8
 71
3
 72
8
 73
4
 74
0
 40
0
 40
0
 40
0
 40
0
 40
1
 40
1
 40
1
 40
1
 10
-8.465471
 20
130.411880
 30
0.0
 10
-8.465471
 20
128.268286
 30
0.0
 10
-7.321877
 20
126.287524
 30
0.0
 10
-5.465471
 20
125.215728
 30
0.0
  0
SPLINE
  5
1f6
100
AcDbEntity
  8
Calque_1
 62
7
100
AcDbSpline
 70
8
 71
3
 72
8
 73
4
 74
0
 40
0
 40
0
 40
0
 40
0
 40
1
 40
1
 40
1
 40
1
 10
-5.465471
 20
125.215728
 30
0.0
 10
-3.609065
 20
124.143931
 30
0.0
 10
-1.321877
 20
124.143931
 30
0.0
 10
0.534529
 20
125.215728
 30
0.0
  0
SPLINE
  5
1f7
100
AcDbEntity
  8
Calque_1
 62
7
100
AcDbSpline
 70
8
 71
3
 72
8
 73
4
 74
0
 40
0
 40
0
 40
0
 40
0
 40
1
 40
1
 40
1
 40
1
 10
0.534529
 20
125.215728
 30
0.0
 10
2.390935
 20
126.287524
 30
0.0
 10
3.534529
 20
128.268286
 30
0.0
 10
3.534529
 20
130.411880
 30
0.0
  0
LWPOLYLINE
  5
1f8
100
AcDbEntity
  8
Calque_1
 62
7
100
AcDbPolyline
 90
1
 70
1
 10
134.023700
 20
33.621140
 30
0.0
  0
LWPOLYLINE
  5
1f9
100
AcDbEntity
  8
Calque_1
 62
7
100
AcDbPolyline
 90
1
 70
1
 10
3.534529
 20
130.411880
 30
0.0
  0
SPLINE
  5
1fa
100
AcDbEntity
  8
Calque_1
 62
7
100
AcDbSpline
 70
8
 71
3
 72
8
 73
4
 74
0
 40
0
 40
0
 40
0
 40
0
 40
1
 40
1
 40
1
 40
1
 10
190.424820
 20
117.310060
 30
0.0
 10
190.424820
 20
118.739122
 30
0.0
 10
189.662424
 20
120.059630
 30
0.0
 10
188.424820
 20
120.774162
 30
0.0
  0
SPLINE
  5
1fb
100
AcDbEntity
  8
Calque_1
 62
7
100
AcDbSpline
 70
8
 71
3
 72
8
 73
4
 74
0
 40
0
 40
0
 40
0
 40
0
 40
1
 40
1
 40
1
 40
1
 10
188.424820
 20
120.774162
 30
0.0
 10
187.187216
 20
121.488693
 30
0.0
 10
185.662424
 20
121.488693
 30
0.0
 10
184.424820
 20
120.774162
 30
0.0
  0
SPLINE
  5
1fc
100
AcDbEntity
  8
Calque_1
 62
7
100
AcDbSpline
 70
8
 71
3
 72
8
 73
4
 74
0
 40
0
 40
0
 40
0
 40
0
 40
1
 40
1
 40
1
 40
1
 10
184.424820
 20
120.774162
 30
0.0
 10
183.187216
 20
120.059630
 30
0.0
 10
182.424820
 20
118.739122
 30
0.0
 10
182.424820
 20
117.310060
 30
0.0
  0
SPLINE
  5
1fd
100
AcDbEntity
  8
Calque_1
 62
7
100
AcDbSpline
 70
8
 71
3
 72
8
 73
4
 74
0
 40
0
 40
0
 40
0
 40
0
 40
1
 40
1
 40
1
 40
1
 10
182.424820
 20
117.310060
 30
0.0
 10
182.424820
 20
115.880998
 30
0.0
 10
183.187216
 20
114.560490
 30
0.0
 10
184.424820
 20
113.845958
 30
0.0
  0
SPLINE
  5
1fe
100
AcDbEntity
  8
Calque_1
 62
7
100
AcDbSpline
 70
8
 71
3
 72
8
 73
4
 74
0
 40
0
 40
0
 40
0
 40
0
 40
1
 40
1
 40
1
 40
1
 10
184.424820
 20
113.845958
 30
0.0
 10
185.662424
 20
113.131427
 30
0.0
 10
187.187216
 20
113.131427
 30
0.0
 10
188.424820
 20
113.845958
 30
0.0
  0
SPLINE
  5
1ff
100
AcDbEntity
  8
Calque_1
 62
7
100
AcDbSpline
 70
8
 71
3
 72
8
 73
4
 74
0
 40
0
 40
0
 40
0
 40
0
 40
1
 40
1
 40
1
 40
1
 10
188.424820
 20
113.845958
 30
0.0
 10
189.662424
 20
114.560490
 30
0.0
 10
190.424820
 20
115.880998
 30
0.0
 10
190.424820
 20
117.310060
 30
0.0
  0
LWPOLYLINE
  5
200
100
AcDbEntity
  8
Calque_1
 62
5
100
AcDbPolyline
 90
4
 70
1
 10
169.041920
 20
203.344513
 30
0.0
 10
271.642200
 20
203.344513
 30
0.0
 10
271.642200
 20
18.807513
 30
0.0
 10
169.041920
 20
18.807513
 30
0.0
  0
SPLINE
  5
201
100
AcDbEntity
  8
Calque_1
 62
7
100
AcDbSpline
 70
8
 71
3
 72
8
 73
4
 74
0
 40
0
 40
0
 40
0
 40
0
 40
1
 40
1
 40
1
 40
1
 10
190.424831
 20
89.769373
 30
0.0
 10
190.424831
 20
91.198435
 30
0.0
 10
189.662435
 20
92.518943
 30
0.0
 10
188.424831
 20
93.233474
 30
0.0
  0
SPLINE
  5
202
100
AcDbEntity
  8
Calque_1
 62
7
100
AcDbSpline
 70
8
 71
3
 72
8
 73
4
 74
0
 40
0
 40
0
 40
0
 40
0
 40
1
 40
1
 40
1
 40
1
 10
188.424831
 20
93.233474
 30
0.0
 10
187.187226
 20
93.948005
 30
0.0
 10
185.662435
 20
93.948005
 30
0.0
 10
184.424831
 20
93.233474
 30
0.0
  0
SPLINE
  5
203
100
AcDbEntity
  8
Calque_1
 62
7
100
AcDbSpline
 70
8
 71
3
 72
8
 73
4
 74
0
 40
0
 40
0
 40
0
 40
0
 40
1
 40
1
 40
1
 40
1
 10
184.424831
 20
93.233474
 30
0.0
 10
183.187226
 20
92.518943
 30
0.0
 10
182.424831
 20
91.198435
 30
0.0
 10
182.424831
 20
89.769373
 30
0.0
  0
SPLINE
  5
204
100
AcDbEntity
  8
Calque_1
 62
7
100
AcDbSpline
 70
8
 71
3
 72
8
 73
4
 74
0
 40
0
 40
0
 40
0
 40
0
 40
1
 40
1
 40
1
 40
1
 10
182.424831
 20
89.769373
 30
0.0
 10
182.424831
 20
88.340310
 30
0.0
 10
183.187226
 20
87.019802
 30
0.0
 10
184.424831
 20
86.305271
 30
0.0
  0
SPLINE
  5
205
100
AcDbEntity
  8
Calque_1
 62
7
100
AcDbSpline
 70
8
 71
3
 72
8
 73
4
 74
0
 40
0
 40
0
 40
0
 40
0
 40
1
 40
1
 40
1
 40
1
 10
184.424831
 20
86.305271
 30
0.0
 10
185.662435
 20
85.590740
 30
0.0
 10
187.187226
 20
85.590740
 30
0.0
 10
188.424831
 20
86.305271
 30
0.0
  0
SPLINE
  5
206
100
AcDbEntity
  8
Calque_1
 62
7
100
AcDbSpline
 70
8
 71
3
 72
8
 73
4
 74
0
 40
0
 40
0
 40
0
 40
0
 40
1
 40
1
 40
1
 40
1
 10
188.424831
 20
86.305271
 30
0.0
 10
189.662435
 20
87.019802
 30
0.0
 10
190.424831
 20
88.340310
 30
0.0
 10
190.424831
 20
89.769373
 30
0.0
  0
LWPOLYLINE
  5
207
100
AcDbEntity
  8
Calque_1
 62
7
100
AcDbPolyline
 90
1
 70
1
 10
190.424820
 20
117.310060
 30
0.0
  0
LWPOLYLINE
  5
208
100
AcDbEntity
  8
Calque_1
 62
7
100
AcDbPolyline
 90
1
 70
1
 10
190.424831
 20
89.769373
 30
0.0
  0
LWPOLYLINE
  5
209
100
AcDbEntity
  8
Calque_1
 62
5
100
AcDbPolyline
 90
3
 70
0
 10
186.424830
 20
164.579480
 30
0.0
 10
193.814620
 20
192.158510
 30
0.0
 10
217.519490
 20
192.158510
 30
0.0
  0
LWPOLYLINE
  5
20a
100
AcDbEntity
  8
Calque_1
 62
5
100
AcDbPolyline
 90
3
 70
0
 10
186.424830
 20
164.579480
 30
0.0
 10
203.167220
 20
181.321910
 30
0.0
 10
217.519490
 20
181.321910
 30
0.0
  0
LWPOLYLINE
  5
20b
100
AcDbEntity
  8
Calque_1
 62
5
100
AcDbPolyline
 90
3
 70
0
 10
186.424830
 20
164.579480
 30
0.0
 10
208.463860
 20
170.484820
 30
0.0
 10
217.519490
 20
170.484820
 30
0.0
  0
LWPOLYLINE
  5
20c
100
AcDbEntity
  8
Calque_1
 62
5
100
AcDbPolyline
 90
3
 70
0
 10
186.424830
 20
164.579480
 30
0.0
 10
204.829880
 20
159.647860
 30
0.0
 10
217.519490
 20
159.647860
 30
0.0
  0
LWPOLYLINE
  5
20d
100
AcDbEntity
  8
Calque_1
 62
5
100
AcDbPolyline
 90
3
 70
0
 10
186.424830
 20
164.579480
 30
0.0
 10
202.193210
 20
148.811080
 30
0.0
 10
217.519490
 20
148.811080
 30
0.0
  0
SPLINE
  5
20e
100
AcDbEntity
  8
Calque_1
 62
7
100
AcDbSpline
 70
8
 71
3
 72
8
 73
4
 74
0
 40
0
 40
0
 40
0
 40
0
 40
1
 40
1
 40
1
 40
1
 10
190.424820
 20
164.579470
 30
0.0
 10
190.424820
 20
166.008532
 30
0.0
 10
189.662424
 20
167.329040
 30
0.0
 10
188.424820
 20
168.043572
 30
0.0
  0
SPLINE
  5
20f
100
AcDbEntity
  8
Calque_1
 62
7
100
AcDbSpline
 70
8
 71
3
 72
8
 73
4
 74
0
 40
0
 40
0
 40
0
 40
0
 40
1
 40
1
 40
1
 40
1
 10
188.424820
 20
168.043572
 30
0.0
 10
187.187216
 20
168.758103
 30
0.0
 10
185.662424
 20
168.758103
 30
0.0
 10
184.424820
 20
168.043572
 30
0.0
  0
SPLINE
  5
210
100
AcDbEntity
  8
Calque_1
 62
7
100
AcDbSpline
 70
8
 71
3
 72
8
 73
4
 74
0
 40
0
 40
0
 40
0
 40
0
 40
1
 40
1
 40
1
 40
1
 10
184.424820
 20
168.043572
 30
0.0
 10
183.187216
 20
167.329040
 30
0.0
 10
182.424820
 20
166.008532
 30
0.0
 10
182.424820
 20
164.579470
 30
0.0
  0
SPLINE
  5
211
100
AcDbEntity
  8
Calque_1
 62
7
100
AcDbSpline
 70
8
 71
3
 72
8
 73
4
 74
0
 40
0
 40
0
 40
0
 40
0
 40
1
 40
1
 40
1
 40
1
 10
182.424820
 20
164.579470
 30
0.0
 10
182.424820
 20
163.150408
 30
0.0
 10
183.187216
 20
161.829900
 30
0.0
 10
184.424820
 20
161.115368
 30
0.0
  0
SPLINE
  5
212
100
AcDbEntity
  8
Calque_1
 62
7
100
AcDbSpline
 70
8
 71
3
 72
8
 73
4
 74
0
 40
0
 40
0
 40
0
 40
0
 40
1
 40
1
 40
1
 40
1
 10
184.424820
 20
161.115368
 30
0.0
 10
185.662424
 20
160.400837
 30
0.0
 10
187.187216
 20
160.400837
 30
0.0
 10
188.424820
 20
161.115368
 30
0.0
  0
SPLINE
  5
213
100
AcDbEntity
  8
Calque_1
 62
7
100
AcDbSpline
 70
8
 71
3
 72
8
 73
4
 74
0
 40
0
 40
0
 40
0
 40
0
 40
1
 40
1
 40
1
 40
1
 10
188.424820
 20
161.115368
 30
0.0
 10
189.662424
 20
161.829900
 30
0.0
 10
190.424820
 20
163.150408
 30
0.0
 10
190.424820
 20
164.579470
 30
0.0
  0
LWPOLYLINE
  5
214
100
AcDbEntity
  8
Calque_1
 62
5
100
AcDbPolyline
 90
3
 70
0
 10
186.424830
 20
164.579480
 30
0.0
 10
193.553770
 20
137.973980
 30
0.0
 10
217.519490
 20
137.973980
 30
0.0
  0
LWPOLYLINE
  5
215
100
AcDbEntity
  8
Calque_1
 62
7
100
AcDbPolyline
 90
1
 70
1
 10
190.424820
 20
164.579470
 30
0.0
  0
LWPOLYLINE
  5
216
100
AcDbEntity
  8
Calque_1
 62
5
100
AcDbPolyline
 90
4
 70
1
 10
75.141922
 20
203.344513
 30
0.0
 10
165.042183
 20
203.344513
 30
0.0
 10
165.042183
 20
166.200142
 30
0.0
 10
75.141922
 20
166.200142
 30
0.0
  0
LWPOLYLINE
  5
217
100
AcDbEntity
  8
Calque_1
 62
5
100
AcDbPolyline
 90
4
 70
1
 10
-324.983920
 20
214.652679
 30
0.0
 10
285.674410
 20
214.652679
 30
0.0
 10
285.674410
 20
4.573519
 30
0.0
 10
-324.983920
 20
4.573519
 30
0.0
  0
ENDSEC
  0
SECTION
  2
OBJECTS
  0
DICTIONARY
  5
C
330
0
100
AcDbDictionary
  3
ACAD_GROUP
350
D
  3
ACAD_MLINESTYLE
350
17
  0
DICTIONARY
  5
D
330
C
100
AcDbDictionary
  0
DICTIONARY
  5
1A
330
C
100
AcDbDictionary
  0
DICTIONARY
  5
17
330
C
100
AcDbDictionary
  3
STANDARD
350
18
  0
DICTIONARY
  5
19
330
C
100
AcDbDictionary
  0
ENDSEC
  0
EOF
